<?xml version="1.0" encoding="UTF-8" standalone="no"?>
<svg width="100px" height="117px" viewBox="0 0 100 117" version="1.1" xmlns="http://www.w3.org/2000/svg" xmlns:xlink="http://www.w3.org/1999/xlink" xmlns:sketch="http://www.bohemiancoding.com/sketch/ns">
    <!-- Generator: Sketch 3.4.4 (17249) - http://www.bohemiancoding.com/sketch -->
    <title>body</title>
    <desc>Created with Sketch.</desc>
    <defs></defs>
    <g id="Page-1" stroke="none" stroke-width="1" fill="none" fill-rule="evenodd" sketch:type="MSPage">
        <g id="Blue" sketch:type="MSArtboardGroup" transform="translate(0.000000, -204.000000)" fill="#3498DB">
            <g id="body" sketch:type="MSLayerGroup" transform="translate(0.000000, 204.000000)">
                <circle id="Oval" sketch:type="MSShapeGroup" cx="50" cy="12.7182292" r="12.5"></circle>
                <path d="M93.75,29.4270833 L6.25,29.4270833 C2.79817708,29.4270833 0,32.2252604 0,35.6770833 C0,39.1289063 2.79817708,41.9270833 6.25,41.9270833 L31.8882812,41.9270833 C33.3411458,42.1875 35.325,42.9263021 36.3716146,45.6385417 C37.5828125,48.778125 36.9888021,54.3901042 36.23125,59.1091146 L35.2481771,64.6807292 C35.2432292,64.7078125 35.2380208,64.7346354 35.2330729,64.7617188 C35.2325521,64.7638021 35.2325521,64.7648438 35.2320313,64.7669271 L27.321875,109.628385 C26.7221354,113.027604 28.9921875,116.26901 32.3914063,116.86875 C35.7911458,117.467969 38.9885417,115.197917 39.5877604,111.798177 L45.0520833,80.559375 L45.0520833,80.6028646 C45.0520833,80.6028646 46.6796875,72.1354167 49.8572917,72.1354167 L50.1427083,72.1354167 C53.3854167,72.1354167 54.9479167,80.6028646 54.9479167,80.6028646 L54.9479167,80.58125 L60.4122396,111.808594 C61.0114583,115.208333 64.2307292,117.472396 67.6304688,116.873177 C71.0296875,116.273438 73.2888021,113.028906 72.6890625,109.629948 L64.7734375,64.7664063 C64.7729167,64.7643229 64.7700521,64.7611979 64.7695313,64.759375 C64.7645833,64.7322917 64.7580729,64.7028646 64.753125,64.6755208 L63.7695313,59.0989583 C63.0119792,54.3799479 62.4177083,48.7783854 63.6286458,45.6385417 C64.6755208,42.9265625 66.6588542,42.1875 68.1117187,41.9270833 L93.75,41.9270833 C97.2018229,41.9270833 100,39.1289063 100,35.6770833 C100,32.2252604 97.2018229,29.4270833 93.75,29.4270833 L93.75,29.4270833 Z" id="Shape" sketch:type="MSShapeGroup"></path>
            </g>
        </g>
    </g>
</svg>