<?xml version="1.0" encoding="UTF-8" standalone="no"?>
<svg width="26px" height="59px" viewBox="0 0 26 59" version="1.1" xmlns="http://www.w3.org/2000/svg" xmlns:xlink="http://www.w3.org/1999/xlink" xmlns:sketch="http://www.bohemiancoding.com/sketch/ns">
    <!-- Generator: Sketch 3.4.4 (17249) - http://www.bohemiancoding.com/sketch -->
    <title>boy_1</title>
    <desc>Created with Sketch.</desc>
    <defs></defs>
    <g id="Page-1" stroke="none" stroke-width="1" fill="none" fill-rule="evenodd" sketch:type="MSPage">
        <g id="Welcome" sketch:type="MSArtboardGroup" transform="translate(-130.000000, -150.000000)" fill="#F1C40F">
            <g id="People" sketch:type="MSLayerGroup" transform="translate(6.373178, 150.000000)">
                <g id="boy_1" transform="translate(124.000000, 0.000000)" sketch:type="MSShapeGroup">
                    <path d="M5.838268,18.7695044 C5.371049,18.6605365 5.074746,18.3813995 4.39183,18.4903674 C4.642606,18.0731546 4.922489,17.6865423 5.39344,17.4895044 C5.529276,17.8962683 6.014408,18.2321283 5.838268,18.7695044 M24.139655,54.9819359 C23.387329,54.9744723 22.732775,54.8692362 22.137183,54.7035452 C22.136437,54.5012828 21.978956,54.4535161 21.915516,54.3146939 C21.127364,54.1937843 20.736274,53.6758135 20.133965,53.3690613 C20.292938,52.4532828 19.512997,52.0368164 19.411492,51.1994053 C19.502548,51.1583557 19.580915,51.1740292 19.679434,51.1897027 C19.757801,51.2023907 19.84811,51.2150788 19.967527,51.1994053 C20.869871,50.0977843 19.979469,48.4602799 19.745113,47.3049213 C19.491352,46.0547756 19.509265,44.6956619 19.300285,43.4111837 C19.095784,42.1580525 19.012938,40.9034286 18.465113,39.9070438 C18.733055,38.5755452 17.869521,37.2880817 17.687411,35.9573295 C17.596355,35.2990438 17.782944,34.6631487 17.464997,34.0660642 C18.12179,33.3771779 17.606058,32.1374811 17.576204,31.1731895 C17.41723,30.9045015 17.053755,30.8433003 16.908215,30.5604315 C16.928367,29.4341808 17.41723,28.2340409 17.297067,27.1122683 C17.215714,26.335312 16.748495,25.7889796 16.796262,25.1105423 C16.932845,25.1321866 17.0239,25.1083033 17.114956,25.0844199 C17.200787,25.0612828 17.285871,25.0388922 17.40902,25.0545656 C17.469475,24.6157085 17.658303,24.3029855 17.631434,23.775312 C17.492612,23.6163382 17.119434,23.4193003 17.131376,23.2185307 C17.135107,23.1364315 17.489626,22.8998368 17.520973,22.8296793 C17.717265,22.3893295 17.820262,21.5549038 17.743387,21.1048514 C17.690396,20.7988455 17.444099,20.4764199 17.35379,20.1599651 C17.246314,19.7867872 17.147795,19.4009213 17.074653,19.0471487 C16.596239,16.7229971 16.053638,14.5033353 15.128157,12.7053645 C15.220705,12.5754986 15.438641,12.5702741 15.405801,12.3157668 C15.061731,11.6783791 14.579586,11.1760817 14.238501,10.5349621 C14.4333,9.48782512 15.710314,9.67739946 16.741778,9.70128284 C17.11197,9.03404086 17.464997,8.34813999 17.631434,7.47639655 C17.595609,7.21517206 17.300798,7.21367935 17.297067,6.92036156 C17.504553,6.86662395 17.687411,6.79049567 17.687411,6.53001754 C17.585906,6.11280471 17.021661,5.85381929 16.964192,5.25001754 C16.944787,5.05671142 17.051516,4.85892716 17.074653,4.63875223 C17.16123,3.81328284 16.726104,2.96840821 17.074653,2.52581929 C17.04032,2.17801754 16.851492,2.03471725 16.685801,1.85708459 C16.317848,1.46524786 15.362513,0.690530658 14.960973,0.577830949 C14.41688,0.424828034 13.823527,0.432291591 13.239131,0.439008792 C12.653988,0.445725993 12.077801,0.45318955 11.56804,0.300186635 C10.633603,0.583801795 9.9686,0.809947567 9.230454,1.24581929 C9.163282,1.58466477 8.96923,1.79812249 8.953556,2.19070558 C7.061545,3.91702628 8.502011,8.26902628 10.567177,8.81162687 C10.50523,9.13330617 10.78586,9.34228576 10.677638,9.53409917 C10.514932,9.88936448 10.160413,10.0558018 9.954419,10.3685248 C10.055924,11.1253295 9.66558,11.3880467 9.398384,11.7589855 C8.69681,12.7322333 8.970723,14.7317202 7.89597,15.3198484 C7.447411,15.1444549 7.049603,14.9168164 6.562233,14.9302508 C5.64123,14.9548805 4.411236,15.7751254 3.725335,16.6543324 C3.114069,17.4372595 2.395329,19.4889913 2.834186,20.3823791 C3.510384,20.2607231 3.749965,19.702449 4.114186,19.2688164 C4.242559,19.6330379 3.950734,20.0226356 3.947002,20.4376094 C3.735037,20.4107406 3.592483,20.4532828 3.502921,20.5488164 C3.437241,21.3959301 2.993906,22.1922916 3.223784,22.9953703 C2.864787,23.9350321 2.667749,25.0373995 2.166198,25.833761 C1.819889,26.0278135 1.491492,26.4092012 1.574338,26.937621 C1.875865,27.4279767 2.767014,28.9490496 2.670734,29.7528747 C2.663271,29.8095977 2.642373,29.8946823 2.611026,30.0006648 C3.080483,30.6902974 3.662641,31.3030554 4.169416,31.9516385 C4.784413,32.7397901 5.323282,33.6212362 6.116658,34.2332479 C6.297276,34.1907056 6.129346,33.7996152 6.395049,33.8436502 C7.194396,34.0765132 7.474279,34.8863091 7.951201,35.4557785 C8.554256,36.1752654 9.487947,36.3991721 10.23281,37.0149155 C9.939492,37.8030671 9.413311,39.1800933 9.954419,40.0182508 C10.129067,40.2876852 10.475376,40.3473936 10.510454,40.6302624 C9.567061,40.9661225 8.457976,41.1362916 8.452752,42.4095744 C7.054081,43.867207 6.079341,45.747277 4.55976,47.0825073 C4.661265,48.2415977 3.318571,47.9572362 3.167807,48.863312 C3.025999,49.0110904 3.202139,49.1573761 3.167807,49.3641167 C3.010326,49.4469621 2.931959,49.6089213 2.722979,49.6425073 C2.737906,50.1037551 2.180379,50.2910904 1.8893,50.6433703 C1.784064,50.7695044 1.757941,50.9911721 1.610163,51.1994053 C1.087714,51.9382974 -0.002712,52.8152654 0.053265,53.4802683 C0.087597,53.9004665 0.627212,54.1907989 1.054128,54.5363616 C1.560157,54.9476035 1.90572,55.4110904 2.611772,55.3155569 C3.339469,56.1223674 4.029102,56.6739242 4.884425,57.288175 C5.424787,57.5538776 7.251865,58.3905423 8.824437,58.4248747 L8.854291,58.425621 C8.922209,58.3315802 9.013265,58.2621691 9.009533,58.0979709 L9.003562,58.0427406 C8.8013,57.9658659 8.850559,57.7889796 8.850559,57.7889796 C9.025206,56.4559884 7.951201,55.9827989 7.951201,55.9827989 C7.784017,55.6148455 7.330233,55.5312537 7.173498,55.1491196 C7.230967,55.0028339 7.239924,54.808035 7.228728,54.5938309 C6.797335,54.3199184 6.760017,53.6526764 6.449533,53.2586006 C6.826443,52.8361633 6.784647,51.9987522 7.007061,51.4218193 C8.33632,51.4457027 7.583994,50.4724549 7.228728,49.975382 C7.468309,49.7052012 7.877311,49.8171546 8.335574,49.9298543 C8.661731,50.0097143 9.012518,50.0895744 9.3439,50.0313586 C10.667935,48.8819709 11.535201,47.1146006 12.512927,45.6920467 C12.851772,45.201691 13.171959,44.6613295 13.625743,44.3583091 C13.801883,45.4263441 13.971306,46.2831604 14.182524,47.2489447 C14.463154,48.5341691 15.128157,49.5230904 14.738559,51.0874519 C14.620635,51.2494111 14.435539,51.3412129 14.349708,51.5330263 C14.395236,51.6718484 14.421358,51.8308222 14.404938,52.0345773 C14.550478,52.2771429 14.985603,52.2323616 15.183387,52.4226823 C15.382664,53.7191021 15.013218,55.384968 14.850513,56.8179709 C14.850513,56.8179709 20.764635,58.0181108 24.541195,56.4753936 C24.633743,56.4373295 24.72032,56.4044898 24.80839,56.3716502 C24.932285,55.5626006 24.43969,55.3685482 24.139655,54.9819359"></path>
                </g>
            </g>
        </g>
    </g>
</svg>