<?xml version="1.0" encoding="UTF-8" standalone="no"?>
<svg width="37px" height="68px" viewBox="0 0 37 68" version="1.1" xmlns="http://www.w3.org/2000/svg" xmlns:xlink="http://www.w3.org/1999/xlink" xmlns:sketch="http://www.bohemiancoding.com/sketch/ns">
    <!-- Generator: Sketch 3.4.4 (17249) - http://www.bohemiancoding.com/sketch -->
    <title>boy_2</title>
    <desc>Created with Sketch.</desc>
    <defs></defs>
    <g id="Page-1" stroke="none" stroke-width="1" fill="none" fill-rule="evenodd" sketch:type="MSPage">
        <g id="Welcome" sketch:type="MSArtboardGroup" transform="translate(-181.000000, -153.000000)" fill="#2980B9">
            <g id="People" sketch:type="MSLayerGroup" transform="translate(6.373178, 150.000000)">
                <g id="boy_2" transform="translate(175.000000, 3.000000)" sketch:type="MSShapeGroup">
                    <path d="M0.466964,64.3988622 C0.494579,64.2406348 0.562497,64.0309089 0.64385,63.8480517 C0.632655,63.6107106 0.678182,63.3420226 0.984934,62.9434686 C1.03494,62.7367281 1.079722,62.532973 1.040165,62.2993637 C1.558882,61.0992237 2.184328,60.006559 2.726929,58.8303025 C2.823208,58.7892529 2.942625,58.770594 3.044876,58.7347689 C3.566579,57.9637835 3.924083,56.7255794 4.477133,55.998629 C4.680888,55.7291946 5.091383,55.6903841 5.272748,55.4261742 C5.472771,55.1313637 5.58771,54.5812995 5.749669,54.152145 C6.577378,51.9615911 7.386427,49.9292646 8.327582,47.8835036 C8.578357,47.3371713 8.903022,46.6303724 9.282171,46.1653928 C9.428456,45.9847748 9.658334,45.8220692 9.695652,45.6884716 C9.741926,45.5197952 9.668783,45.301113 9.695652,45.0518302 C9.747896,44.5607281 10.021063,44.0300692 10.204666,43.4919468 C10.377821,42.9851713 10.753238,42.6157252 10.873401,42.0917835 C11.01894,41.4558885 11.050287,40.8752237 11.191348,40.3415794 C11.399582,39.5526815 11.689914,38.6324249 12.145937,38.1144541 C12.074287,37.8674103 12.132503,37.4905007 12.113844,37.1919584 C11.986217,37.1927048 11.909343,37.1419526 11.860083,37.065078 C11.943675,36.1672121 12.097424,35.283527 12.145937,34.3595386 C12.171313,33.8729147 12.306404,33.3504657 12.241471,32.8324949 C12.219827,32.6682966 12.13101,32.52425 12.113844,32.3548272 C12.048911,31.7159468 12.107127,31.0561684 12.145937,30.5411829 C12.204899,29.7403433 12.715407,29.2574512 12.781832,28.5678185 C12.861692,27.7475736 13.023652,26.9191188 13.19606,26.2138127 C13.2595,25.9518418 13.373692,25.6174745 13.355034,25.4495444 C13.326672,25.1980226 13.040071,25.1136844 12.973646,24.8763433 C12.977378,24.7651363 13.063955,24.7345357 13.068433,24.6225823 C12.492993,23.4060226 13.364736,22.3432121 14.118555,21.7901625 C14.002124,20.6900342 14.620106,19.8630721 14.691757,18.8622092 C14.72385,18.4114103 14.614136,17.9628506 14.596223,17.6538593 C14.576818,17.3105357 14.69101,17.1858943 14.755197,16.9537777 C14.85894,16.5768681 14.879092,16.163387 14.977611,15.7760284 C15.231372,14.7878535 15.812036,13.8586407 16.313587,13.0391421 C16.867383,12.1367981 17.477156,11.3262558 18.319045,10.9396436 C18.403383,10.6522966 18.693716,10.5709439 18.828806,10.3343491 C18.861646,10.2888214 18.948223,10.2955386 19.034054,10.3022558 C19.085552,10.3059876 19.137797,10.3104657 19.178101,10.3030022 C20.025961,9.8350372 20.424515,8.9192587 20.864118,8.0430372 C20.664841,8.0206465 20.731267,7.8221159 20.673797,7.6937427 C20.580503,7.4855095 20.302112,7.4004249 20.35585,7.0571013 C20.378241,6.96231412 20.449891,6.91827914 20.41929,6.77050071 C20.046112,6.36224415 20.039395,5.72112462 20.101343,5.21136369 C20.13045,4.977008 20.217028,4.60905465 20.323757,4.38365523 C20.376748,4.27319459 20.501389,4.19034911 20.546171,4.06570771 C20.669319,3.7291013 20.599908,3.50220917 20.770077,3.27009255 C20.837249,3.17679809 20.94771,3.15291471 21.023092,3.0469322 C21.179827,2.83198176 21.288048,2.561801 21.470159,2.34759692 C21.703022,2.07144532 22.155313,1.93336952 22.456095,1.74304882 C22.673284,1.60422666 22.774789,1.34598759 22.93227,1.26538118 C23.295745,1.08103133 23.892083,0.98773686 24.333179,0.91534036 C24.696655,0.85563191 25.089238,0.89668147 25.383302,0.9787806 C25.461669,1.00117127 25.546754,0.99967856 25.628106,0.99818584 C25.699757,0.99743949 25.769168,0.99594678 25.82813,1.01087389 C25.952771,1.04296719 26.049797,1.15790596 26.178917,1.20194095 C26.469996,1.30195261 26.711815,1.30120625 26.911092,1.4251013 C27.062602,1.51914211 27.143208,1.7079701 27.323827,1.83858235 C27.399955,1.89306631 27.505191,1.89381267 27.57908,1.96546281 C27.648491,2.03338118 27.678345,2.1863841 27.770147,2.28415669 C28.063465,2.59687972 28.444106,2.66330538 28.438136,3.11111879 C29.016561,3.6044599 29.714404,5.59499051 28.819523,6.1980459 C28.712048,6.18834328 28.637413,6.14729372 28.501576,6.16595261 C28.433657,6.55928205 28.279908,6.86827331 28.184375,7.1518885 C28.139593,7.2839934 28.137354,7.4310255 28.088095,7.5661159 C27.988829,7.8355503 27.708946,7.9684016 27.57908,8.2027573 C27.336515,8.6416144 27.830602,9.1289847 27.706707,9.7305474 C27.594007,9.9350488 27.364876,10.0246115 27.006625,9.9843083 C26.853622,10.0977544 26.949902,10.4589905 26.847652,10.6209497 C26.771523,10.6828972 26.632701,10.6821509 26.561051,10.7478302 C26.658824,10.9127748 26.505821,11.064285 26.433424,11.1620576 C26.343862,11.2202733 26.135628,11.1613112 26.052036,11.2262442 C25.6908,11.5367281 25.351208,11.9554337 24.778754,11.8934861 C24.195103,11.8307923 24.001797,11.1807165 23.601751,10.9075503 C23.226334,11.2643083 22.816585,11.5859876 22.678509,12.1800867 C23.206929,12.7906057 23.712958,13.6757835 23.792818,14.7893462 C23.833121,15.351352 23.689074,15.9753054 23.728631,16.6037369 C23.762217,17.1291713 23.832375,17.6456494 23.856258,18.1621275 C23.88462,18.7741392 23.782369,19.2950955 23.728631,19.8488914 C23.695045,20.1974395 23.687582,20.6863025 23.728631,20.9624541 C23.804013,21.4654978 24.24287,21.795387 24.207045,22.2991771 C23.977914,22.7365415 24.164503,23.186594 24.174206,23.7314337 C24.469016,23.8501042 24.780993,24.1441684 24.587687,24.5591421 C24.780246,24.6524366 24.993704,24.6703491 25.129541,24.7815561 C25.196713,24.8375328 25.157902,24.9106756 25.224328,25.0039701 C25.279558,25.0823374 25.38778,25.0845765 25.415395,25.1636902 C25.550485,25.545078 25.249704,25.8182442 25.256421,26.0861858 C25.257914,26.1645532 25.369867,26.4653345 25.415395,26.5317602 C25.58855,26.7840284 25.912468,26.8392587 25.669902,27.2631888 C26.376701,28.7521684 27.193214,30.13218 28.215722,31.3047048 C28.263488,31.3061975 28.30006,31.2994803 28.332153,31.2927631 C28.388876,31.2800751 28.432165,31.267387 28.501576,31.3047048 C28.835197,31.4815911 28.968048,31.857008 29.011337,32.3227339 C29.63529,33.2765765 30.630929,33.993078 31.397436,34.805113 C31.522077,34.9364716 31.532526,35.273078 31.620596,35.4738477 C31.777331,35.8298593 32.084829,36.1351188 32.065424,36.6515969 C32.158719,36.7710138 32.243803,36.8978943 32.257238,37.0964249 C32.252013,37.2083783 32.062439,37.1352354 32.065424,37.2546523 C32.132596,37.7882966 32.040794,38.6286931 31.429529,38.6869089 C31.304888,38.6421275 31.329517,38.4473287 31.270555,38.3368681 C31.105611,38.5212179 30.819757,38.781696 30.474194,38.5921217 C30.372689,38.8317019 29.865168,38.903352 29.742765,38.6234686 C29.936818,38.3226873 29.859197,37.6196202 29.647978,37.478559 C29.716643,37.9315969 29.877856,38.6324249 29.233751,38.5921217 C29.006112,38.4421042 29.067313,38.2368564 29.011337,37.9554803 C28.850124,37.1464307 28.158252,36.5836786 27.897774,35.9186756 C27.618637,35.2096377 27.694765,34.4349205 27.132759,33.9139643 C26.75585,33.7878302 26.197576,33.3818127 26.305797,32.8638418 C25.348969,31.5315969 24.302579,30.2851829 23.219617,29.0768331 C23.304701,29.8455794 22.928538,30.5949205 22.901669,31.2733579 C22.880771,31.7972995 23.089751,32.3884132 22.870322,32.9280284 C23.221856,34.0386057 23.469646,35.2544191 23.665191,36.5232237 C23.661459,36.6463724 23.536071,36.6486115 23.506217,36.7463841 C23.647278,37.2427106 23.779383,38.0525065 23.47487,38.4652412 C23.72266,38.7891596 23.886859,39.1974162 24.078672,39.5788039 C24.041354,40.3288914 24.849657,41.1431654 24.270485,41.8701159 C24.705611,42.2895678 24.99445,42.9590488 25.160888,43.6509205 C25.295232,44.21218 25.440025,44.9204716 25.447488,45.5294978 C25.451966,45.9638768 25.557949,46.1400167 25.637809,46.5154337 C25.806485,47.3035853 25.843803,48.1350255 26.083383,48.8067456 C26.461786,49.2060459 26.664794,49.7008797 27.006625,50.110629 C27.3395,50.5121684 27.767162,50.8868389 27.706707,51.6384191 C28.200794,52.2429672 28.57248,53.0661975 28.374695,54.0887048 C28.338124,54.2775328 28.183628,54.4999468 28.184375,54.7253462 C28.185121,55.2507806 28.712794,55.933696 28.88371,56.443457 C28.971034,56.7046815 29.075523,57.066664 29.138964,57.3980459 C29.245692,57.9600517 29.438999,58.5138477 29.10687,58.7982092 C29.537517,59.215422 30.238345,59.3646931 30.25178,60.1983724 C30.463745,60.1476202 30.593611,60.2565882 30.713028,60.3857077 C31.190695,60.4088447 32.213203,60.4931829 32.765506,60.8029205 C33.181972,60.9671188 33.35662,60.7626173 33.720841,60.6760401 C33.923103,60.6282733 34.168655,60.6573812 34.356736,60.6125998 C34.714987,60.5275153 34.924713,60.2707689 35.184445,60.293906 C35.287442,60.3028622 35.397156,60.3655561 35.489704,60.4484016 L35.51508,60.4431771 C35.51508,60.4431771 35.80392,60.7208214 35.978567,61.0014512 C36.218894,61.1619176 36.290544,61.4813579 36.13978,61.7261625 C35.879302,62.1448681 35.201611,62.5284949 34.67543,62.8718185 C33.353634,63.733113 31.46013,64.1562966 29.838299,64.6854628 C29.652456,64.8302558 29.323313,64.9937077 29.074777,64.971317 C28.919535,65.1452179 28.671745,65.2265707 28.374695,65.2579176 C27.558929,65.8012646 24.819803,66.1692179 25.240001,64.4652879 L25.23627,64.3518418 C24.984748,63.7234103 24.689937,63.1397602 24.428713,62.5217777 C24.324969,62.5083433 24.262276,62.455352 24.207045,62.3941509 C24.168235,62.2515969 24.092853,62.1471071 24.110765,61.9485765 C24.010754,61.7828856 23.875663,61.6530197 23.856258,61.4074686 C22.965856,60.4834803 22.506101,59.1303374 21.755267,58.0667806 C20.064771,58.7116319 18.526532,60.0729847 16.282241,59.7527981 C16.074754,60.0789555 15.626194,60.2976377 15.455278,60.6439468 C15.378404,60.7991888 15.409751,60.9730896 15.296305,61.0581742 C14.921634,61.3358185 14.479792,60.7290313 14.246182,60.5170663 C13.999885,60.2931596 13.743138,60.1110488 13.641634,59.8804249 C13.832701,59.7229439 13.794637,59.5684482 13.896888,59.3072237 C13.974509,59.1057077 14.163337,58.9109089 14.213343,58.7347689 C14.321564,58.3548739 14.29171,58.1145474 14.629063,58.0346873 C14.385004,57.5368681 14.087208,56.9494861 14.182742,56.221043 C14.205133,56.0456494 14.304398,55.8814512 14.341716,55.7120284 C14.596223,54.5417427 14.437249,53.0661975 14.182742,52.0839934 C12.743022,54.1685649 11.466007,56.5195853 9.950159,58.5123549 C9.420993,59.2072121 8.69852,59.5744191 8.008888,60.1349322 C8.068596,60.8783025 8.305191,61.8537893 8.108153,62.47625 C8.331313,62.64418 8.69255,62.9434686 9.029902,63.3308272 C9.164993,63.466664 9.294112,63.6077252 9.409051,63.7629672 C9.641914,63.8689497 9.906124,63.9443316 10.109133,64.0809147 C10.483803,63.9988156 10.687558,64.1846581 11.031628,64.3033287 C11.298077,64.3951305 11.601844,64.3876669 11.827243,64.4630488 C12.001891,64.5205182 12.146684,64.6526232 12.258637,64.8287631 L12.311628,64.8407048 C12.311628,64.8407048 12.825867,65.4930197 12.52434,65.9505357 C12.502695,66.1498127 12.327302,66.3483433 12.178031,66.4356669 C11.224934,66.9924482 8.986614,67.1185823 7.499127,66.9446815 C6.387057,66.8140692 5.11452,66.5349322 4.604013,66.3408797 C4.311442,66.4058127 3.944235,66.2819176 3.744958,66.1490663 C3.703908,66.1931013 3.606882,66.1804132 3.521797,66.1804132 C2.720211,65.814699 1.151372,65.7079701 0.59459,64.9399701 C0.502042,64.8115969 0.434124,64.5929147 0.466964,64.3988622"></path>
                </g>
            </g>
        </g>
    </g>
</svg>