<?xml version="1.0" encoding="UTF-8" standalone="no"?>
<svg width="117px" height="199px" viewBox="0 0 117 199" version="1.1" xmlns="http://www.w3.org/2000/svg" xmlns:xlink="http://www.w3.org/1999/xlink" xmlns:sketch="http://www.bohemiancoding.com/sketch/ns">
    <!-- Generator: Sketch 3.4.4 (17249) - http://www.bohemiancoding.com/sketch -->
    <title>boy_4</title>
    <desc>Created with Sketch.</desc>
    <defs></defs>
    <g id="Page-1" stroke="none" stroke-width="1" fill="none" fill-rule="evenodd" sketch:type="MSPage">
        <g id="Welcome" sketch:type="MSArtboardGroup" transform="translate(-312.000000, -165.000000)" fill="#3498DB">
            <g id="People" sketch:type="MSLayerGroup" transform="translate(6.373178, 150.000000)">
                <g id="boy_4" transform="translate(305.000000, 15.000000)" sketch:type="MSShapeGroup">
                    <path d="M81.249008,4.7537453 C85.173814,8.2358434 88.856678,15.7447979 85.141015,20.5227988 L84.990997,20.2205248 C84.568631,21.941924 83.699259,22.5151673 82.653478,22.4978882 C82.632109,22.5807672 82.61019,22.664027 82.587732,22.7476851 C82.089166,24.6090962 81.814507,26.5906706 80.956945,28.3363965 C80.026985,30.2351254 78.94477,31.3098776 80.653178,33.3519067 C81.553283,34.428898 82.875825,34.9595569 83.816233,36.0708805 C83.852185,36.1135085 83.887577,36.1562261 83.922462,36.1990121 C86.109213,36.047217 88.335741,36.3790033 90.732711,37.3322216 C93.09642,38.2718834 94.955592,40.1504606 96.060945,42.4462507 C97.187195,44.7868222 96.749085,46.6721166 99.036665,48.3805248 C101.207067,50.0001166 103.664816,51.13607 105.620268,52.9930029 C107.554822,54.8297843 108.749738,57.5054694 109.116198,60.142344 C109.508035,62.9643149 110.860431,65.1794985 111.689633,67.8447347 C112.531522,70.5487813 112.14491,73.1214694 113.274146,75.7158017 C114.415324,78.3429738 114.313819,80.3648513 112.950974,82.8949971 C112.338216,84.0316968 111.16793,84.6272886 110.590251,85.616956 C110.045411,86.552886 110.548455,87.798554 110.771615,88.813598 C110.967907,89.700268 111.468711,90.963848 111.12912,91.885598 C110.692501,93.06484 109.342344,92.926017 109.053504,94.082869 C108.714659,95.439743 109.315475,96.471207 108.459405,97.875848 C107.692152,99.136443 106.872653,99.794729 105.430694,99.783534 C105.047067,102.712233 104.76793,104.666192 103.060268,107.050052 C102.475125,107.865819 101.813854,108.600233 100.861504,109.147312 C99.616583,109.862321 98.947848,109.763055 99.5927,111.332641 C100.398017,113.291079 100.424886,115.432373 101.416793,117.449026 C101.728023,118.08119 103.302087,119.911254 102.353469,120.159044 C101.347382,120.421761 100.621178,118.397644 100.348758,117.786379 C99.957668,116.909411 99.477761,115.998857 99.134437,115.073376 C98.770216,114.093411 98.986659,112.860431 98.292548,112.062577 C97.956686,111.676196 97.630236,111.578911 97.309644,111.5935 L97.309644,111.5935 C97.075322,112.522098 96.644465,113.3986 96.555032,114.457633 C96.422927,116.021248 96.956571,117.237061 97.52007,118.651405 C98.48423,121.071551 98.264657,122.986644 98.067553,125.355247 C98.675016,126.203719 99.437698,126.964178 99.908408,127.898006 C100.568187,129.209353 100.385329,130.739382 100.833889,132.079837 C101.490682,134.041259 103.456583,135.219755 104.213388,137.109528 C103.227452,137.981271 102.140758,138.574624 100.923452,139.150064 C99.063534,140.032257 97.681283,141.259265 95.911673,142.298939 C95.767967,142.383279 95.623208,142.465854 95.47746,142.546773 C96.654314,144.94512 97.245948,147.862171 98.485108,150.122239 C100.221131,153.287534 102.549761,156.036362 104.342507,159.172548 C107.854111,165.313563 108.816163,172.731592 112.193423,179.071137 C113.723452,181.946099 114.675802,185.046461 116.196875,188.005761 C117.788851,191.098659 116.196875,195.442449 116.196875,195.442449 L105.880746,198.118134 L95.624327,198.539079 C95.624327,198.539079 85.741085,198.812991 88.333178,195.442449 C89.163316,194.362492 90.906312,193.783743 92.744197,193.344634 L92.744197,193.344634 C92.719647,193.032965 92.776691,192.765411 92.948641,192.566741 C93.507951,191.920059 97.162049,191.47501 98.822241,191.504934 C100.809643,190.296892 103.325949,188.008695 103.622274,186.061504 C104.143977,182.635732 100.661481,178.781551 99.037411,175.958834 C96.239324,171.094834 92.951627,166.413691 90.146822,161.587755 C88.778752,159.233749 87.663697,156.543137 85.644805,154.593656 C84.352863,153.345003 83.122869,152.147102 81.924968,150.84695 C81.440721,150.321577 80.622475,149.763277 79.823426,149.161117 L79.823426,149.161117 C77.391384,150.508767 74.799377,151.659486 73.495627,148.498915 C72.844391,146.920745 72.096861,144.92155 71.48397,142.827857 C71.410771,143.056285 71.339994,143.283899 71.271487,143.510274 C70.740828,145.258985 70.577376,146.751697 70.310927,148.681026 C69.973574,151.128327 69.086157,151.353726 66.891125,149.923708 C64.785656,148.549668 63.266822,147.32042 60.882216,146.252385 C59.48964,145.631614 58.035609,145.083939 56.61078,144.495226 C51.499118,155.63998 37.552665,174.811569 35.965878,177.451545 C34.347778,180.147382 32.587125,183.282822 31.768373,186.25481 C31.0993,188.682853 31.014358,191.024726 29.349575,192.026246 L29.349575,192.026246 C29.525273,200.590699 2.331734,182.524407 0.952093,179.170402 C0.479325,177.01536 2.875601,176.245509 4.191619,176.80216 C5.661112,177.088435 7.420097,177.825824 8.22528,178.159482 C8.85259,177.737785 9.645965,177.53073 10.624863,177.60828 C12.803475,177.782181 15.273166,178.349411 17.100991,179.550297 C17.050667,179.635004 16.998407,179.720438 16.944481,179.806585 L16.944481,179.806585 C17.618518,179.809689 18.24189,179.770902 18.778799,179.68091 C29.380035,179.436105 34.864257,145.176886 40.461924,137.075942 C40.603966,136.831004 40.742903,136.582197 40.881466,136.331771 L40.881466,136.331771 C39.393493,135.899411 37.985556,135.316709 36.469668,134.916735 C34.038041,134.277854 34.0567,133.891242 35.094134,131.714122 C36.789854,128.156991 38.652012,124.845411 40.851522,121.498752 C44.078017,116.586985 44.766904,110.320583 48.285224,105.49614 C49.88765,103.295137 51.836385,101.385959 53.521656,99.292431 C54.077017,98.600797 54.865877,97.320965 55.751547,96.174278 L55.751547,96.174278 C55.801342,95.499591 55.868198,95.062087 55.868198,95.062087 C56.911603,92.234146 57.083265,89.962985 57.083265,89.962985 C56.919285,87.656593 56.962574,84.8321492 57.095723,82.0700274 L57.095723,82.0700274 C55.442692,83.325153 53.922015,84.4194396 53.099219,84.7676035 C50.839254,85.724431 48.618099,86.671557 46.269318,87.442542 C44.193703,88.123219 41.988222,88.912863 40.414157,90.522752 C38.821434,92.149061 37.420525,93.6873 35.712863,95.155382 C35.070997,95.706939 33.628292,96.386122 33.44021,97.26309 C33.154356,98.59235 34.300012,98.462484 35.19937,98.737889 C35.70316,100.261948 33.290939,99.443195 32.622204,99.256606 C32.037061,99.093901 31.781061,98.996128 31.291452,98.757294 C30.739149,98.490099 30.691382,98.009446 29.987569,98.054974 C28.165714,96.027125 28.499335,93.123055 29.998017,90.926531 C32.796851,86.823067 37.845948,85.549784 41.70386,82.8778309 C44.178776,81.1634519 46.409633,79.2139708 48.710647,77.2092595 C50.033936,76.0568863 51.411708,74.9813878 52.845458,73.9514169 C53.471947,73.5011419 56.115392,71.1353637 58.395535,69.3162742 C58.538173,67.9111183 58.46947,66.0652329 58.302064,65.2317434 C56.670531,65.2115918 54.358321,66.8140175 52.762612,67.3857259 C48.653178,68.8538076 42.345726,69.8046647 43.521236,63.2673353 C44.379545,58.4921516 46.351417,54.130449 48.146402,49.6314169 C50.044385,44.8778776 51.331102,40.5087114 51.713236,35.3409446 C51.914006,32.6189854 53.011895,31.0680583 55.070344,29.4305539 C55.994332,28.6931545 56.445131,28.1415977 56.997434,27.1579009 C57.146792,26.8906429 57.28402,26.5514608 57.44409,26.2306032 L57.320194,24.9770865 C56.873575,24.6485665 56.474558,24.449967 56.962356,23.5179242 C57.3527,22.7745539 57.961726,22.1341808 58.308035,21.2661691 C58.820781,19.9899009 58.275942,19.7144956 58.119953,18.6613878 C57.948292,17.5045364 58.637178,16.6402566 58.578216,15.5632653 C57.925901,15.531172 57.202682,15.6744723 56.524991,15.7901574 C56.448863,14.7669038 57.36091,14.0795102 58.022181,13.4451079 C56.915335,13.4048047 55.804012,13.8914286 54.732991,13.8444082 C55.32112,12.1777959 57.18477,11.5911603 58.645388,10.7313586 C57.711697,10.509691 56.71979,10.8194286 55.784606,10.7365831 C57.038484,9.6782507 58.336397,9.5207697 59.968676,9.6954169 C58.733458,9.4259825 57.782601,8.6482799 56.873539,7.7854927 C57.789165,8.4854708 58.810575,8.7538103 59.877821,8.7557952 L59.877821,8.7557952 C57.874437,7.4444336 55.297919,5.7423036 54.200093,4.2738892 C53.617936,3.4969329 52.541691,2.6080233 53.299988,0.9466356 C53.756758,-0.0490029 56.324222,1.1063557 57.832606,1.7138892 C59.998531,2.586379 61.154636,3.3849796 63.539242,4.5761633 C66.644411,-0.0426429 74.519508,0.7384378 79.166464,3.2934478 C79.416501,3.0535564 79.785638,2.902354 80.196408,2.9035802 C80.948735,2.9058192 81.557015,3.4140875 81.555522,4.0402799 C81.554553,4.3108423 81.439754,4.5591973 81.249008,4.7537453 L81.249008,4.7537453 Z M95.554365,111.693089 C95.498651,112.219692 95.391579,112.767796 95.257866,113.39109 C94.877971,115.1607 95.145913,116.100362 95.857936,117.733388 C96.496816,119.197738 96.907312,120.665819 97.178985,122.255557 C97.235378,122.583022 97.212972,123.126556 97.198122,123.715535 C96.060038,120.997825 95.049183,117.415276 94.630181,114.594962 C94.094,110.981092 94.241777,107.269606 93.31679,103.712389 L93.31679,103.712389 C93.940316,102.445989 93.649738,100.132957 93.536023,98.975977 C93.529353,98.908442 93.522278,98.840945 93.514835,98.773482 C93.78009,99.785299 93.98327,100.827428 93.887557,102.076338 C93.703207,104.492292 94.058472,106.548501 94.658542,108.777866 C94.806321,109.318227 95.070531,111.35951 95.484012,111.647603 C95.507468,111.664058 95.530919,111.679194 95.554365,111.693089 L95.554365,111.693089 L95.554365,111.693089 Z M95.829504,52.6482741 C95.511202,50.4200826 94.8126,48.2074222 93.605434,45.9996501 C91.728045,42.5627988 90.38456,41.6773401 87.411005,39.8313918 C88.595066,40.0976692 89.719589,40.5863431 90.708828,41.3177609 C92.670251,42.7664373 93.068058,45.147312 94.738402,46.6377843 L94.611522,46.4900058 C94.789155,47.5811778 95.357131,48.3506706 95.528047,49.4351254 C95.681796,50.4195685 95.751207,51.5517901 95.821364,52.5287697 C95.824244,52.5685545 95.826956,52.6083899 95.829504,52.6482741 L95.829504,52.6482741 L95.829504,52.6482741 Z M63.411629,35.120584 L63.399215,34.9950592 C63.523896,35.0885387 63.635791,35.222903 63.731802,35.4081166 C61.918904,37.6031487 58.875265,38.8398601 57.325085,41.296863 C56.456327,42.6709038 55.619662,44.2651195 55.31888,45.8862041 C54.997948,47.6020758 54.061271,49.9321983 54.384443,51.6152303 C58.357294,51.0315802 60.837434,45.894414 62.520466,43.0060175 C63.43102,41.4453878 65.328257,40.4437784 66.07909,38.9062857 C66.347032,38.3554752 66.809026,36.7620058 66.606017,36.0775977 C66.287324,35.0095627 65.186449,35.2775044 64.043032,35.1931662 C63.823857,35.1768403 63.61356,35.1526901 63.411629,35.120584 L63.411629,35.120584 L63.411629,35.120584 Z"></path>
                </g>
            </g>
        </g>
    </g>
</svg>