<?xml version="1.0" encoding="UTF-8" standalone="no"?>
<svg width="67px" height="154px" viewBox="0 0 67 154" version="1.1" xmlns="http://www.w3.org/2000/svg" xmlns:xlink="http://www.w3.org/1999/xlink" xmlns:sketch="http://www.bohemiancoding.com/sketch/ns">
    <!-- Generator: Sketch 3.4.4 (17249) - http://www.bohemiancoding.com/sketch -->
    <title>businessguy</title>
    <desc>Created with Sketch.</desc>
    <defs></defs>
    <g id="Page-1" stroke="none" stroke-width="1" fill="none" fill-rule="evenodd" sketch:type="MSPage">
        <g id="Welcome" sketch:type="MSArtboardGroup" transform="translate(-451.000000, -159.000000)" fill="#9B59B6">
            <g id="People" sketch:type="MSLayerGroup" transform="translate(6.373178, 150.000000)">
                <g id="businessguy" transform="translate(445.000000, 9.000000)" sketch:type="MSShapeGroup">
                    <path d="M32.7859651,6.1260654 C32.7438321,5.0500129 34.0532791,4.4856536 34.8554671,4.0221915 C36.6078641,3.0121103 38.3153551,1.8013434 40.2324031,1.1189011 C42.0873601,0.45918835 43.1312581,0.639362 44.9202441,1.2691382 C46.3416761,1.768635 47.1072751,2.2847632 48.1899801,3.3635875 C49.2931971,4.4618152 49.6912421,5.6797891 49.7566591,7.2176405 C49.8353811,9.0803588 49.9190931,10.9425227 49.8913741,12.8102305 C49.8686441,14.3414293 48.9866251,15.4235799 48.8092231,16.8799374 C48.6939121,17.8240473 48.7826131,18.8651738 48.8907171,19.7959786 C49.1662441,19.8026312 49.3364391,19.6146962 49.3979751,19.3242008 C50.9164231,19.7072777 51.3599281,22.0689385 52.4359801,23.0707039 C53.0430271,23.6356176 54.1201881,24.0170314 54.8791351,24.3396808 C56.2739561,24.9339766 57.5983711,25.1740234 59.0580551,25.502771 C61.5993351,26.075446 63.0917271,27.6498865 64.3745631,29.8529944 C64.9150841,30.7810273 64.6706021,31.9513244 64.6872341,33.0484433 C64.7060831,34.2326 64.8114151,35.2277129 65.3225541,36.2937865 C66.1496891,38.0201273 65.8469981,40.01756 65.8469981,41.9268463 C65.8469981,42.9396994 65.9584281,43.9569875 65.4761171,44.8872379 C65.0636581,45.6816651 64.6151641,46.3009081 64.5508561,47.2206253 C64.5081691,47.8348788 64.6794721,48.5151036 64.5569541,49.1121714 C64.4061631,49.8483886 63.9111011,50.5164171 63.6095181,51.1966419 C63.1771011,52.1712427 62.9304021,53.2339901 62.4159371,54.1891876 C62.1514971,54.6798143 61.5577561,55.158799 61.4019751,55.7253758 C60.9013701,55.7603018 60.5110861,56.0180887 60.0404171,56.1505856 C59.3940091,56.331868 59.1861161,56.1422699 58.9571571,56.7476534 C58.4953581,57.9695079 59.2288041,59.4291916 59.1229171,60.6848634 C58.9854311,62.3213945 59.7427141,63.6430375 60.2083941,65.1698012 C60.5155211,66.1771105 60.6851611,67.1927355 60.9174471,68.2188937 C61.4075191,70.3820863 61.7756281,72.5685628 62.4525261,74.6879593 C62.9830681,76.351655 63.0900641,77.928313 63.3295561,79.646338 C63.4764671,80.7002153 63.5823531,81.7707239 63.7292641,82.83458 C63.7664081,83.1034545 64.0236401,83.8357911 63.9310591,84.1229602 C63.8035511,84.520451 63.4470851,84.6496216 62.9880581,84.8286865 C61.3919961,85.4507014 59.6717541,85.7528387 57.9914271,86.0017556 C57.0600671,86.1397963 55.2311661,85.8104943 54.4894051,86.5067962 C54.0248341,86.9430936 54.2587831,88.0296793 54.2621091,88.6638905 C54.2659901,89.5581062 54.2726421,90.4523218 54.2759691,91.347092 C54.2892741,94.976066 54.2576741,98.612802 53.8840221,102.2257 C53.6118211,104.860115 53.0336021,107.419136 53.0269501,110.075172 C53.0164161,114.17537 53.3013681,118.275014 53.3013681,122.368559 L53.3013681,127.542037 C53.3013681,131.488117 53.1572291,135.422556 53.0252861,139.357548 C52.9925781,140.32217 53.0873771,141.41818 52.4143591,141.998616 C52.2425011,142.146636 51.9608761,142.082882 51.7995511,142.262502 C51.5866691,142.500885 51.5040661,143.193861 51.4397581,143.506531 C51.3693521,143.849693 51.3360891,144.228889 51.3222301,144.579812 C51.3078161,144.93905 51.5107191,145.745674 51.3311001,146.050029 C51.1825261,146.301163 50.8138631,146.405387 50.5915561,146.594985 C49.9218651,147.164334 49.9318431,147.431545 49.0121261,147.269111 C48.6418001,147.709844 48.7343821,147.584554 48.4483211,148.159446 L48.2975301,148.49152 C47.7259641,149.31034 47.9615751,148.841334 47.6566661,149.491068 C47.1017311,150.675779 46.4447901,151.725222 45.3327031,152.429839 C44.1807011,153.159404 42.8995271,153.416082 41.5357521,153.441029 C40.5284421,153.458215 38.8048731,153.765896 38.0226431,153.149979 C35.8882781,151.469652 37.4521851,148.585211 38.7671761,146.958658 C39.4790001,146.078302 40.3843031,145.204599 41.2447021,144.473371 C41.9415581,143.881292 43.5065741,142.79637 43.2709621,141.727524 C42.0208341,141.623855 40.1680951,141.929319 40.0206301,140.184684 C39.9358101,139.182364 40.4042611,138.030916 40.4136851,136.996996 C40.4253271,135.756293 40.4774391,134.490642 40.4037071,133.25271 C39.2711071,133.223328 37.8435781,133.830929 36.8074411,134.239508 C35.2158141,134.865958 33.7461521,135.648743 32.0164851,135.782348 C30.8035001,135.875484 29.2717471,135.96862 28.0870361,135.644862 C27.5043821,135.485755 26.9095321,135.185835 26.3651301,134.926939 C25.7575291,134.63977 25.4127051,134.536101 25.2774361,133.943468 C24.6665091,131.263593 27.4733371,131.907783 29.1231731,131.413276 C30.6782101,130.947596 32.0691511,130.544562 33.5382591,129.797811 C34.2850101,129.417506 36.6172881,128.609774 36.3877751,127.403997 C35.8483621,127.380713 34.6703041,127.64737 34.3254791,127.25764 C33.8093511,126.672769 34.2722591,125.011845 34.3393391,124.301684 C34.4929021,122.671805 34.4341381,121.051905 34.3487631,119.419255 C34.2439851,117.407408 34.1414251,115.413302 34.1414251,113.376508 C34.1414251,110.030822 33.8520381,106.884159 33.3353561,103.594465 C32.7854101,100.101314 32.6712081,96.508928 32.1201541,92.985841 C31.6212111,89.7970442 31.8224521,86.5833007 31.7514911,83.3556977 C31.0856801,83.2026886 30.6482741,84.2371626 30.1022091,84.5769978 C29.5700041,84.9079629 28.4945061,85.5144551 27.8303581,85.3924914 C27.3984961,82.732574 27.5071541,80.0216536 27.5653641,77.3384522 C27.5914201,76.1348922 27.5149151,74.9978579 27.6950891,73.8137013 C27.8952201,72.4981565 28.0011071,71.1693065 28.0044331,69.838239 C28.0099771,67.8469045 28.6181331,65.9936106 28.8964321,64.0366476 C29.1303801,62.3956814 29.7435251,60.8400899 29.9868981,59.186373 C30.1094161,58.3520304 30.0523151,57.4838706 30.0512061,56.6417667 C29.0915731,56.3873061 28.4152291,58.3215395 27.9767141,58.9407825 C27.4306501,59.7130344 26.6911061,60.4326203 25.9720751,61.0562983 C24.6897931,62.1694942 23.0815351,62.8946239 21.6357111,63.791057 C20.8967221,63.3037566 20.5613211,62.4012253 19.8478341,61.9006197 C19.1493141,61.4094386 18.3942481,60.9426503 17.6796521,60.4237502 C16.8674841,59.8344437 16.0409031,60.3733015 15.2176481,60.032912 C14.8212661,59.8688153 14.8417781,59.6254423 14.7730351,59.1641978 C14.6649311,58.4351875 14.6738011,58.0881453 14.0856031,57.586431 C13.3588111,56.9677424 12.6336811,57.2105611 11.7771631,57.0292786 C10.7504511,56.8125159 11.0974931,56.1056808 10.4826851,55.5008517 C9.90114013,54.9303943 9.38556613,55.2785452 9.06347113,54.3216845 C8.72419013,53.3149296 8.94982313,52.9446035 7.79671113,52.4850221 C6.96791313,52.1540569 5.91569913,52.0431808 5.16007813,51.5813819 C5.18003613,50.7004714 5.01205813,49.8389642 5.05141913,48.9497379 C5.08856313,48.1165041 5.23270213,47.1674048 5.12071713,46.3413779 C4.97103413,45.2448133 4.58851213,44.1404875 4.27085213,43.0855015 C3.68210013,41.1290928 3.29181613,39.1011691 2.91317413,37.0998557 C2.56225113,35.2471162 1.97627113,33.4287483 1.39583513,31.6358819 C0.883587128,30.052017 0.773820128,28.4104965 0.387971128,26.8066738 C1.25335913,26.3892253 2.28450713,26.5073084 3.23083413,26.5466694 C4.54083513,26.601553 5.84085713,26.7556708 7.16250013,26.7523445 C9.69213813,26.7462463 12.2217761,26.7756285 14.7458701,26.8227508 C16.0159561,26.8460348 15.7287871,26.9757599 15.9217111,28.1382957 C16.0231631,28.746451 16.2216311,29.3418556 16.3358341,29.9533373 C16.5902941,31.3187763 16.5975011,32.7357728 16.8974211,34.095668 C17.6602481,37.5500126 18.0233681,40.9394947 18.1813661,44.4886384 C18.2368041,45.7437557 18.3615401,47.3331645 18.6803091,48.5472577 C18.7246591,48.7146806 18.6808631,49.0844524 18.8238931,49.1892303 C19.1470971,49.424842 20.2824681,49.1809146 20.7487021,49.1360097 C21.0846571,49.1038557 21.7432611,49.158185 22.0581491,49.0356669 C22.5382421,48.8477319 22.5482211,48.4142064 22.8753051,48.0156068 C23.1491691,47.6802067 23.4274681,47.4429318 23.6719501,47.0426691 C23.8654291,46.7261179 24.0943881,46.2388175 24.4070591,46.0237179 C25.2863061,45.4199976 25.8035431,46.002097 26.1799671,44.77359 C26.5153671,43.6809061 26.2891801,42.4834443 26.8191681,41.4223601 C27.4251061,40.2088213 28.0859271,39.7248472 28.1446921,38.2845667 C28.1995751,36.9540536 28.1413651,35.6063548 28.1413651,34.2747329 C28.1413651,33.7114824 27.9545391,32.8433226 28.1336041,32.3471521 C28.2927111,31.9064196 28.7506291,31.7523018 29.0699531,31.3326358 C29.5761021,30.6684881 29.3160981,29.7742724 29.7734611,29.1550294 C30.3389291,28.3888756 32.2620751,27.738033 33.1878911,27.3560648 C34.8848491,26.6547736 36.7520031,26.2722511 38.3597061,25.3869055 C39.1247511,24.9655763 39.5061651,24.5209632 39.4512811,23.6223125 C38.3242261,23.510882 36.5984391,23.7559182 36.3206951,22.3012239 C36.1859801,21.5971607 36.3827851,21.4574568 36.1421841,20.4850735 C35.9093441,19.5431811 36.0667881,19.7006252 35.4602961,18.648411 C34.9524841,18.5724609 34.2977601,18.5170229 34.0455171,18.0674203 C33.8542561,17.7264764 34.2778031,16.2108002 34.2778031,15.8271689 C34.2778031,15.4878881 34.4103001,14.8653188 34.3010871,14.5615183 C34.1059451,14.0176711 33.7544671,13.6728465 33.6347211,13.1190204 C33.5321611,12.6489058 33.5504551,12.3101793 33.6369391,11.8733275 C33.7256401,11.4276056 33.6646581,10.9053792 33.6646581,10.447461 C33.6646581,9.7001561 33.8481581,8.9267954 33.7406081,8.1817081 C33.6247421,7.388944 32.8164561,6.9116225 32.7859651,6.1260654" transform="translate(33.144514, 77.117791) scale(-1, 1) translate(-33.144514, -77.117791) "></path>
                </g>
            </g>
        </g>
    </g>
</svg>