<?xml version="1.0" encoding="UTF-8" standalone="no"?>
<svg width="100px" height="65px" viewBox="0 0 100 65" version="1.1" xmlns="http://www.w3.org/2000/svg" xmlns:xlink="http://www.w3.org/1999/xlink" xmlns:sketch="http://www.bohemiancoding.com/sketch/ns">
    <!-- Generator: Sketch 3.4.4 (17249) - http://www.bohemiancoding.com/sketch -->
    <title>community</title>
    <desc>Created with Sketch.</desc>
    <defs></defs>
    <g id="Page-1" stroke="none" stroke-width="1" fill="none" fill-rule="evenodd" sketch:type="MSPage">
        <g id="Green" sketch:type="MSArtboardGroup" transform="translate(0.000000, -230.000000)" fill="#2ECC71">
            <g id="community" sketch:type="MSLayerGroup" transform="translate(0.000000, 230.000000)">
                <path d="M70.6458797,49.6213808 C67.6391982,48.5746102 64.3875278,48.5077951 61.3808463,47.4610245 C60.467706,47.1492205 58.6636971,46.7706013 58.285078,45.7238307 C57.9287305,44.6993318 57.9287305,43.4966592 57.8619154,42.4276169 C57.8173719,41.5812918 57.7951002,40.7349666 57.7951002,39.8886414 C57.7951002,39.3318486 59.22049,38.1514477 59.532294,37.6391982 C60.7349666,35.6347439 60.8463252,32.9398664 61.0690423,30.6681514 C63.0066815,31.2026726 63.2516704,27.6169265 63.5857461,26.5256125 C63.830735,25.7683742 65.3229399,20.5567929 63.0066815,21.2694878 C63.5634744,20.2895323 63.7861915,19.0868597 63.9420935,17.9955457 C64.3875278,15.1447661 64.5657016,12.0267261 63.6971047,9.24276169 C61.8930958,3.45211581 56.3474388,0.200445434 50.4899777,0.0222717149 C44.5434298,-0.178173719 38.5746102,2.67260579 36.3474388,8.44097996 C35.2783964,11.247216 35.3674833,14.298441 35.7238307,17.2383073 C35.8797327,18.5746102 36.1024499,20.0668151 36.7706013,21.2694878 C34.610245,20.623608 35.7683742,25.2115813 36.013363,26.013363 C36.3697105,27.1492205 36.6815145,31.2249443 38.7082405,30.6681514 C38.8864143,32.4721604 39.0868597,34.3207127 39.5768374,36.0801782 C39.9109131,37.2605791 40.6013363,38.2628062 41.403118,39.1759465 C41.8040089,39.6213808 42.0044543,39.6659243 41.9821826,40.2449889 C41.9599109,41.9821826 42.0044543,43.8530067 41.55902,45.545657 C41.1135857,47.2383073 37.3942094,47.9510022 35.9020045,48.2628062 C31.8930958,49.0868597 28.1959911,49.4654788 24.8552339,51.9599109 C20.9576837,54.8329621 18.9309577,59.3095768 18.9309577,64.142539 L74.5879733,64.142539 L80.8463252,64.142539 C80.8463252,57.5723831 76.8819599,51.7817372 70.6458797,49.6213808 L70.6458797,49.6213808 Z" id="Shape" sketch:type="MSShapeGroup"></path>
                <path d="M24.7884187,46.8819599 C24.0311804,47.2605791 23.1180401,47.7282851 24.9665924,46.7928731 C25.6347439,46.4587973 25.5011136,46.5256125 25.1447661,46.7037862 C26.6592428,45.9910913 28.285078,45.8129176 29.9109131,45.6570156 C30.5345212,45.5902004 30.8240535,45.1670379 30.3563474,44.5657016 C29.4654788,43.4298441 26.3919822,43.2071269 25.1002227,42.6948775 C24.298441,42.3830735 24.0757238,42.0935412 24.0089087,41.2026726 C23.986637,40.8017817 23.7639198,39.0200445 24.0757238,38.7305122 C24.298441,38.5077951 25.701559,38.596882 26.013363,38.5523385 C27.2828508,38.3964365 28.5746102,38.1291759 29.7772829,37.6614699 C30.2895323,37.4610245 30.77951,37.2160356 31.2249443,36.9042316 C31.7594655,36.5033408 30.8240535,35.5233853 30.5790646,34.9888641 C29.8218263,33.3184855 29.4877506,31.4922049 29.376392,29.6659243 C29.1536748,26.0801782 29.7104677,22.4721604 29.0423163,18.908686 C28.0400891,13.4521158 23.830735,10.7126949 18.4632517,10.7126949 C15.1447661,10.7126949 11.8708241,11.8485523 10.0222717,14.7438753 C7.97327394,17.9287305 8.08463252,21.8930958 8.19599109,25.5233853 C8.26280624,27.5946548 8.3518931,29.688196 8.0623608,31.7594655 C7.92873051,32.6503341 7.72828508,33.518931 7.41648107,34.3652561 C7.1714922,35.0111359 5.92427617,36.6146993 6.4142539,36.9487751 C8.26280624,38.2628062 11.3808463,38.7082405 13.6080178,38.5300668 C13.674833,39.6213808 13.8752784,41.0244989 13.4743875,42.0489978 C12.8507795,43.6525612 8.19599109,44.0757238 6.79287305,44.5434298 C2.89532294,45.8351893 0,48.9977728 0,53.4521158 L12.2048998,53.4521158 L17.7060134,53.4521158 C17.9955457,53.4521158 19.1091314,51.3808463 19.4209354,51.0467706 C20.935412,49.376392 22.7839644,47.9287305 24.7884187,46.8819599 L24.7884187,46.8819599 Z" id="Shape" sketch:type="MSShapeGroup"></path>
                <path d="M92.9398664,44.5211581 C91.1358575,43.9420935 87.6614699,43.7639198 86.3697105,42.2048998 C85.7238307,41.4253898 86.0801782,39.4432071 86.1469933,38.5077951 C87.1269488,38.596882 88.1959911,38.44098 89.1982183,38.3073497 C90.1113586,38.1737194 91.0022272,37.9955457 91.8708241,37.6837416 C92.2717149,37.5278396 92.6726058,37.3719376 93.0512249,37.1492205 C93.9198218,36.636971 93.518931,36.5478842 93.0734967,35.7906459 C90.6458797,31.714922 91.7371938,26.5478842 91.6258352,22.0712695 C91.5367483,18.3518931 90.5567929,14.2761693 87.1714922,12.1826281 C84.1202673,10.2895323 79.5991091,10.2227171 76.325167,11.55902 C66.8819599,15.3452116 72.4498886,27.8619154 69.22049,35.0334076 C68.6636971,36.2360802 67.8619154,36.6592428 69.2650334,37.3719376 C70.0445434,37.7728285 70.8908686,38.0400891 71.7371938,38.2405345 C73.0289532,38.5523385 74.3652561,38.7305122 75.701559,38.7750557 C75.9242762,38.7750557 75.7683742,41.5812918 75.701559,41.8708241 C75.4565702,42.9621381 73.0734967,43.2739421 72.1826281,43.518931 C71.2694878,43.7639198 69.7550111,43.830735 69.3095768,44.7884187 C68.6414254,46.2138085 71.5144766,45.857461 72.2271715,45.9910913 C74.5211581,46.4142539 76.5478842,47.6837416 78.3296214,49.1314031 C79.6659243,50.2227171 81.4699332,51.6926503 81.9599109,53.4743875 L99.8218263,53.4743875 C99.7772829,48.9977728 96.8596882,45.8129176 92.9398664,44.5211581 L92.9398664,44.5211581 Z" id="Shape" sketch:type="MSShapeGroup"></path>
            </g>
        </g>
    </g>
</svg>