<?xml version="1.0" encoding="UTF-8" standalone="no"?>
<svg width="100px" height="100px" viewBox="0 0 100 100" version="1.1" xmlns="http://www.w3.org/2000/svg" xmlns:xlink="http://www.w3.org/1999/xlink" xmlns:sketch="http://www.bohemiancoding.com/sketch/ns">
    <!-- Generator: Sketch 3.4.4 (17249) - http://www.bohemiancoding.com/sketch -->
    <title>compass</title>
    <desc>Created with Sketch.</desc>
    <defs></defs>
    <g id="Page-1" stroke="none" stroke-width="1" fill="none" fill-rule="evenodd" sketch:type="MSPage">
        <g id="Red" sketch:type="MSArtboardGroup" transform="translate(0.000000, -212.000000)" fill="#F7485C">
            <g id="compass" sketch:type="MSLayerGroup" transform="translate(0.000000, 212.000000)">
                <path d="M50,0 C41.2946429,0 33.125,2.23214286 26.0044643,6.11607143 C23.4151786,2.43303571 19.1294643,0 14.2857143,0 C6.40625,0 0,6.40625 0,14.2857143 C0,19.1294643 2.43303571,23.4151786 6.11607143,26.0044643 C2.23214286,33.125 0,41.2946429 0,50 C0,77.6116071 22.3883929,100 50,100 C77.6116071,100 100,77.6116071 100,50 C100,22.3883929 77.6116071,0 50,0 L50,0 Z M7.14285714,14.2857143 C7.14285714,10.3348214 10.3348214,7.14285714 14.2857143,7.14285714 C16.6294643,7.14285714 18.7053571,8.25892857 20,10 C16.2053571,12.8348214 12.8348214,16.2053571 10,20 C8.25892857,18.7053571 7.14285714,16.6294643 7.14285714,14.2857143 L7.14285714,14.2857143 Z M80.3125,80.3125 C72.2098214,88.3928571 61.4508929,92.8571429 50,92.8571429 C38.5491071,92.8571429 27.7901786,88.3928571 19.6875,80.3125 C11.6071429,72.2098214 7.14285714,61.4508929 7.14285714,50 C7.14285714,38.5491071 11.6071429,27.7901786 19.6875,19.6875 C27.7901786,11.6071429 38.5491071,7.14285714 50,7.14285714 C61.4508929,7.14285714 72.2098214,11.6071429 80.3125,19.6875 C88.3928571,27.7901786 92.8571429,38.5491071 92.8571429,50 C92.8571429,61.4508929 88.3928571,72.2098214 80.3125,80.3125 L80.3125,80.3125 Z" id="Shape" sketch:type="MSShapeGroup"></path>
                <path d="M71.4285714,21.4285714 C71.4285714,21.4285714 48.75,40.1116071 44.6428571,44.6428571 C40.5357143,49.1741071 28.5714286,78.5714286 28.5714286,78.5714286 C28.5714286,78.5714286 51.4285714,60.2008929 55.3571429,55.3571429 C59.2857143,50.5133929 71.4285714,21.4285714 71.4285714,21.4285714 L71.4285714,21.4285714 Z" id="Shape" sketch:type="MSShapeGroup"></path>
            </g>
        </g>
    </g>
</svg>