<?xml version="1.0" encoding="UTF-8" standalone="no"?>
<svg width="119px" height="244px" viewBox="0 0 119 244" version="1.1" xmlns="http://www.w3.org/2000/svg" xmlns:xlink="http://www.w3.org/1999/xlink" xmlns:sketch="http://www.bohemiancoding.com/sketch/ns">
    <!-- Generator: Sketch 3.4.4 (17249) - http://www.bohemiancoding.com/sketch -->
    <title>girl_5</title>
    <desc>Created with Sketch.</desc>
    <defs></defs>
    <g id="Page-1" stroke="none" stroke-width="1" fill="none" fill-rule="evenodd" sketch:type="MSPage">
        <g id="Welcome" sketch:type="MSArtboardGroup" transform="translate(-52.000000, -155.000000)" fill="#F7485C">
            <g id="People" sketch:type="MSLayerGroup" transform="translate(6.373178, 150.000000)">
                <g id="girl_5" transform="translate(45.000000, 5.000000)" sketch:type="MSShapeGroup">
                    <path d="M41.3446839,41.5613359 C41.7344819,41.3511227 42.130914,41.1647491 42.5336715,41.0053294 L42.5336715,41.0053294 C43.0664628,40.0026664 43.6415541,38.9456671 43.5610729,38.2192187 C43.4259825,36.9907172 44.0215743,34.8643499 43.4386706,33.7679534 C42.0832886,31.2191487 40.147242,27.4716968 39.8076501,24.6512187 C39.2083265,19.6812362 39.9531895,12.1385656 43.6558601,8.2627405 C43.8795125,8.0284984 44.0964819,7.8046753 44.3079032,7.5906058 L44.3079032,7.5906058 C43.1301143,7.0220158 40.5886161,8.1666204 39.834519,8.8217609 C38.0022157,10.4129913 37.0961399,13.4006531 36.9117901,15.7031603 C36.4348688,21.6613178 37.2551137,27.6135044 34.1913236,33.0551837 C34.3607464,31.9341574 34.6301808,30.9691195 34.5809213,29.7973411 C33.7233586,31.5482915 32.8426589,34.0918717 32.2843848,36.0256793 C32.4806764,34.9412245 32.9210262,32.7267872 32.511277,31.7699592 C32.0701808,34.5202799 29.3526997,36.027172 27.9114869,38.2968397 C28.6772478,37.0354985 29.4609213,35.4293411 29.3101574,33.8970729 C29.2817959,34.2948805 29.2310437,34.6456676 29.1885015,35.036758 C29.0101224,33.6142041 28.8548805,32.132688 28.7645714,30.6869971 C28.6242566,31.7162216 28.1212128,32.5782624 27.7569913,33.5425539 C27.7301224,31.1803382 27.8517784,28.6442216 27.3770962,26.3394752 C26.9688397,24.3534227 26.2993586,22.5248513 26.33593,20.4664023 C26.0582857,21.0761749 25.7821341,21.6971429 25.7701924,22.3822974 C24.5536327,18.6900758 26.0679883,8.8695277 30.2177259,7.2491895 C28.8011429,7.4066706 27.248723,8.1948222 26.3508571,9.3098776 C27.7846064,5.2459708 34.8481166,1.30446647 39.0000933,1.44851312 C38.8791837,1.3865656 38.6022857,1.12683382 38.4418192,1.03727114 C39.2217609,-0.29124198 42.296,0.75589504 43.3117901,1.36044315 C44.8454806,2.27188117 46.2314866,3.63746627 46.7527414,5.3676486 C49.0519634,3.57526916 51.2273411,2.86120211 55.462461,1.94558601 C60.585998,0.83815167 66.301964,3.10524749 70.7144,6.3221554 C72.678851,6.7932039 74.649221,7.7278766 76.199207,8.857586 C79.080886,10.9563382 80.015324,13.3088513 79.99965,16.8973294 C79.603335,15.2299708 79.174927,13.954449 77.483685,13.2207813 C79.293598,15.4986589 79.018192,18.6370845 77.835219,21.0963265 C77.768047,20.3760933 77.75909,19.620035 77.755359,18.8848746 C77.347848,19.9029038 76.778379,20.9843732 75.99993,21.7650612 C76.030373,21.3010454 76.068452,20.8557072 76.094149,20.4241509 L76.094149,20.4241509 C75.910116,20.8924489 75.712187,21.3156102 75.517038,21.668035 C74.594542,23.3339009 73.495907,24.662414 73.191394,26.4939708 C72.88912,28.3143324 73.262297,29.8421224 73.647417,31.551277 C74.185539,33.945586 73.344397,33.9411079 71.444175,34.5568513 C70.862017,35.6271254 70.92695,36.1428571 71.159067,37.2765714 C70.949341,37.32807 70.810519,37.4355452 70.604525,37.4989854 C70.743347,37.9482915 70.686624,38.499102 70.747825,38.9797551 C69.759524,38.8631095 69.078554,39.2537461 68.576622,39.8716327 C69.821508,40.1125658 70.72415,41.5821156 71.368047,42.515242 C73.207813,45.1797318 73.018985,48.1211195 71.717341,50.9587638 L71.875569,51.108035 C73.004805,54.5681399 73.592933,57.7483615 73.701901,61.6570262 C73.834006,66.4441516 73.435452,70.8394402 73.160047,75.5347638 C73.03242,77.7118834 72.674915,79.5352303 72.133061,81.6384606 C71.642706,83.5416676 71.71958,85.9195569 70.857539,87.6996152 C69.052851,91.4276618 64.636665,90.7216093 61.649749,88.4183557 C61.357419,88.1932404 61.07672,87.9629683 60.804874,87.7285216 C60.439296,90.5993187 59.854342,93.4531983 59.663697,96.344653 C59.40695,100.264513 58.525504,104.116455 58.177703,108.014671 C57.925434,110.848583 58.350857,113.914612 58.429971,116.768676 C58.496468,119.171401 59.180657,122.053039 58.779233,124.381067 L58.779233,124.381067 L58.844945,124.382997 C62.647627,129.418659 67.108595,133.807977 69.756665,139.661644 C72.217399,145.096606 74.681866,150.452455 77.721026,155.645598 C80.195942,159.879673 82.705936,164.095837 85.203988,168.307522 C85.915265,169.506169 87.428128,171.44744 87.227359,172.957318 C87.010169,174.587359 85.454017,174.900828 84.644968,176.091265 C83.673959,177.521283 83.809796,178.775907 82.456653,180.04695 C81.069178,181.35158 79.051032,182.700245 77.264257,183.433166 C77.249768,183.439091 77.235329,183.444971 77.22094,183.450806 C79.129575,189.781621 81.295289,196.320387 83.788898,202.341341 C86.158577,208.065143 88.899195,215.09656 93.671394,219.220921 C99.872863,223.196012 107.087883,223.640093 110.538286,223.721446 C112.169819,223.758764 119.219149,223.837131 119.411708,226.139638 C120.777539,229.787079 109.899405,237.664863 92.764571,233.506169 C93.213878,234.891405 94.219219,236.778939 94.30505,238.090286 C94.437901,240.142017 93.166857,240.259942 91.133038,240.437574 C89.485085,240.582367 87.667708,240.867475 86.769096,239.784513 C85.820478,238.644828 86.024233,236.39158 85.66449,235.054857 C86.172758,223.98491 71.108315,209.116012 68.274402,204.402029 C65.682606,200.089197 64.043791,195.597089 62.284172,191.045602 L62.284172,191.045602 C62.145413,191.055293 62.005618,191.062426 61.8647,191.066892 C59.977166,191.127347 58.060525,190.122752 56.172991,190.60042 C54.3548688,191.060175 52.9323149,192.626029 51.1134461,193.002192 C49.3475685,193.36716 47.4757085,192.649913 45.7874519,192.945469 C43.7857259,193.296257 42.753516,194.63298 40.4554869,194.525504 C38.3253878,194.424746 37.5827638,193.379848 35.7444898,192.658869 C34.0214383,191.982237 32.1335314,191.992673 30.2419307,191.862631 L30.2419307,191.862631 C27.400419,197.621797 24.4325661,203.863041 23.5363499,206.011918 C21.9413878,209.838484 20.8061808,213.748641 18.9776093,217.476688 C17.3311487,220.83081 16.3787988,224.052082 18.0140641,227.521143 C21.1868222,234.248047 29.7154286,234.236851 35.1093411,237.746962 C39.5770262,240.651032 34.3891079,242.552 31.3962216,242.953539 C27.5830904,243.464793 22.5914636,242.306449 19.0746356,240.763732 C16.2019125,239.503883 13.5493644,237.523802 11.2073003,235.542227 C10.2698776,236.498309 10.1571778,239.705399 10.3146589,241.044362 C7.7098776,240.694321 3.8198717,240.849563 3.9482449,237.853691 C4.0139242,236.316198 4.5580175,235.398181 4.8058076,233.829341 C4.8819359,233.348688 6.1261108,228.768303 7.4247697,223.20049 C9.972216,212.281654 12.2001902,197.67824 14.3744981,188.839232 C11.5426574,188.347717 8.9012668,187.430115 7.0889096,185.001259 C8.9632996,183.12195 10.5371874,181.241055 11.8536404,179.216452 C11.9570796,178.89653 12.0550533,178.587376 12.1521866,178.302717 C13.0948338,175.537469 13.9613528,172.87298 14.8420525,170.041306 C15.3682332,168.349318 16.1369796,166.469994 16.3437201,164.674262 C16.517621,163.159907 16.1720583,161.785866 16.572105,160.361819 C16.7915335,159.579638 17.1385889,159.179592 17.231137,158.459359 C17.3184606,157.780175 16.9833469,156.95172 17.1191837,156.251638 C17.4296676,154.658915 18.0857143,154.084968 17.8349388,152.334017 C17.4080233,149.34337 18.7843032,146.757248 18.0469038,143.532245 C17.275172,140.161703 16.3862624,136.921773 16.2862507,133.338519 C16.2258446,131.154502 16.02836,129.04211 16.0278275,126.930257 C15.0694418,126.98962 14.3014592,125.791102 13.1231953,126.789994 C12.1700991,127.594566 12.2021924,129.068618 11.6021224,130.144863 C11.0371312,131.162146 10.3139125,132.136886 9.7019009,133.089236 C9.2742391,133.752 8.0643965,135.979872 6.9403848,135.492501 C5.8798134,135.034985 8.0405131,133.186262 8.5174344,132.50484 C10.0340292,130.332198 10.4497493,127.842356 11.7387055,125.705539 C12.7716618,123.993399 11.9745539,123.988175 10.6520117,122.932828 C9.6406997,122.123778 9.0018192,121.152023 8.4666822,120.096676 C6.9045598,117.011242 6.9291895,114.686344 7.0075569,111.205341 C5.3260175,110.960536 4.4893528,110.046251 3.8221108,108.439347 C3.0757551,106.649586 3.9609329,105.556175 3.8094227,103.914192 C3.6795569,102.514776 2.0823557,102.434915 1.7860525,100.983254 C1.5539359,99.849539 2.3644781,98.466542 2.7518367,97.469411 C3.195172,96.325248 4.0034752,94.9646414 3.5362566,93.7771895 C3.0406764,92.5210729 1.7838134,91.6164898 1.2747988,90.1819942 C0.1403382,86.9913236 0.3843965,84.6179125 2.1846064,81.7616093 C3.9646647,78.9418776 3.9758601,75.8758484 5.4409563,72.8762449 C6.8859009,69.91993 8.8570262,67.5815977 9.8205714,64.3648047 C10.71993,61.3577376 12.5917901,58.4559067 15.1741808,56.6631603 C17.7849329,54.849516 20.8517085,53.9673236 23.6706939,52.4693878 C26.6419359,50.8886064 26.9860058,50.0601516 28.717551,47.5352303 C30.4170029,45.0595685 34.8757318,42.8578192 37.7977143,42.1868455 C39.12339,41.8821442 40.2870254,41.6717753 41.3446839,41.5613359 L41.3446839,41.5613359 Z M55.588471,48.284401 C55.779139,48.2241591 55.965759,48.0992717 56.151347,47.8890029 C56.961321,46.9714922 56.713771,45.8909918 57.781443,45.1097017 L57.781443,45.1097017 C57.802136,45.2690343 57.839491,45.4505029 57.89558,45.6573994 C58.279953,47.0717434 59.786099,47.5188105 60.749644,48.4674286 C61.549738,49.2548338 62.278927,50.4437784 62.974531,51.3155219 C64.628455,53.3874052 63.544746,55.5772128 63.495487,57.9789854 C63.4313,61.1435335 63.618636,64.2789738 63.546985,67.4547172 C61.648257,66.5971545 60.027918,62.0436385 59.069598,60.2210379 C59.062342,60.207245 59.055096,60.1934335 59.047858,60.1796035 C58.859547,59.2751838 58.667363,58.3705761 58.475499,57.4647464 C58.45723,57.3783305 58.436187,57.2894864 58.412599,57.1983784 C58.214883,56.2087348 58.00064,55.1885185 57.80751,54.1053994 C57.378524,51.6968911 56.753542,49.8726029 55.588471,48.284401 L55.588471,48.284401 Z"></path>
                </g>
            </g>
        </g>
    </g>
</svg>