<?xml version="1.0" encoding="UTF-8" standalone="no"?>
<svg width="25px" height="49px" viewBox="0 0 25 49" version="1.1" xmlns="http://www.w3.org/2000/svg" xmlns:xlink="http://www.w3.org/1999/xlink" xmlns:sketch="http://www.bohemiancoding.com/sketch/ns">
    <!-- Generator: Sketch 3.4.4 (17249) - http://www.bohemiancoding.com/sketch -->
    <title>girl_1</title>
    <desc>Created with Sketch.</desc>
    <defs></defs>
    <g id="Page-1" stroke="none" stroke-width="1" fill="none" fill-rule="evenodd" sketch:type="MSPage">
        <g id="Welcome" sketch:type="MSArtboardGroup" transform="translate(-273.000000, -161.000000)" fill="#F7485C">
            <g id="People" sketch:type="MSLayerGroup" transform="translate(6.373178, 150.000000)">
                <g id="girl_1" transform="translate(266.000000, 11.000000)" sketch:type="MSShapeGroup">
                    <path d="M15.807352,9.3688862 C15.737194,9.3606763 15.716296,9.4017258 15.694652,9.4427754 C15.669276,9.4920349 15.643153,9.5412944 15.531946,9.5062156 C15.585684,9.3300757 15.616285,9.1322914 15.807352,9.0949737 C15.793171,9.2009562 15.717043,9.2838016 15.807352,9.3688862 M14.618407,7.9523031 C14.647515,7.8284081 14.919935,7.5485247 14.984121,7.402239 L14.984121,7.2201282 C15.141602,7.035032 15.823772,6.9387521 15.531946,6.7633585 C15.7566,6.7588804 15.823772,6.5969212 15.852879,6.3968978 C15.76257,6.3842098 15.76257,6.4595917 15.71555,6.489446 L15.669276,6.4424255 C15.953637,5.8848978 16.305917,4.9422506 16.492506,4.0205013 C16.637299,4.0443847 16.746267,4.1003614 16.858967,4.1578308 C17.183632,5.410962 16.429812,6.2991253 16.082011,7.1746005 C16.230535,7.0954868 16.297707,6.9327812 16.446232,6.8551602 C16.406675,7.5462856 15.753614,7.6239066 15.441637,8.0433585 L15.578967,8.0881398 C15.276693,8.182927 14.967702,8.2695043 14.938594,8.6367113 C15.055772,8.7210495 15.225941,8.5523731 15.395363,8.5456559 C15.25057,8.8352419 15.036366,9.3554518 15.349836,9.7346005 C15.402081,9.69579 15.472238,9.6733993 15.578967,9.6883264 C15.527468,9.9599999 15.702862,9.8338658 15.852879,9.8256559 C15.899153,9.930892 16.01036,9.9741806 15.989462,10.1450961 C14.899783,10.1518133 14.384798,8.9464489 14.618407,7.9523031 M1.09071,48.1741573 C1.125789,48.2458075 1.151911,48.3099941 1.173556,48.3726879 C2.975258,48.7167579 6.033824,48.7973643 8.323643,48.610029 L8.485602,48.5159882 C8.698314,48.4159766 8.837136,48.2211777 8.92446,47.9830903 L8.944611,47.9793585 L8.927445,47.9778658 C9.046862,47.6576792 9.07597,47.2613643 9.072984,46.9195334 C9.061043,46.7359299 9.052833,46.5500874 9.040891,46.3672302 C9.024471,46.2239299 9.008798,46.1358599 9.008798,46.1358599 L9.024471,46.1440699 C8.970734,45.4335392 8.855795,44.7827171 8.402011,44.4722331 C8.285579,42.1324081 9.214046,40.2112885 9.134186,37.7998133 C9.674547,37.7766763 10.202221,37.8289212 10.725416,37.8819124 C11.367282,37.946099 12.003177,38.0102856 12.653253,37.93565 C13.211527,37.8729562 13.721288,37.6594984 14.251946,37.7080116 C14.457941,37.7266704 14.733346,37.8386238 14.984121,37.8908687 C15.25057,37.9453527 15.565532,37.9154984 15.761078,37.9819241 C16.058127,38.0834285 16.364133,38.523032 16.675363,38.8044081 C17.616518,39.6574926 18.552448,40.384443 19.418221,41.2733527 C19.453299,41.4315801 19.349556,41.4479999 19.371946,41.5927929 C19.713031,41.7689328 19.855585,42.2137608 20.103375,42.5526063 C20.237719,42.7339707 20.427293,43.0078833 20.377288,43.3295626 C20.351165,43.5027171 20.201148,43.6049678 20.148903,43.7863323 C20.119795,43.8893293 20.169054,44.0259124 20.148903,44.1527929 C20.097404,44.4789503 19.785428,44.8200349 20.058594,45.2947171 C19.716016,46.0657025 18.708436,46.171685 18.367352,46.9404314 C18.367352,46.9404314 18.386011,46.9881981 18.428553,47.0568629 C20.013066,49.8751019 24.558372,44.9401981 25.119632,44.4416325 C25.688355,43.9356034 25.223375,43.3750903 25.223375,43.3750903 C24.697194,42.6973993 24.186687,42.0040349 23.485113,41.5024839 C22.466337,41.4091894 22.11555,40.6471602 21.566979,40.0844081 L21.337101,40.0844081 C20.454909,39.1387754 19.693626,38.0722331 18.823375,37.1139124 L18.823375,36.7944722 C17.842664,34.9793352 16.94629,32.8940174 16.126792,30.8512419 C15.767049,29.9526296 15.516273,29.0256559 14.938594,28.3830436 C15.026664,28.0934576 15.303562,28.1218191 15.487165,27.9270203 C15.944681,27.4389037 16.002897,26.568653 16.492506,26.0969562 C17.151538,26.4208745 17.950139,26.2320465 18.504681,25.9596267 C18.789043,25.5222623 19.033847,25.0416092 19.281637,24.4982623 C19.517486,23.9780524 19.644366,23.385446 19.875737,22.8980757 C19.9959,22.6435684 20.260856,22.4383206 20.332506,22.1666471 C20.494465,21.5426938 20.125019,20.8791836 20.377288,20.3380757 C20.236226,19.5208162 19.639888,19.1558483 19.142815,18.6931078 C19.233124,17.6735859 19.191328,16.5331544 19.142815,15.4472069 C19.103258,14.5538191 19.160728,13.5544489 18.870395,12.8879532 C18.682314,12.4610378 18.243457,12.25579 18.321078,11.6990086 C18.05836,11.4295742 17.653089,11.3012011 17.406792,11.0131078 C17.481428,10.6063439 17.582932,10.2137608 17.635923,9.6427987 C17.671748,9.2464839 17.900879,8.9777958 18.001637,8.5456559 C18.315107,7.1917667 18.454675,4.676548 17.680704,3.7003148 C17.494116,3.4644664 17.079888,3.3510203 17.223188,2.9696325 C17.315737,2.9061923 17.403807,2.995755 17.492623,3.0845713 C17.582186,3.1756267 17.673241,3.2659357 17.772506,3.1980174 C17.750862,3.0547171 17.894909,3.0771078 17.909836,2.9696325 C17.680704,2.7725946 17.368728,2.6569095 16.950769,2.649446 C16.741789,2.3374693 16.456681,2.1068454 16.308903,1.7344139 C16.166349,1.728443 16.033497,1.7336675 15.989462,1.826962 C15.490897,1.0462739 14.280308,0.2387171 12.927165,0.3633585 C12.221859,0.4297841 11.260553,0.6551836 10.962011,1.1410611 C9.617824,1.3933293 8.608005,2.4262856 8.996856,4.1123031 C9.097614,4.1787288 9.192401,4.2511253 9.361824,4.2496325 C10.059667,5.1303323 8.38783,6.0752185 9.4999,6.3968978 C9.473777,7.2581923 9.816355,7.5343439 10.001451,8.2262156 C10.432844,8.5090844 11.200844,8.2971194 11.692693,8.2262156 C11.758372,8.7941923 12.147223,9.3860524 12.104681,9.8711836 C12.083037,10.1189737 11.778524,10.4981223 11.600891,10.6936675 C11.144121,11.2026821 10.351492,11.6706471 9.955923,12.0647229 C9.782769,12.0266588 9.652903,11.9415742 9.406605,11.9736675 C9.371527,12.2572827 9.230465,12.4349153 8.996856,12.5229853 C8.950582,12.8573527 8.988646,13.0536442 8.721451,13.2081398 C8.839375,13.5507171 8.644576,13.7485013 8.676669,14.0313702 C8.737871,14.5762098 9.316296,14.8254926 9.590209,15.172548 C9.387946,15.8741223 9.170757,16.5473352 8.996856,17.2765247 C8.825194,17.9967579 8.774442,18.7632652 8.584868,19.470064 C8.392308,20.194029 8.198255,20.8866471 8.036296,21.6180757 C7.87583,22.3450261 7.711632,23.0794401 7.533253,23.8116151 C6.504774,28.0419591 5.835293,32.6402564 4.836669,37.1139124 C5.275527,37.299755 5.685276,37.5147054 6.208471,37.6162098 C5.889031,39.0902623 6.381626,40.7359766 6.116669,42.1876384 C5.998745,42.8406996 5.634524,43.4139008 5.613626,44.0154634 C5.339713,44.3207229 4.737404,44.2983323 4.608285,44.746892 C3.773859,44.9864722 3.302909,45.5865422 2.263981,45.6201282 C1.733323,45.8604547 0.335398,46.6657725 1.09071,48.1741573"></path>
                </g>
            </g>
        </g>
    </g>
</svg>