<?xml version="1.0" encoding="UTF-8" standalone="no"?>
<svg width="512px" height="49px" viewBox="0 0 512 49" version="1.1" xmlns="http://www.w3.org/2000/svg" xmlns:xlink="http://www.w3.org/1999/xlink" xmlns:sketch="http://www.bohemiancoding.com/sketch/ns">
    <!-- Generator: Sketch 3.4.4 (17249) - http://www.bohemiancoding.com/sketch -->
    <title>Logo</title>
    <desc>Created with Sketch.</desc>
    <defs>
        <linearGradient x1="50%" y1="50%" x2="100%" y2="28.9411612%" id="linearGradient-1">
            <stop stop-color="#4A4A4A" offset="0%"></stop>
            <stop stop-color="#2B2B2B" offset="100%"></stop>
        </linearGradient>
        <linearGradient x1="50%" y1="50%" x2="100%" y2="24.21623%" id="linearGradient-2">
            <stop stop-color="#4A4A4A" offset="0%"></stop>
            <stop stop-color="#2B2B2B" offset="100%"></stop>
        </linearGradient>
        <linearGradient x1="50%" y1="50%" x2="99.8532641%" y2="0%" id="linearGradient-3">
            <stop stop-color="#4A4A4A" offset="0%"></stop>
            <stop stop-color="#2B2B2B" offset="100%"></stop>
        </linearGradient>
        <linearGradient x1="50%" y1="50%" x2="82.771175%" y2="0%" id="linearGradient-4">
            <stop stop-color="#4A4A4A" offset="0%"></stop>
            <stop stop-color="#2B2B2B" offset="100%"></stop>
        </linearGradient>
        <linearGradient x1="50%" y1="50%" x2="100%" y2="7.15907317%" id="linearGradient-5">
            <stop stop-color="#4A4A4A" offset="0%"></stop>
            <stop stop-color="#2B2B2B" offset="100%"></stop>
        </linearGradient>
        <linearGradient x1="50%" y1="50%" x2="100%" y2="9.93854511%" id="linearGradient-6">
            <stop stop-color="#4A4A4A" offset="0%"></stop>
            <stop stop-color="#2B2B2B" offset="100%"></stop>
        </linearGradient>
    </defs>
    <g id="Page-1" stroke="none" stroke-width="1" fill="none" fill-rule="evenodd" sketch:type="MSPage">
        <g id="Welcome" sketch:type="MSArtboardGroup" transform="translate(-6.000000, -6.000000)">
            <g id="Logo" sketch:type="MSLayerGroup" transform="translate(6.000000, 6.000000)">
                <path d="M0.425922837,1.03883619 L0.425922837,41.5500076 C1.67244473,41.9239569 3.79153196,41.9239569 5.10037995,41.5500076 L5.10037995,4.96530357 L26.6652088,4.96530357 C26.9768392,3.71880599 26.9768392,2.28533377 26.6652088,1.03883619 L0.425922837,1.03883619 L0.425922837,1.03883619 Z" id="Path" fill="url(#linearGradient-1)" sketch:type="MSShapeGroup"></path>
                <path d="M69.3353899,1.03883619 L69.3353899,41.5534475 C70.5819933,41.9274285 72.7012192,41.9274285 74.0101528,41.5534475 L74.0101528,27.2175081 L83.7959896,27.2175081 C93.5818265,27.2175081 98.6305704,21.2338117 98.6305704,14.1281721 C98.6305704,7.02253262 93.5818265,1.03883619 83.7959896,1.03883619 L69.3353899,1.03883619 L69.3353899,1.03883619 Z" id="Path" fill="url(#linearGradient-2)" sketch:type="MSShapeGroup"></path>
                <path d="M162.428963,0.103883619 C149.838269,0.103883619 141.174375,9.64039982 141.174375,21.2961418 C141.174375,32.9518839 149.838269,42.4884001 162.428963,42.4884001 C174.957328,42.4884001 183.621222,32.9518839 183.621222,21.2961418 C183.621222,9.64039982 174.957328,0.103883619 162.428963,0.103883619 L162.428963,0.103883619 L162.428963,0.103883619 Z" id="Path" fill="url(#linearGradient-3)" sketch:type="MSShapeGroup"></path>
                <path d="M265.620025,1.03883619 C264.373421,0.66485516 262.877497,0.66485516 261.630894,1.03883619 L249.663501,34.3231476 L237.758438,1.03883619 C236.449505,0.66485516 234.95358,0.66485516 233.706977,1.03883619 L224.295121,41.5534475 C225.541725,41.9274285 227.59862,41.9274285 228.845224,41.5534475 L236.137854,9.26641879 L247.731266,41.5534475 C248.977869,41.9274285 250.349133,41.9274285 251.595736,41.5534475 L263.189148,9.26641879 L270.481778,41.5534475 C271.728381,41.9274285 273.785277,41.9274285 275.031881,41.5534475 L265.620025,1.03883619 L265.620025,1.03883619 Z" id="Path" fill="url(#linearGradient-4)" sketch:type="MSShapeGroup"></path>
                <path d="M335.277454,1.03883619 C334.03085,0.66485516 332.534926,0.66485516 331.288323,1.03883619 L314.272186,41.5534475 C315.51879,41.9274285 317.825006,41.9274285 319.071609,41.5534475 L323.808702,30.2716865 L342.757074,30.2716865 L347.431837,41.5534475 C348.740771,41.9274285 350.984657,41.9274285 352.293591,41.5534475 L335.277454,1.03883619 L335.277454,1.03883619 Z" id="Path" fill="url(#linearGradient-5)" sketch:type="MSShapeGroup"></path>
                <path d="M434.292394,37.6266467 L429.30598,37.6266467 L429.30598,1.03883619 L403.314299,1.03883619 L400.758761,26.2825555 C400.13546,31.8299408 398.327885,35.7567416 395.398367,37.6266467 L391.471566,37.6266467 L391.471566,48.5967568 C392.718169,48.9707379 394.837395,48.9707379 396.146329,48.5967568 L396.146329,41.5534475 L429.679961,41.5534475 L429.679961,48.5967568 C430.926564,48.9707379 433.04579,48.9707379 434.292394,48.5967568 L434.292394,37.6266467 L434.292394,37.6266467 Z" id="Path" fill="url(#linearGradient-6)" sketch:type="MSShapeGroup"></path>
                <path d="M494.537967,1.03883619 C493.291363,0.66485516 491.795439,0.66485516 490.548836,1.03883619 L473.532699,41.5534475 C474.779303,41.9274285 477.085519,41.9274285 478.332122,41.5534475 L483.069215,30.2716865 L502.017587,30.2716865 L506.69235,41.5534475 C508.001284,41.9274285 510.24517,41.9274285 511.554104,41.5534475 L494.537967,1.03883619 L494.537967,1.03883619 Z" id="Path" fill="url(#linearGradient-5)" sketch:type="MSShapeGroup"></path>
                <path d="M74.0101528,23.290707 L74.0101528,4.96563668 L83.7959897,4.96563668 C90.6523086,4.96563668 93.8934775,9.14175816 93.8934775,14.1281719 C93.8934775,19.1145856 90.6523086,23.290707 83.7959897,23.290707 L74.0101528,23.290707 L74.0101528,23.290707 Z" id="Path" fill="#FFFFFF" sketch:type="MSShapeGroup"></path>
                <path d="M162.428963,4.03068412 C171.903149,4.03068412 178.884129,11.3856443 178.884129,21.2961415 C178.884129,31.2066388 171.903149,38.561599 162.428963,38.561599 C152.954777,38.561599 145.911468,31.2066388 145.911468,21.2961415 C145.911468,11.3856443 152.954777,4.03068412 162.428963,4.03068412 L162.428963,4.03068412 L162.428963,4.03068412 Z" id="Path" fill="#FFFFFF" sketch:type="MSShapeGroup"></path>
                <path d="M325.242296,26.2825552 L333.220558,7.02253233 L341.26115,26.2825552 L325.242296,26.2825552 L325.242296,26.2825552 Z" id="Path" fill="#FFFFFF" sketch:type="MSShapeGroup"></path>
                <path d="M424.631217,4.96563668 L424.631217,37.6266464 L400.945752,37.6266464 C403.438959,35.4450904 404.934883,31.1443086 405.433524,26.2825552 L407.61508,4.96563668 L424.631217,4.96563668 L424.631217,4.96563668 Z" id="Path" fill="#FFFFFF" sketch:type="MSShapeGroup"></path>
                <path d="M484.502809,26.2825552 L492.481071,7.02253233 L500.521663,26.2825552 L484.502809,26.2825552 L484.502809,26.2825552 Z" id="Path" fill="#FFFFFF" sketch:type="MSShapeGroup"></path>
            </g>
        </g>
    </g>
</svg>