<?xml version="1.0" encoding="UTF-8" standalone="no"?>
<svg width="22px" height="85px" viewBox="0 0 22 85" version="1.1" xmlns="http://www.w3.org/2000/svg" xmlns:xlink="http://www.w3.org/1999/xlink" xmlns:sketch="http://www.bohemiancoding.com/sketch/ns">
    <!-- Generator: Sketch 3.4.4 (17249) - http://www.bohemiancoding.com/sketch -->
    <title>man</title>
    <desc>Created with Sketch.</desc>
    <defs></defs>
    <g id="Page-1" stroke="none" stroke-width="1" fill="none" fill-rule="evenodd" sketch:type="MSPage">
        <g id="Welcome" sketch:type="MSArtboardGroup" transform="translate(-422.000000, -169.000000)" fill="#34495E">
            <g id="People" sketch:type="MSLayerGroup" transform="translate(6.373178, 150.000000)">
                <g id="man" transform="translate(415.000000, 19.000000)" sketch:type="MSShapeGroup">
                    <path d="M8.45056,11.0006433 C8.79463,11.2439552 8.811797,11.1193138 9.288718,11.3812847 C8.824485,12.1560019 8.858817,13.5904975 7.689278,13.4367482 C7.138467,14.2972963 5.985348,14.7368998 5.327808,15.5690864 C4.438899,16.6953371 3.349219,19.0650164 3.501476,21.2033255 C3.566409,22.1310456 3.991085,23.08041 4.034374,24.0962001 C4.06796,24.8962934 3.817184,25.6307074 3.882117,26.3807949 C3.933616,26.9808648 4.122444,27.5607832 4.263505,28.1324917 C4.394864,28.6706141 4.738187,29.222171 4.795657,29.7311855 C4.863575,30.3357336 4.546374,31.0029756 4.567272,31.6351389 C4.616531,33.0763517 5.40319,34.667582 5.70845,36.3558386 C6.242094,39.2942409 5.815925,42.7170281 6.166712,45.6449815 C6.37196,47.3608532 6.447342,49.8342759 6.393604,51.9651214 C4.612053,52.2912788 1.313907,51.0941243 1.064625,53.2593022 C0.77056,55.8178094 0.893709,60.2593721 0.759365,63.3112205 C0.702642,64.6345092 0.554864,65.9234654 1.674397,66.2040952 C2.9947,66.5339844 3.976158,65.930929 5.253173,66.2809698 C4.958362,69.2260893 5.03673,73.0974363 5.177044,76.1791389 C5.213616,76.982964 4.99568,77.9024742 5.557686,78.2346024 C5.409161,79.1145558 5.170327,80.2676753 5.253173,81.128223 C6.466747,81.780538 8.460263,81.263314 9.745488,81.051349 C9.895505,81.630521 9.664881,82.289553 9.745488,83.032177 C10.326899,83.288923 11.205359,83.522532 12.105464,83.4882 C12.393558,83.477005 12.759272,83.311314 13.019004,83.335944 C13.413826,83.3755 13.828053,83.736737 14.237802,83.869588 C15.422269,84.253961 17.084403,84.350241 18.577861,84.250229 C20.008625,84.153949 21.474467,84.066626 22.385021,83.108305 C21.669266,81.210323 18.380823,81.883535 17.587447,80.0616812 C17.486689,79.6556637 17.994211,79.8594188 17.89196,79.4526549 C17.609091,79.0003634 17.541173,78.3316287 16.826164,78.3107307 C16.525383,76.7344275 15.613336,75.7678969 15.075214,74.4274421 C15.369278,73.5497278 14.874444,72.5697628 14.465441,71.6106957 C14.193021,70.9718153 13.537721,70.150824 13.551902,69.6306141 C13.567575,69.0783109 14.317663,68.6342293 14.542316,68.1080485 C14.787867,67.5296229 14.663972,67.1377861 14.922211,66.5086083 C16.467913,66.2458911 18.13975,67.1407715 19.033884,66.2040952 C19.636939,65.5734246 19.563797,63.1619494 19.643657,61.4072672 C19.754864,58.9629523 19.722024,56.6910456 19.873534,54.5542293 C20.090724,55.5535995 20.778864,56.0827657 20.861709,57.2187191 C21.454316,56.572375 20.926642,55.1095179 20.557196,54.4019727 C20.365383,54.0340194 19.880998,53.7235354 19.643657,53.3354304 C19.322724,52.8129815 19.230176,52.2270922 18.577861,52.0412497 C18.856251,50.1134129 19.442887,48.4885966 19.568275,46.4062643 C20.425091,45.9987541 20.360905,45.1225325 20.557196,43.8186491 C20.685569,42.9670573 21.108753,42.166964 21.09084,41.5340543 C21.07666,41.0772847 20.837826,40.6787307 20.861709,40.2391272 C20.881114,39.8905791 21.147563,39.539792 21.166222,39.1733313 C21.226677,38.0403634 20.10789,37.0536812 19.795913,35.8990689 C19.527225,34.9056695 19.725009,33.8376345 19.643657,32.6248065 C19.569767,31.515722 19.242117,30.4969465 19.186887,29.4274188 C19.007762,25.9329815 19.413033,22.3385325 18.34873,19.6046316 C17.807622,18.2149173 17.426234,16.7393721 16.750036,15.8735995 C16.001441,14.9145325 14.243773,14.0136812 14.922211,12.0664392 C16.026071,12.0522584 16.978421,11.8873138 17.512811,11.3051564 C17.353091,10.1736812 17.426234,9.4340427 17.207552,8.4876637 C17.273977,8.1995704 17.786724,8.3563051 17.816578,8.0301476 C17.753884,7.5002351 17.147097,6.8800135 16.826164,6.3553255 C17.462059,6.1082817 16.784368,6.0582759 17.28368,5.4417861 C17.070969,4.6633371 16.631365,4.113273 16.293266,3.4617045 C18.190502,2.6078736 16.267144,1.6667191 14.694572,1.1786024 C14.193021,1.0226141 13.787004,0.7270573 13.399645,0.6449581 C12.879435,0.5344975 12.118152,0.5665908 11.724823,0.5680835 C11.6681,0.5688299 11.587493,0.4068707 11.496438,0.4158269 C10.686642,0.5031506 9.828333,1.530136 9.211843,1.1786024 C8.499074,2.0734829 7.509406,2.6847482 7.308636,4.1476054 C7.134735,5.4082001 7.557173,6.7800019 7.460893,8.2592788 C7.960205,8.7242584 8.297558,9.9415645 8.45056,11.0006433"></path>
                </g>
            </g>
        </g>
    </g>
</svg>