<?xml version="1.0" encoding="UTF-8" standalone="no"?>
<svg width="47px" height="116px" viewBox="0 0 47 116" version="1.1" xmlns="http://www.w3.org/2000/svg" xmlns:xlink="http://www.w3.org/1999/xlink" xmlns:sketch="http://www.bohemiancoding.com/sketch/ns">
    <!-- Generator: Sketch 3.4.4 (17249) - http://www.bohemiancoding.com/sketch -->
    <title>mom_and_child</title>
    <desc>Created with Sketch.</desc>
    <defs></defs>
    <g id="Page-1" stroke="none" stroke-width="1" fill="none" fill-rule="evenodd" sketch:type="MSPage">
        <g id="Welcome" sketch:type="MSArtboardGroup" transform="translate(-6.000000, -163.000000)" fill="#1ABC9C">
            <g id="People" sketch:type="MSLayerGroup" transform="translate(6.373178, 150.000000)">
                <g id="mom_and_child" transform="translate(0.000000, 13.000000)" sketch:type="MSShapeGroup">
                    <path d="M8.09798582,115.328677 C7.84528397,115.212479 6.91344592,115.240683 6.46557702,115.143663 C6.01996439,115.0489 5.56758296,115.468565 5.56758296,115.468565 C5.56758296,115.468565 3.05184584,115.101922 2.42573189,115.075975 C1.79736167,115.0489 1.51758463,114.699179 1.51758463,114.699179 C1.51758463,114.699179 1.40364317,114.483705 1.4216933,114.437452 C1.43974344,114.393454 1.26375465,114.06968 1.0448968,113.478538 C0.82829522,112.88514 1.15883826,112.368455 1.15883826,112.368455 C1.15883826,112.368455 0.924186545,112.554597 0.932083478,112.518497 C0.941108544,112.483525 0.784298023,112.325586 0.784298023,112.281589 C0.784298023,112.237592 0.853114151,111.967968 0.810245088,111.967968 C0.767376025,111.967968 0.715481896,111.879974 0.732403894,111.817926 C0.749325893,111.760391 0.74142896,111.653219 0.74142896,111.653219 C0.74142896,111.653219 0.600412305,111.575378 0.662459634,111.471589 C0.725635095,111.366673 0.916289613,111.12074 0.994130806,110.965058 C1.07084387,110.805991 1.41379637,110.067064 1.51758463,109.888818 C1.62137289,109.717342 1.51758463,109.534585 1.4487685,109.290908 C1.37995237,109.046103 1.11709733,108.914111 1.11709733,108.574543 C1.11709733,108.233847 1.09115026,106.610463 1.15883826,106.276536 C1.22878252,105.947121 1.70823915,103.493431 1.83120567,102.464574 C1.95417219,101.432332 2.06811365,99.899199 2.21702724,98.465341 C2.36255643,97.037125 2.61864267,94.938797 2.731456,94.144591 C2.84426932,93.352641 3.20188756,91.799202 3.30567581,91.214829 C3.41172034,90.629328 3.89117697,88.681042 4.02204042,88.350499 C4.15290388,88.021084 4.2657172,87.5856243 4.36273666,87.3893291 C4.45862799,87.1986746 4.45862799,86.6492737 4.54436611,86.4405691 C4.63236051,86.2296081 4.70456103,85.5831878 4.84444955,85.1590097 C4.98320994,84.7303191 5.20883659,84.4144418 5.26185885,84.3884947 C5.31375298,84.3625476 5.39272231,84.0568235 5.58563309,83.8300687 C5.77741574,83.6044421 5.78531268,83.1238573 5.84623187,82.8801806 C5.90715107,82.6331194 5.80223468,82.2766293 5.88007587,82.0927436 C5.95791706,81.909986 6.39676089,81.5354457 6.39676089,81.5354457 C6.39676089,81.5354457 6.31779157,81.402326 6.29297263,81.2996659 C6.26702557,81.1947495 6.17790304,80.8969223 6.13616211,80.6882177 C6.08878052,80.4806412 5.898126,80.2708084 5.9421232,80.0778976 C5.98612039,79.8872431 6.19708131,79.336714 6.26702557,79.1280094 C6.3358417,78.9181766 6.15082785,78.8301822 6.13616211,78.6632185 C6.11585572,78.4973829 6.43060489,77.2507957 6.48475529,77.117676 C6.53552128,76.9890688 6.40465783,76.8661022 6.35163556,76.762314 C6.30086957,76.6540132 6.28394757,76.4396679 6.26702557,76.1587627 C6.24671917,75.8789857 6.01206746,74.6583455 5.98612039,74.1709919 C5.95791706,73.680254 5.72326535,72.223834 5.72326535,71.9903104 C5.72326535,71.7511461 5.56758296,71.4713691 5.52584203,71.1848233 C5.47846044,70.894893 5.27878085,69.1857712 5.27878085,69.1857712 C5.27878085,69.1857712 4.7203549,68.583348 4.62220731,68.2347548 C4.52857225,67.8839054 4.75532703,67.4326521 4.75532703,67.4326521 L4.37176173,66.5053266 L3.78513244,65.0229595 C3.78513244,65.0229595 3.47263953,64.0527649 3.33275101,63.8880575 C3.19399062,63.7222219 2.80140026,63.0600077 2.72243093,62.4474313 C2.64458974,61.8371112 2.76529999,61.4535459 2.86119132,61.2617633 C2.95708264,61.0688525 2.81832226,60.7732816 2.81832226,60.7732816 L2.61864267,60.7890754 C2.61864267,60.7890754 2.43475695,60.7462064 2.2768183,60.4506355 C2.12000778,60.1528083 2.14595484,59.6891455 2.14595484,59.6891455 C2.14595484,59.6891455 1.99027246,59.4714158 1.89438113,59.3225022 C1.79736167,59.1747168 1.70823915,58.8351487 1.71726421,58.6444942 C1.72741741,58.4527115 1.91920006,58.4324051 2.04216659,58.5113744 C2.16400498,58.5903438 2.2598963,58.9400651 2.2598963,58.9400651 C2.2598963,58.9400651 2.33660936,58.8509425 2.39752856,58.7133103 C2.46070402,58.5722936 2.47762602,57.6664026 2.47762602,57.6664026 C2.47762602,57.6664026 2.44265389,57.6122522 2.35465949,57.542308 C2.26779323,57.4734919 2.45167895,57.3426284 2.56449228,57.2185337 C2.67956187,57.0966954 2.52162321,57.0809015 2.49567615,56.8710687 C2.46860095,56.6612359 2.74950613,56.4243279 2.74950613,56.4243279 C2.74950613,56.4243279 2.83637239,56.0418908 2.85216625,55.7790357 C2.87134452,55.5184369 2.96610771,55.3965986 3.00897677,55.3435763 C3.05184584,55.2916822 2.95708264,55.0468773 2.90518851,54.8381726 C2.85216625,54.6283398 2.99318291,54.0529919 3.0371801,53.901822 C3.07892103,53.7540366 3.19399062,53.503591 3.19399062,53.503591 C3.19399062,53.503591 3.0439489,53.3975465 2.98415784,53.2824769 C2.92323865,53.1719198 2.69535573,52.9778809 2.56449228,52.7432292 C2.43475695,52.5063212 2.34676256,52.2118784 2.34676256,52.2118784 C2.34676256,52.2118784 2.06811365,52.2378255 2.00719446,52.1667531 C1.94401899,52.0956807 1.81428367,52.0110707 1.65634502,52.0110707 C1.4995345,52.0110707 1.45666543,52.0268646 1.4487685,51.8790791 C1.43974344,51.7312937 1.46456237,51.1288705 1.53563476,50.9991352 C1.60445089,50.8671436 1.67439515,50.5174223 1.68229208,50.2466703 C1.69131715,49.9759183 1.74321128,49.9420743 2.03314152,49.5912249 C2.3208155,49.2426317 3.0371801,48.5984677 3.0371801,48.5984677 L3.05184584,48.5014482 C3.05184584,48.5014482 3.20188756,47.8369777 3.23009089,47.7422145 C3.25490982,47.6451951 3.50648353,46.8509893 3.63960325,46.3365605 C3.76933858,45.8221318 3.93517416,44.8609622 3.93517416,44.8609622 C3.93517416,44.8609622 3.72534138,44.5123691 3.51663673,44.1547508 C3.30567581,43.7960045 2.94128878,43.2217846 2.69535573,42.8720633 C2.45167895,42.5234702 1.96206913,41.7969524 1.910175,41.658192 C1.85828087,41.5205597 1.60445089,40.9971059 1.29195798,40.7263539 C0.974952541,40.4533457 1.0110528,40.1385965 1.0110528,40.1385965 L0.916289613,40.1228026 C0.916289613,40.1228026 0.645537635,39.9580952 0.435704852,39.7302123 C0.224743936,39.5023293 0.129980744,39.126661 0.0261924862,38.4486529 C-0.0775957719,37.7661323 0.155927809,37.1467871 0.224743936,36.4924699 C0.294688197,35.8370244 0.286791265,34.7551447 0.34094166,34.3106602 C0.391707656,33.8661757 0.672612833,33.3054935 0.845217218,32.7651176 C1.02007787,32.2236137 1.25698585,31.2477784 1.33482704,30.8100627 C1.41379637,30.3734752 1.69131715,29.6390604 1.77818341,29.3525146 C1.86730593,29.0659687 2.37270963,27.6772367 2.62541147,26.9868192 C2.87924145,26.2975298 4.16305708,23.3395644 4.16305708,23.3395644 C4.16305708,23.3395644 4.23977014,22.9289239 4.41575892,22.2667097 C4.58949144,21.6022392 4.61656664,21.5165011 5.71649655,19.8581452 C6.34712303,18.9048726 7.02851551,18.2167114 7.67380772,17.8173522 C8.15552061,17.519525 8.61241458,17.4191212 9.03884894,17.2837452 C10.0440157,16.9599709 11.0830264,17.1348316 11.4146975,17.1777007 C11.7452406,17.2205697 12.9410618,16.9238707 12.9410618,16.9238707 C12.9410618,16.9238707 13.0707971,16.8719765 13.1339726,16.8020323 C13.1937637,16.7332162 13.4295435,16.7162942 13.6123011,16.6644 C13.7961868,16.6102496 14.1064235,16.4094419 14.3297938,16.3767261 C14.5542924,16.3440102 14.6998215,16.5154864 14.6862839,16.4985644 C14.6750026,16.4805143 14.6005458,16.1962247 14.576855,16.0303891 C14.5542924,15.8690661 14.5373704,15.2203895 14.5373704,15.1041918 C14.5373704,14.9902503 14.5249609,14.7364203 14.5249609,14.6721167 C14.5249609,14.6100694 14.407635,14.2535793 14.3828161,14.1452785 C14.3591253,14.0381058 14.2914373,13.5281896 14.2914373,13.5281896 C14.2914373,13.5281896 14.2135961,13.4063512 14.1571895,13.3036911 C14.1030391,13.2021591 14.0906296,13.0938583 14.0883733,13.0701675 C14.0849889,13.0509893 14.1233455,12.7294713 14.1233455,12.6944992 C14.1233455,12.6629114 14.127858,12.5027165 14.1301143,12.4147221 C14.1323705,12.3233433 14.0150447,11.990544 14.0150447,11.9657251 C14.0150447,11.9431624 13.9326909,11.8709619 13.72173,11.6983575 C13.5085128,11.5302657 13.661939,11.406171 13.6743484,11.3396111 C13.6867579,11.2730513 13.9168971,10.8127729 13.9168971,10.8127729 L13.9033595,10.7744164 C13.9033595,10.7744164 13.8390559,10.7484693 13.8221339,10.7360599 C13.8040837,10.7247785 13.6630671,10.5025363 13.6472732,10.466436 C13.6337356,10.4292076 13.6822454,10.3231631 13.6969111,10.3231631 C13.7115768,10.3209068 13.6472732,9.1476483 13.6472732,9.1476483 C13.6472732,9.1476483 13.6359919,7.9664927 13.6359919,7.858192 C13.6359919,7.748763 13.7815211,7.6257965 13.8548497,7.6348216 C13.9823288,7.6494873 14.110936,7.8491669 14.110936,7.8491669 L14.22939,7.748763 C14.22939,7.748763 14.4234289,7.2140279 14.458401,7.138443 C14.4956294,7.0617299 14.6411586,6.2562428 14.6411586,6.2562428 C14.6411586,6.2562428 14.8047379,5.4800871 14.8126349,5.4428587 C14.8239162,5.4067584 14.847607,5.2375384 14.847607,5.2375384 L14.881451,4.5245582 C14.881451,4.5245582 14.8047379,4.700547 14.7652533,4.8438199 C14.7268967,4.9859647 14.8013535,5.3887083 14.8013535,5.3887083 C14.8013535,5.3887083 14.7054622,5.2138476 14.6795151,4.9690427 C14.6490555,4.7276222 14.8938605,4.2865221 14.9389858,4.2041684 C14.982983,4.1218147 15.2131222,3.9886949 15.2300442,3.9401852 C15.2435818,3.8928036 15.3563951,3.7168148 15.5470496,3.4347815 C15.7377041,3.1538763 15.9813809,2.8143082 16.320949,2.6371913 C16.6605171,2.4578181 17.1636645,1.9309799 17.5370766,1.7403254 C17.9138731,1.5496709 18.9404744,1.364657 19.2067138,1.3432225 C19.4729533,1.3229161 20.4036632,1.466189 20.4600699,1.4379857 C20.5164765,1.4109105 20.6845684,1.3590164 20.7973817,1.3003534 C20.9135794,1.2439468 21.0083426,1.3071222 21.1098746,1.2924565 C21.2125347,1.2777908 21.9762809,0.9720667 22.2075483,0.8739191 C22.4365593,0.7780277 22.975807,0.932582 23.3074782,0.9901168 C23.6436619,1.0476516 24.2393162,1.4041417 24.3487451,1.5586959 C24.4593022,1.7121221 24.8293299,1.8317042 24.9556808,2.0178462 C25.0797755,2.2062444 25.6991206,2.3359797 25.9213629,2.5649908 C26.1413489,2.7906174 26.5621426,3.6446143 26.6411119,3.7743496 C26.7189531,3.9052131 27.2886604,4.9498645 27.2886604,4.9498645 C27.2886604,4.9498645 27.5300809,5.3582487 27.5413622,5.3819395 C27.5548998,5.4067584 27.6733538,5.5974129 27.6947883,5.5692096 C27.7162229,5.5421344 27.980206,5.2330259 27.980206,5.2330259 C27.980206,5.2330259 27.7636045,5.5026498 27.7613482,5.5331093 C27.7590919,5.5635689 27.6767382,5.7203795 27.6586881,5.7655048 C27.6395098,5.8128864 27.6225878,5.9144184 27.6225878,5.9144184 C27.6225878,5.9144184 28.4461251,6.0080534 28.470944,6.0057972 C28.5002755,6.0035409 28.7913338,6.1276356 28.7913338,6.1276356 L29.0880329,6.2032205 C29.0880329,6.2032205 29.5404143,6.2900868 29.630665,6.3239308 C29.7164031,6.3555185 30.3820017,7.0414235 30.4169738,7.1023427 C30.4508178,7.1621337 30.6008596,7.4644735 30.6437286,7.5739024 C30.6854696,7.6822032 30.7542857,8.1616598 30.7542857,8.1616598 L30.6877258,8.6614228 C30.6877258,8.6614228 30.6911102,8.8272584 30.7903859,8.9987347 C30.8907898,9.1724672 31.0329346,9.4635256 31.0329346,9.4635256 C31.0329346,9.4635256 31.1355947,9.9847231 31.1231852,10.2216311 C31.1096476,10.4630516 31.3003022,10.6830376 31.3217367,10.7056003 C31.3420431,10.7315473 31.451472,10.9097924 31.502238,11.0135806 C31.5552603,11.1151126 31.5913605,11.4524245 31.5687979,11.3610457 C31.5484915,11.270795 31.400706,11.0891656 31.3510682,11.0090681 C31.3025584,10.9312269 31.3172242,11.2832045 31.3172242,11.2832045 C31.3172242,11.2832045 31.4729066,11.7818394 31.5338257,11.8540399 C31.5936168,11.9262404 32.3630037,12.4835382 32.4566387,12.5783014 C32.5514019,12.6719365 32.8842012,12.862591 32.9067639,12.8693598 C32.9315828,12.8738723 33.1041872,12.8806411 33.127878,12.8738723 C33.1538251,12.8693598 33.330942,12.710293 33.330942,12.710293 L33.2373069,12.8806411 C33.2373069,12.8806411 33.246332,12.8840255 33.3771955,12.8264907 C33.5069308,12.7666997 33.3805799,12.8840255 33.2892011,12.9833013 C33.195566,13.082577 33.1775159,13.0476049 33.1775159,13.0476049 C33.1775159,13.0476049 33.2892011,13.210056 33.2892011,13.2382594 C33.2892011,13.2653346 33.3568891,13.4277858 33.3941175,13.5507523 C33.4336021,13.6771032 33.3805799,13.8609889 33.3918612,13.7368943 C33.4020144,13.6139277 33.2914573,13.4198888 33.2508445,13.3014348 C33.2136161,13.1829809 33.0816246,13.1096522 33.0816246,13.1096522 C33.0816246,13.1096522 32.9767082,13.0769363 32.8458447,13.0408361 C32.7161094,13.0047358 32.5040203,12.7802373 32.5040203,12.7802373 C32.5040203,12.7802373 32.5514019,12.8986913 32.6314994,13.2258499 C32.712725,13.5507523 32.7431846,13.8034541 32.7115968,13.9704179 C32.6766247,14.1362534 32.5818615,14.3618801 32.5818615,14.3618801 C32.5818615,14.3618801 32.5705802,14.7116014 32.492739,14.9259467 C32.4148978,15.140292 32.5085329,15.2824368 32.5085329,15.3286903 C32.5085329,15.3772 32.5107891,15.5554451 32.5164298,15.6084673 C32.5231986,15.6592333 32.6168337,15.7968656 32.8289227,15.9344978 C33.0410118,16.0732582 33.1809003,16.2526314 33.3354545,16.452311 C33.4888807,16.6519906 33.661485,17.0457091 33.6750226,17.1641631 C33.686304,17.2837452 33.7054822,17.688745 33.7156354,17.7349985 C33.7246605,17.7835082 33.7212761,18.2099426 33.7212761,18.2099426 L33.6366661,17.6266977 L33.4539085,18.0057505 C33.4539085,18.0057505 33.6310254,18.179483 33.720148,18.2686055 C33.7528638,18.3024495 33.7742984,18.3216278 33.7742984,18.3216278 C33.7742984,18.3216278 34.1962202,18.7706248 34.3180586,18.9646637 C34.439897,19.1587026 34.6373203,19.5828807 34.6835738,19.7554851 C34.7332116,19.9269614 34.8054121,20.6230196 34.8054121,20.6230196 L34.9678633,20.8666963 C34.9678633,20.8666963 35.0321669,21.0878105 35.0569859,21.2480054 C35.0784204,21.4082003 34.990426,21.6744397 34.990426,21.6744397 C34.990426,21.6744397 34.9678633,21.6530052 34.9960667,21.5029635 C35.0276544,21.3495374 34.8234623,20.923103 34.8234623,20.923103 C34.8234623,20.923103 34.7512617,21.4352755 34.584298,21.7285901 C34.4184624,22.0230329 34.2605238,22.3016818 34.0992007,22.4551079 C33.932237,22.6119185 33.796861,22.6468906 33.796861,22.6468906 L33.9006493,22.5216678 L34.0202314,22.3592166 C34.0202314,22.3592166 33.872446,22.4799269 33.7280449,22.5566399 C33.5723625,22.6389937 33.4200645,22.6762221 33.4200645,22.6762221 C33.4200645,22.6762221 33.3568891,22.6604282 33.4234489,22.6198154 C33.4888807,22.5848433 33.4369865,22.5092583 33.4369865,22.5092583 L33.1188529,22.4551079 L32.9541455,22.4223921 L32.5198142,22.5024895 C32.5198142,22.5024895 32.5254549,23.0078932 32.4746889,23.1895227 C32.4239229,23.3711521 32.2874188,23.768255 32.1351208,23.9859848 C31.9839509,24.2025863 31.6285889,23.8325586 31.6285889,23.8325586 C31.6285889,23.8325586 31.7019176,25.360051 31.7019176,26.3426551 C31.7019176,27.3286435 31.4413188,28.8617766 31.1863607,29.9673472 C30.9336589,31.0729178 30.5512217,33.1723737 30.393283,34.1561059 C30.2330881,35.1398381 30.2759572,36.2172053 30.2759572,36.2172053 L30.2759572,36.4213975 C30.2759572,36.4213975 30.3052886,36.9843359 30.2985198,37.1208401 C30.2883666,37.2584723 30.2105255,37.6206031 30.1529907,37.8022325 C30.0943277,37.983862 30.0875589,38.5761319 30.0875589,38.6494606 C30.0875589,38.7216611 30.1101216,39.0375384 30.1529907,39.2259367 C30.1947316,39.4143349 30.4079488,39.8768696 30.3774892,40.1160338 C30.3470296,40.3551981 30.0582275,40.6304626 30.0582275,40.6304626 L30.0221272,40.9779276 L30.0006927,41.8307963 L29.9882832,42.1421611 C29.9882832,42.1421611 29.9623361,42.3147655 29.9578236,42.5922863 C29.9487985,42.8652945 29.9149545,45.2524245 29.8495228,46.0838587 C29.7852192,46.9175491 29.7186594,48.7530219 29.7626566,49.549484 C29.8043975,50.345946 29.8190632,51.3860849 29.7626566,51.7482157 C29.7039936,52.1092183 29.5595926,52.817686 29.5595926,52.817686 C29.5595926,52.817686 29.63969,53.0952067 29.732197,53.2023794 C29.8280883,53.3106802 29.6893279,53.5769196 29.6825591,53.7529084 C29.6746622,53.9255128 29.7626566,55.2578382 29.7761942,55.798214 C29.791988,56.3431023 29.7852192,57.542308 29.7694254,57.9416671 C29.7558878,58.33877 30.045818,59.4804409 30.045818,59.4804409 L30.1225311,59.8075995 L29.9623361,59.8719031 L30.3267232,60.8059974 L30.6222941,61.75927 C30.6222941,61.75927 30.8907898,61.005677 31.0216533,60.6175992 C31.1513886,60.2250088 31.620692,59.6474046 31.8880596,59.3067084 C32.1565553,58.9660121 32.4521262,58.7426417 32.6698559,58.541834 C32.8864575,58.33877 33.1831565,58.1797033 33.4076551,58.0996058 C33.6321536,58.0195083 34.2763177,57.880748 34.5346602,57.7826004 C34.7975152,57.6810684 35.1370833,57.7228093 35.1370833,57.7228093 C35.1370833,57.7228093 35.2386153,57.6934778 35.498086,57.593074 C35.7586847,57.4937983 36.1636846,57.7295781 36.1636846,57.7295781 C36.1636846,57.7295781 36.5980159,57.7386032 36.9443528,57.8029068 C37.2929459,57.8683385 37.581748,58.1221685 37.581748,58.1221685 C37.581748,58.1221685 38.1390459,58.245135 38.5158424,58.4324051 C38.8903826,58.6196752 39.1803128,58.8667364 39.4984464,59.0630316 C39.81658,59.2570705 40.1854796,59.6316107 40.3107024,59.8436998 C40.4325407,60.0535326 40.4539753,60.5453987 40.4697691,60.7462064 C40.4821786,60.9503985 40.7867746,61.6667631 40.9029723,61.8969023 C41.0180419,62.1270415 41.1252146,62.6425984 41.1850056,62.8309966 C41.2425404,63.0193949 41.2357716,63.3375284 41.205312,63.3961914 C41.1771087,63.4537262 41.0676798,63.6353556 41.0676798,63.6353556 L41.3000752,64.0685588 L41.4230417,64.392333 L41.1985432,64.5750906 L40.9469695,64.4148957 C40.9469695,64.4148957 40.874769,64.5513998 40.6852426,64.7612326 C40.4979725,64.9733216 40.2215798,65.1673606 40.2215798,65.1673606 L40.1347136,65.5881542 L40.1493793,66.3383629 C40.1493793,66.3383629 40.164045,67.1980004 40.1347136,67.4890588 C40.1065102,67.778989 39.8887805,68.0226658 39.8887805,68.0226658 C39.8887805,68.0226658 40.019644,67.778989 40.0771788,67.5612593 C40.1347136,67.3446577 39.9914406,66.4263572 39.9914406,66.4263572 C39.9914406,66.4263572 39.8729867,67.0829308 39.8605772,67.1619001 C39.8459115,67.2442538 39.7376107,67.8647271 39.7376107,67.8647271 L39.5717751,68.1230696 L39.5830564,67.8015517 C39.5830564,67.8015517 39.5356748,67.8579583 39.4770119,68.015897 C39.4194771,68.17722 38.7911069,68.9353256 38.7471097,68.9951166 C38.7019844,69.0503952 38.1221239,69.4700607 38.1221239,69.4700607 L38.3274441,69.667484 L38.6624997,69.929211 C38.6624997,69.929211 39.0449369,70.2078599 39.1622627,70.3150325 C39.2818448,70.4244614 39.1622627,70.4594336 39.062987,70.4594336 C38.9682238,70.4594336 38.6421933,70.6850602 38.6421933,70.6850602 L38.7504941,70.9682217 L39.1182655,71.5097256 L39.4657306,71.59772 L39.7816079,71.7071489 C39.7816079,71.7071489 40.2678333,72.3783882 40.3016773,72.4449481 C40.3355213,72.5103798 40.7800058,73.4004769 40.9108692,73.7366606 C41.0406046,74.0717162 41.1816212,75.0295013 41.1703399,75.5495708 C41.1579304,76.068512 41.0406046,76.8615897 41.0406046,76.8615897 C41.0406046,76.8615897 41.0507578,77.2293612 41.0721923,77.5012413 C41.0936268,77.7742495 40.9526102,78.7805444 40.9526102,78.7805444 L41.0823455,79.2588729 C41.0823455,79.2588729 41.2572061,79.7146387 41.3305348,80.1173822 C41.4106323,80.5189977 41.3305348,80.7897497 41.3305348,80.9736354 C41.3305348,81.1575211 41.1387522,81.7881476 41.1387522,81.7881476 C41.1387522,81.7881476 41.3869415,82.0679246 41.5166768,82.274373 C41.6486684,82.4808214 41.6249776,82.7944424 41.6148244,83.044888 C41.603543,83.2942055 41.9385986,83.6755145 42.0581807,83.9789823 C42.178891,84.281322 42.3526235,84.8577981 42.3842112,85.2142882 C42.4180552,85.5752909 42.6560914,86.1912516 42.678654,86.3762655 C42.7000886,86.5612793 42.8726929,87.0170451 42.9821219,87.2990785 C43.0904227,87.5822399 43.1231385,88.014315 43.3194337,88.439621 C43.5134726,88.860415 43.5371634,89.502323 43.5258821,89.586933 C43.5134726,89.674927 43.4807568,89.945679 43.4807568,89.945679 C43.4807568,89.945679 43.5789044,90.261556 43.567623,90.347294 C43.5563417,90.435289 43.2652833,90.673325 43.2652833,90.673325 L42.9708405,90.825623 C42.9708405,90.825623 42.6120942,91.174216 42.4823588,91.227238 C42.3526235,91.280261 42.1371501,91.204676 42.1371501,91.204676 L41.5922617,91.29267 C41.5922617,91.29267 41.060911,91.432559 40.8454375,91.432559 C40.6277078,91.432559 40.5735574,91.314105 40.5069975,91.23852 C40.4426939,91.160679 40.1922484,90.867364 40.019644,90.653019 C39.8459115,90.435289 39.553725,89.945679 39.553725,89.945679 C39.553725,89.945679 39.4770119,90.099105 39.2818448,90.294272 C39.0878059,90.489439 38.8170539,90.759063 38.5981961,90.847057 C38.3804664,90.935052 38.2405779,90.945205 38.2405779,90.945205 C38.2405779,90.945205 38.207862,91.195651 38.1841712,91.390818 C38.1661211,91.587113 37.8818315,91.976319 37.8818315,91.976319 L37.8818315,92.336193 C37.8818315,92.336193 37.741943,92.626124 37.741943,92.637405 C37.741943,92.648686 37.5670823,92.637405 37.5670823,92.637405 L37.4700629,92.93072 L37.5456478,93.52863 C37.5456478,93.52863 37.6979458,93.614368 37.8276811,93.745232 C37.9574164,93.874967 37.8175279,94.070134 37.8175279,94.070134 C37.8175279,94.070134 37.9043942,94.211151 37.9901323,94.32058 C38.0781267,94.428881 38.0341295,94.655635 38.0657172,94.723323 C38.0995612,94.788755 38.2620124,95.043713 38.2620124,95.144117 C38.2620124,95.240008 38.4255917,95.535579 38.6421933,96.088365 C38.8587949,96.640022 38.9467893,97.357514 38.9467893,97.357514 C38.9467893,97.357514 38.9772489,97.434227 39.1938504,97.781693 C39.4115802,98.128029 39.7161761,99.02828 39.7161761,99.02828 C39.7161761,99.02828 39.9553404,99.485174 39.9643654,99.775104 C39.9767749,100.068419 39.8131956,100.190257 39.8131956,100.190257 L39.9880562,100.319992 C39.9880562,100.319992 40.3118305,100.765605 40.4426939,101.261984 C40.5735574,101.765131 40.3772622,102.122749 40.248655,102.328069 C40.1189197,102.53339 40.2159392,102.858292 40.2159392,103.055715 C40.2159392,103.250882 40.0388222,103.575785 40.0388222,103.575785 C40.0388222,103.575785 40.4325407,103.836384 40.5284321,103.943556 C40.6277078,104.051857 40.6164265,104.541467 40.6051451,104.703918 C40.5938638,104.865241 40.1820952,105.45187 40.1820952,105.45187 C40.1820952,105.45187 40.3118305,106.115213 40.4765379,106.451396 C40.637861,106.78758 40.6705769,107.385491 40.6705769,107.385491 L40.5938638,107.678805 L41.3429443,108.121034 L41.3666351,108.294766 L41.9182922,108.698638 L42.0694621,108.642231 L42.6876791,108.998721 L42.7000886,109.193888 L43.0599631,109.532328 L43.4266064,109.717342 L43.6116202,109.838052 L44.5129987,110.030963 C44.5129987,110.030963 44.8807701,110.206952 44.9789177,110.258846 C45.0759372,110.312997 45.2598229,110.681896 45.2598229,110.681896 C45.2598229,110.681896 45.5001153,110.758609 45.5858534,111.01808 C45.6727196,111.280935 45.8893212,111.64645 45.2496697,112.4384 C44.6100181,113.233734 42.8422333,113.611658 42.1461751,113.710934 C41.4535013,113.806825 40.1065102,113.806825 39.6191567,113.654527 C39.130675,113.503357 37.8062466,113.678218 37.3155086,113.557508 C36.8304113,113.436797 36.3633641,113.057745 35.9719019,112.669667 C35.5804397,112.277077 35.5488519,112.138316 35.5274174,111.841617 C35.5059829,111.550559 35.7011499,111.062077 35.7011499,111.006798 C35.7011499,110.953776 35.7789911,110.496882 35.8094507,110.312997 C35.8421666,110.129111 35.8974451,109.717342 35.9719019,109.468025 C36.0474868,109.217579 36.0587682,108.870114 36.0587682,108.796785 C36.0587682,108.718944 36.2336288,108.436911 36.2336288,108.436911 L35.3762476,107.166633 C35.3762476,107.166633 35.1810805,106.917315 35.0276544,106.78758 C34.8764845,106.656717 34.7580305,106.538263 34.432,106.361146 C34.1070977,106.190798 33.8995212,105.995631 33.8340894,105.865895 C33.7686577,105.73616 34.2571394,105.226244 34.2571394,105.226244 L34.2684207,105.081843 C34.2684207,105.081843 33.813783,104.388041 33.7788109,104.160158 C33.7472232,103.932275 33.6930728,102.631537 33.6930728,102.631537 L32.7928224,102.989156 C32.7928224,102.989156 33.4448835,103.63896 33.5531842,103.779977 C33.661485,103.922122 33.5103152,104.388041 33.2813041,104.692637 C33.0534212,104.999489 32.8684074,105.474433 32.6202181,105.636884 C32.3686443,105.798207 31.9580038,106.223514 31.5665416,106.361146 C31.1762075,106.503291 31.1762075,106.374683 31.1762075,106.374683 C31.1762075,106.374683 30.7644389,106.319405 30.4508178,106.301355 C30.1349405,106.276536 30.1022247,106.233667 30.1022247,106.233667 C30.1022247,106.233667 29.9826425,106.994029 29.9724893,107.157608 C29.961208,107.318931 29.8856231,108.013861 29.6893279,108.175184 C29.4941608,108.339892 29.3080189,108.209028 29.3080189,108.209028 L29.4197041,108.458346 L29.2775593,108.642231 L29.732197,109.164557 L29.8641886,109.054 L30.4508178,109.554891 L30.427127,109.80308 L30.5139933,110.072704 L30.9641185,110.483345 C30.9641185,110.483345 31.1423635,110.810503 31.3454275,110.810503 C31.5484915,110.810503 31.8700095,110.769891 32.1599397,111.044027 C32.4476137,111.319291 32.4622794,111.661116 32.5344799,112.209389 C32.6066805,112.756533 32.1136862,113.062257 31.5642853,113.106254 C31.0148845,113.150252 29.7400939,113.106254 28.9740914,112.944931 C28.208089,112.788121 25.0820317,111.849514 25.0820317,111.849514 L25.168898,112.252258 C25.168898,112.252258 25.1260289,112.876115 24.9094274,113.424388 C24.6916976,113.973789 23.2443027,114.637131 22.7671023,114.727382 C22.289902,114.81312 18.8897084,114.525446 18.8897084,114.525446 C18.8897084,114.525446 18.5715748,114.597647 18.4429676,114.709332 C18.310976,114.827786 17.6171741,115.246323 17.5438454,115.30273 C17.4716449,115.363649 17.1241799,115.477591 16.9369098,115.579123 C16.7485115,115.681783 15.6057125,115.708858 15.3879828,115.752855 C15.1702531,115.796852 14.22939,115.827312 13.6822454,115.767521 C13.1317163,115.708858 8.58872378,115.50805 8.38565979,115.50805 C8.18259581,115.50805 8.3518158,115.44149 8.09798582,115.328677 L8.09798582,115.328677 L8.09798582,115.328677 Z M19.4278279,110.240796 L19.6590953,110.536367 C19.6590953,110.536367 20.1825491,110.499139 20.3111563,110.562314 C20.4352509,110.625489 20.8222006,110.88496 20.884248,111.01808 C20.9462953,111.1512 20.9530641,111.436617 21.0658774,111.493024 C21.1786907,111.550559 21.6254315,111.621631 21.6254315,111.621631 C21.6254315,111.621631 22.1297071,111.47723 22.7377709,111.458052 C23.3458347,111.436617 23.830932,111.409542 23.830932,111.409542 C23.830932,111.409542 22.9611413,110.829682 22.9261691,110.625489 C22.891197,110.424682 22.8223809,110.120086 22.9058627,109.968916 C22.9904727,109.81549 22.8426873,109.85159 23.0705702,109.645142 C23.2916843,109.445462 23.3458347,109.296549 23.3458347,109.263833 C23.3458347,109.226604 23.941489,107.771312 24.0125614,107.681062 C24.0813776,107.588555 24.3848454,106.875575 24.5032994,106.869934 C24.6217534,106.864293 24.635291,106.855268 24.635291,106.855268 C24.635291,106.855268 24.9218368,106.022706 25.1384384,105.531968 C25.3539119,105.042358 25.3403743,104.803194 25.3539119,104.749043 C25.3685776,104.69038 25.2501236,103.343389 25.2850957,103.118891 C25.3189397,102.894392 25.2568924,102.746607 25.4531876,102.726301 C25.6494828,102.704866 26.4876858,102.768041 26.4876858,102.768041 C26.4876858,102.768041 27.091237,101.241677 27.336042,100.955131 C27.5797187,100.669714 28.1686043,100.221845 28.1686043,100.221845 C28.1686043,100.221845 27.818883,99.485174 28.09866,99.361079 C28.3784371,99.234728 29.224537,99.17945 29.224537,99.17945 L29.4332417,98.667277 C29.4332417,98.667277 28.6864174,97.878712 28.5329913,97.585397 C28.3784371,97.288698 28.3931028,97.092403 28.5611947,96.909646 C28.7281584,96.728016 28.8319466,96.552027 28.8319466,96.552027 C28.8319466,96.552027 28.4551501,96.245175 28.3852059,95.86161 C28.3141335,95.476916 28.2859301,95.097864 28.2859301,95.097864 C28.2859301,95.097864 27.9091336,94.872237 27.5943845,94.265301 C27.2796353,93.657237 26.5463487,91.83643 26.5463487,91.83643 L26.3421566,90.844801 L26.0420731,90.514258 L26.0116135,90.32586 L26.007101,90.191612 C26.007101,90.191612 25.5863073,90.117155 25.2444829,89.870094 C24.9004023,89.625289 24.6916976,89.150345 24.7187728,88.528744 C24.7345667,88.176766 24.8631739,87.4604015 25.1136195,86.7733684 C25.3121709,86.2408895 25.6145106,85.7478952 25.7826025,85.3553049 C26.1672959,84.4697203 26.3838975,84.0703611 26.3838975,84.0703611 C26.3838975,84.0703611 26.5113766,83.1261136 26.6648027,82.8170051 C26.8182288,82.5124091 27.0258053,81.7610724 27.0258053,81.5862117 C27.0258053,81.4090948 26.8678667,81.0898331 26.8802761,80.9691228 C26.8938137,80.8506689 26.9242733,80.5855575 27.2232286,80.3328557 C27.5255683,80.0824101 28.1956795,79.4517836 28.1956795,79.4517836 C28.1956795,79.4517836 28.2385486,78.4669233 28.3209023,78.1623273 C28.4055123,77.863372 28.4551501,77.5339571 28.4551501,77.5339571 C28.4551501,77.5339571 27.9023648,76.3584423 27.8752896,76.0922028 C27.8470863,75.8248353 27.9305682,75.5676209 27.946362,75.4954204 C27.9587715,75.4266042 27.9858467,75.2573842 27.9858467,75.2573842 C27.9858467,75.2573842 27.1803596,73.9589029 27.1532844,73.6430256 C27.1262092,73.3294045 27.1194404,73.028193 27.2536882,72.7044187 C27.3856798,72.3829008 27.5030057,72.0907142 27.5030057,72.0907142 C27.5030057,72.0907142 27.2299974,71.1035977 27.2660977,70.5508124 C27.3010698,69.996899 27.5594123,69.5208267 27.5594123,69.5208267 L27.5097745,67.9267745 L27.8121142,67.346914 L27.9305682,67.1066216 C27.9305682,67.1066216 27.6225878,66.7738223 27.7816546,66.5188642 C27.946362,66.2650342 28.301724,65.7844494 28.301724,65.7844494 L28.301724,65.3715527 C28.301724,65.3715527 27.937337,65.3715527 27.8470863,65.2790457 C27.7557075,65.1910513 27.6372535,64.9733216 27.6372535,64.9733216 C27.6372535,64.9733216 27.2232286,65.839728 27.091237,66.0495607 C26.9569892,66.2593935 26.7426439,66.5188642 26.6219336,66.5267611 C26.5012234,66.5335299 26.2237026,66.3519005 26.1672959,66.2311902 C26.1108893,66.1149925 25.9980759,65.916441 26.1876023,65.6321514 C26.3782568,65.3433493 26.7618221,64.790564 26.8328945,64.6021658 C26.9017107,64.4126394 27.0551368,63.8384196 27.0551368,63.7639628 C27.0551368,63.6872497 27.1735908,63.1344645 27.1735908,63.1344645 C27.1735908,63.1344645 27.1882565,62.9280161 27.1882565,62.8964283 C27.1882565,62.8614562 27.1735908,62.783615 27.2085629,62.7463866 C27.2446632,62.7125426 27.2660977,62.6629048 27.2660977,62.6629048 L27.099134,62.6008574 C27.099134,62.6008574 26.9163764,63.181846 26.8520728,63.3905507 C26.7900255,63.6015116 26.6772121,63.8068319 26.6569058,63.8948263 C26.6354712,63.9873332 26.5463487,64.2524445 26.3421566,64.3742829 C26.1402207,64.4916087 25.9382849,64.5322215 25.7747056,64.392333 C25.6145106,64.2524445 25.6404577,64.2524445 25.6709173,64.0437398 C25.6968644,63.8316508 25.8931595,63.0419575 25.922491,62.9720133 C25.9506943,62.9031971 25.9980759,62.2285735 25.9980759,62.1879607 C25.9980759,62.1462197 26.0116135,61.801011 26.0116135,61.801011 C26.0116135,61.801011 25.9980759,61.4050362 25.9777695,61.3553983 C25.9574631,61.3057605 25.7600398,60.7732816 25.7329646,60.6266243 C25.7058894,60.4810951 25.6709173,60.1302456 25.6709173,60.1302456 L25.5366694,60.0546607 C25.5366694,60.0546607 25.3403743,59.9486162 25.3843715,59.8008307 C25.422728,59.6564297 25.5299006,58.465121 25.5299006,58.465121 L25.5558477,57.9901769 L25.3493993,58.1086309 L25.2568924,57.863826 C25.2568924,57.863826 24.8293299,58.1842158 24.8293299,58.2203161 C24.8293299,58.2552882 24.7751795,58.380511 24.8033828,58.4290207 C24.8293299,58.4797867 24.9703466,58.583575 24.9782435,58.702029 C24.982756,58.8216111 25.1034663,58.9693965 25.1170039,59.0472377 C25.1316696,59.1228227 25.033522,59.4240342 24.9703466,59.4183936 C24.9094274,59.4104966 24.8518926,59.4104966 24.8518926,59.4104966 C24.8518926,59.4104966 24.8293299,60.6063179 24.872199,60.8454821 C24.9139399,61.081262 24.9974218,62.0345345 24.9477839,62.537682 C24.9004023,63.0419575 25.0470596,63.7335032 24.956809,64.0076396 C24.864302,64.2806478 24.6273941,65.9446444 24.5518091,66.8347415 C24.4750961,67.7214542 24.15245,69.0932642 24.000152,70.0104365 C23.8444696,70.9276089 23.6335087,71.8650876 23.5003889,72.4607419 C23.3683974,73.0563963 23.0536482,74.4124125 22.8426873,75.068986 C22.6328545,75.7300721 21.9187461,77.363609 21.9187461,77.363609 C21.9187461,77.363609 21.7438855,79.0163242 21.5329246,80.1038446 C21.3253481,81.1868526 21.2272005,81.902089 21.0105989,82.8113644 C20.7928692,83.7195117 20.5841645,84.7765725 20.4217133,85.1815724 C20.2615184,85.5877003 20.2197775,85.847171 19.7132457,86.5703044 C19.2100982,87.2889253 18.3380512,88.248967 18.3380512,88.248967 C18.3380512,88.248967 18.6020344,89.144704 18.6020344,90.01788 C18.6020344,90.893311 18.4768116,93.747488 18.4621459,94.474006 C18.4486083,95.205036 18.2399036,98.301762 18.2399036,99.186218 C18.2399036,100.065034 18.0278146,102.383348 17.9578703,102.809782 C17.8890542,103.238473 17.6363524,103.461843 17.3498065,103.999963 C17.0632607,104.539211 16.5883166,105.244294 16.5522163,105.272497 C16.5172442,105.300701 16.0908098,105.832051 16.0908098,105.832051 C16.0908098,105.832051 16.3559211,106.133263 16.4608375,106.336327 C16.5668821,106.540519 16.6729266,106.624001 16.7000018,106.652204 C16.727077,106.679279 17.0000852,106.972594 17.5325641,107.378722 C18.0627867,107.785978 18.6313659,108.485421 18.7983296,108.758429 C18.9675496,109.031437 19.1266164,109.183735 19.1266164,109.183735 C19.1266164,109.183735 19.3082458,109.234501 19.436853,109.577454 C19.5598195,109.920406 19.5823822,110.089626 19.5688446,110.095267 C19.555307,110.102036 19.4278279,110.240796 19.4278279,110.240796 L19.4278279,110.240796 L19.4278279,110.240796 Z M24.9816279,54.0642732 C24.9816279,54.0642732 24.9286056,53.7506522 24.9195806,53.4539531 C24.9105555,53.1606385 24.9974218,52.725179 24.9974218,52.725179 C24.9974218,52.725179 24.6589818,52.8910146 24.6070877,53.1087443 C24.5551935,53.3264741 24.4931462,53.4122122 24.5461685,53.5081035 C24.5991907,53.6028667 24.6680068,53.8544404 24.6680068,53.8544404 L24.9816279,54.0642732 L24.9816279,54.0642732 Z M25.5975886,56.9353723 C25.6145106,56.8597874 25.710402,56.2065982 25.710402,56.2065982 C25.710402,56.2065982 25.6235357,56.3713057 25.5975886,56.4942722 C25.5705134,56.6149825 25.2320735,56.9353723 25.2320735,56.9353723 L25.5366694,57.1801772 C25.5366694,57.1801772 25.5784104,57.0154698 25.5975886,56.9353723 L25.5975886,56.9353723 L25.5975886,56.9353723 Z M31.8124747,23.768255 C31.8124747,23.768255 31.934313,23.2639795 31.951235,23.1680882 C31.968157,23.0721968 32.0042573,22.6908878 32.0042573,22.6908878 L31.9941041,22.4144952 L31.8384217,22.4223921 C31.8384217,22.4223921 31.7335053,22.9605116 31.6895081,23.08235 C31.6477672,23.2041884 31.5428508,23.3790491 31.5428508,23.3790491 L31.6477672,23.6554417 L31.7775025,23.7942021 L31.8124747,23.768255 L31.8124747,23.768255 Z M31.4988536,23.2211104 L31.637614,23.0203027 L31.7335053,22.5521274 L31.553004,22.4223921 C31.553004,22.4223921 30.900943,21.9869327 30.7272105,21.8594536 C30.553478,21.727462 30.3210825,21.3281028 30.1292999,21.1205263 C29.9386453,20.9129498 29.7626566,20.8599275 29.7626566,20.8599275 L29.7197875,21.0596071 L29.7130187,20.8080334 L29.4772389,20.686195 L29.3125314,20.7380892 L29.3993977,20.9129498 L29.876598,21.2423647 L30.9539653,22.1967654 L31.4988536,23.0981439 L31.4988536,23.2211104 L31.4988536,23.2211104 Z M32.7059562,22.2114312 C32.7510815,22.1990217 32.9541455,22.1899966 32.9541455,22.1899966 L32.8379478,22.1098992 C32.8379478,22.1098992 33.1470563,22.1414869 33.4572929,22.0771833 C33.7686577,22.0106235 34.1533511,21.4894259 34.1533511,21.4894259 C34.1533511,21.4894259 33.9299807,21.87976 33.6750226,22.0478519 C33.4234489,22.2114312 33.1684908,22.3445509 33.1684908,22.3445509 C33.1684908,22.3445509 33.7043541,22.3648573 33.7336856,22.3648573 C33.7618889,22.3648573 34.1319166,22.1324618 34.2830865,21.8143283 C34.4353844,21.4961947 34.4432814,20.7155265 34.4432814,20.7155265 C34.4432814,20.7155265 34.0800225,21.3156934 33.7900922,21.5909579 C33.500162,21.8662224 32.6066805,21.7703311 32.6066805,21.7703311 L32.5920147,22.1990217 C32.5920147,22.1990217 32.6642153,22.2283532 32.7059562,22.2114312 L32.7059562,22.2114312 L32.7059562,22.2114312 Z M32.6642153,21.5627546 C32.6642153,21.5627546 32.7567222,21.4544538 32.7995912,21.430763 C32.8447166,21.4104566 32.9800926,21.3314872 32.9800926,21.3314872 L33.0692151,21.3585624 L32.8717918,21.5695234 C32.8717918,21.5695234 33.3433515,21.6056236 33.661485,21.4961947 C33.9784905,21.3878939 34.1826826,20.9749971 34.2977522,20.8452618 C34.4128218,20.7155265 34.398156,20.6060976 34.398156,20.6060976 C34.398156,20.6060976 34.3191867,20.3330893 34.2469862,20.1649975 C34.1747857,20.00029 33.7472232,19.7396912 33.7472232,19.7396912 C33.7472232,19.7396912 33.6896884,20.2732983 33.3839643,20.686195 C33.0816246,21.0979637 32.6123211,21.2006238 32.6123211,21.2006238 L32.6066805,21.5390638 L32.6642153,21.5627546 L32.6642153,21.5627546 Z M34.3767215,21.7421277 L34.499688,21.5695234 C34.499688,21.5695234 34.6226546,21.2660555 34.6531142,21.0844261 C34.6801894,20.9027966 34.60122,20.4842592 34.60122,20.4842592 L34.507585,20.5045656 C34.507585,20.5045656 34.550454,20.7324485 34.558351,20.8802339 C34.5651198,21.0359163 34.4286156,21.5988548 34.4286156,21.5988548 L34.3767215,21.7421277 L34.3767215,21.7421277 Z M34.550454,20.2010977 C34.550454,20.1875601 34.2921115,19.449761 34.2323205,19.3549978 C34.1747857,19.2613627 33.3354545,18.1760986 33.3354545,18.1760986 L33.0026552,18.6747335 L33.5531842,19.2320313 C33.5531842,19.2320313 33.6095909,19.1823934 33.6095909,19.1011678 C33.6095909,19.0221985 33.6321536,18.8349284 33.6321536,18.8349284 L33.6682538,19.2816691 L33.9299807,19.5433961 C33.9886437,19.602059 34.3767215,20.1582287 34.3767215,20.1582287 L34.4353844,20.25412 C34.4353844,20.25412 34.550454,20.2157635 34.550454,20.2010977 L34.550454,20.2010977 L34.550454,20.2010977 Z M32.5389925,20.5936881 L32.8221539,20.4413901 C32.8221539,20.4413901 32.6484214,20.3601645 32.5468894,20.3466269 C32.4476137,20.3330893 32.2084494,20.2732983 32.2084494,20.2732983 L32.3302878,20.6591198 L32.5389925,20.5936881 L32.5389925,20.5936881 Z M31.4616252,20.4267244 L31.1423635,20.0995657 C31.1423635,20.0995657 31.1728231,20.3601645 31.1863607,20.4120587 C31.2010264,20.4616965 31.3386587,20.5699973 31.3386587,20.5699973 L31.4616252,20.4267244 L31.4616252,20.4267244 Z M32.8864575,20.7662925 C32.8864575,20.7662925 33.1470563,20.5936881 33.3072512,20.4120587 C33.4674461,20.2304292 33.5531842,19.940499 33.5531842,19.940499 C33.5531842,19.940499 33.4076551,20.0645936 33.3512484,20.1446911 C33.2914573,20.2236604 32.8289227,20.6489666 32.8289227,20.6489666 L32.8864575,20.7662925 L32.8864575,20.7662925 Z M32.9090202,20.3601645 L32.9744519,20.33873 L33.4234489,19.8976299 L33.4798556,19.652825 C33.4798556,19.652825 33.3794517,19.5794963 33.2914573,19.5219615 C33.2057192,19.4621705 32.6393963,19.3279226 32.6393963,19.3279226 L32.6924186,19.5873933 L32.6484214,20.0724905 L32.6551902,19.7690227 L32.5547863,19.2906942 C32.5547863,19.2906942 32.272753,19.2388001 32.128352,19.1733684 C31.9839509,19.1101929 31.5789511,18.9342041 31.5789511,18.9342041 C31.5789511,18.9342041 31.823756,19.551293 31.8519593,19.6155966 C31.8812908,19.6799002 32.4171541,19.940499 32.4171541,19.940499 L32.5254549,20.1277691 L32.1723492,19.9337302 L32.1768617,20.1649975 L32.8717918,20.3691896 L32.9090202,20.3601645 L32.9090202,20.3601645 Z M33.4956495,19.4700674 L33.4798556,19.2252625 C33.4798556,19.2252625 32.9676831,18.848466 32.9541455,18.7988281 C32.9372235,18.746934 32.8808168,18.8202627 32.8808168,18.8202627 L32.5198142,19.0955272 L32.6337557,19.2388001 L32.9800926,19.348229 L33.4572929,19.4982707 L33.4956495,19.4700674 L33.4956495,19.4700674 Z M32.4171541,18.9511261 L32.3900789,18.8552348 C32.3900789,18.8552348 32.272753,18.256196 32.272753,18.154664 C32.272753,18.0553883 32.2941876,17.9290374 32.28065,17.9527282 C32.2659842,17.9741627 31.6940207,18.6905273 31.6940207,18.6905273 L31.8023215,18.8281596 L32.1858868,18.959023 L32.4171541,18.9511261 L32.4171541,18.9511261 Z M32.6337557,18.9150258 L32.8717918,18.6679647 C32.8717918,18.6679647 32.6698559,18.2482991 32.6698559,18.1253326 C32.6698559,18.0012379 32.7059562,17.8286335 32.7059562,17.8286335 L32.4521262,17.6774637 C32.4521262,17.6774637 32.3505942,17.9290374 32.3505942,18.1196919 C32.3505942,18.3058339 32.4024883,18.6532989 32.4024883,18.6532989 L32.4746889,18.8202627 L32.6337557,18.9150258 L32.6337557,18.9150258 Z M33.3715548,17.8872965 C33.3715548,17.8872965 33.4572929,17.6266977 33.4956495,17.4676309 C33.5294934,17.3063078 33.4956495,17.0129932 33.3286857,16.6993722 C33.1628501,16.3891355 32.6766247,16.1228961 32.6766247,16.1228961 C32.6766247,16.1228961 32.6551902,16.3022693 32.6484214,16.3970325 C32.6393963,16.4917956 32.7420564,16.8742328 32.7567222,16.9475615 C32.772516,17.019762 32.772516,17.6627979 32.772516,17.6627979 L33.2993543,17.9098591 L33.3715548,17.8872965 L33.3715548,17.8872965 Z M33.1256217,18.3938283 L33.2711509,18.1196919 L32.772516,17.8500681 C32.772516,17.8500681 32.7420564,18.061029 32.7420564,18.1603047 C32.7420564,18.2629648 32.9236859,18.5393575 32.9236859,18.5393575 L33.1256217,18.3938283 L33.1256217,18.3938283 Z M32.577349,17.265695 C32.5683239,17.1777007 32.5198142,16.867464 32.5198142,16.867464 C32.5198142,16.867464 32.4961234,17.0265308 32.5040203,17.1483692 C32.5107891,17.2702076 32.4746889,17.5341908 32.4746889,17.5341908 L32.6337557,17.6131601 C32.6337557,17.6131601 32.5818615,17.3525613 32.577349,17.265695 L32.577349,17.265695 L32.577349,17.265695 Z M31.8598563,21.5334231 L31.8474468,21.4104566 L31.6725861,21.4036878 L31.8598563,21.5334231 L31.8598563,21.5334231 Z M32.577349,13.8948329 C32.577349,13.8948329 32.5965273,13.6342341 32.5683239,13.5620336 C32.5389925,13.488705 32.3302878,13.0983709 32.2874188,13.0171453 C32.2445497,12.9381759 31.8474468,12.5850702 31.8474468,12.5850702 C31.8474468,12.5850702 32.4825858,13.9004736 32.4893546,13.9591365 C32.4961234,14.0155432 32.5547863,14.0877437 32.5547863,14.0877437 L32.577349,13.8948329 L32.577349,13.8948329 Z M30.6087565,8.3308798 C30.6087565,8.3308798 30.6369598,8.0646403 30.6155253,7.9845429 C30.5940908,7.9044454 30.4192301,7.5998494 30.3549265,7.5558522 C30.2883666,7.5129832 30.0728932,7.3911448 30.0728932,7.3911448 L30.045818,7.4915487 L30.5726562,8.4042084 L30.6087565,8.3308798 L30.6087565,8.3308798 Z M27.2017941,5.7271483 C27.2017941,5.8399616 27.1273373,5.5793628 27.0788276,5.3514799 C27.048368,5.2138476 26.8610979,4.8878171 26.8610979,4.8878171 C26.8610979,4.8878171 26.7967943,5.0829842 26.81146,5.1416471 C26.8261257,5.1980538 27.0720588,5.7993488 27.0720588,5.7993488 C27.0720588,5.7993488 27.2017941,5.7700173 27.2017941,5.7271483 L27.2017941,5.7271483 L27.2017941,5.7271483 Z M15.0123144,4.9385831 L15.1420498,4.4388201 L15.0202114,4.488458 L15.0123144,4.9385831 L15.0123144,4.9385831 Z M24.9286056,18.4073659 C24.9286056,18.3475748 24.7571294,17.9561126 24.7232854,17.8827839 C24.6838007,17.8128397 24.5664749,17.3491769 24.5427841,17.1641631 C24.5190933,16.9814055 24.5630905,16.5955839 24.5800125,16.4297483 C24.5991907,16.2639127 24.982756,15.4550412 24.982756,15.4550412 L24.6984664,15.6874366 L24.3058761,15.995417 L24.2889541,17.1416004 L24.2991073,18.1941487 L24.9466558,18.5957641 C24.9466558,18.5957641 24.9286056,18.4671569 24.9286056,18.4073659 L24.9286056,18.4073659 L24.9286056,18.4073659 Z M24.2945947,15.918704 C24.2945947,15.918704 24.5551935,15.7607653 24.7751795,15.54642 C24.9940374,15.3320747 25.0775192,15.1831611 25.1316696,15.0647071 C25.18582,14.9462531 25.3685776,14.5604315 25.3685776,14.5604315 L25.3460149,14.2456824 L25.3922684,13.8350419 C25.3922684,13.8350419 25.2388423,14.1610724 25.1903325,14.234401 C25.1429509,14.3043453 24.7751795,14.7386766 24.7751795,14.7386766 L24.6838007,14.8277991 C24.6838007,14.8277991 25.024497,14.3878272 25.0651097,14.2637325 C25.1091069,14.1385097 25.1497197,13.9963649 25.1497197,13.9963649 L24.9049148,13.9196519 C24.9049148,13.9196519 24.7751795,14.1509192 24.7232854,14.1983008 C24.6680068,14.2456824 24.5157089,14.4239274 24.5157089,14.4239274 C24.5157089,14.4239274 24.6510848,14.1261002 24.6838007,14.0674373 C24.7232854,14.0065181 24.8225611,13.8542201 24.8225611,13.8542201 C24.8225611,13.8542201 24.6680068,13.9128831 24.6341629,13.937702 C24.5991907,13.9602647 24.3656671,14.1858913 24.3600265,14.2806545 C24.3532577,14.3754177 24.3780766,14.8345679 24.3780766,14.8345679 C24.3780766,14.8345679 24.4615585,14.7093451 24.4356114,14.7792894 C24.4130487,14.8503618 24.3656671,15.0229662 24.3600265,15.0647071 C24.3532577,15.1075762 24.3487451,15.2598741 24.3419763,15.3128964 C24.3352075,15.3681749 24.2945947,15.918704 24.2945947,15.918704 L24.2945947,15.918704 L24.2945947,15.918704 Z M25.0718785,13.7887884 L25.0854161,13.5981339 L25.0177282,13.5744431 L24.982756,13.7098191 L25.0177282,13.8124792 L25.0718785,13.7887884 L25.0718785,13.7887884 Z"></path>
                </g>
            </g>
        </g>
    </g>
</svg>