<?xml version="1.0" encoding="UTF-8" standalone="no"?>
<svg width="94px" height="153px" viewBox="0 0 94 153" version="1.1" xmlns="http://www.w3.org/2000/svg" xmlns:xlink="http://www.w3.org/1999/xlink" xmlns:sketch="http://www.bohemiancoding.com/sketch/ns">
    <!-- Generator: Sketch 3.4.4 (17249) - http://www.bohemiancoding.com/sketch -->
    <title>soldier</title>
    <desc>Created with Sketch.</desc>
    <defs></defs>
    <g id="Page-1" stroke="none" stroke-width="1" fill="none" fill-rule="evenodd" sketch:type="MSPage">
        <g id="Welcome" sketch:type="MSArtboardGroup" transform="translate(-198.000000, -153.000000)" fill="#F39C12">
            <g id="People" sketch:type="MSLayerGroup" transform="translate(6.373178, 150.000000)">
                <g id="soldier" transform="translate(191.000000, 2.000000)" sketch:type="MSShapeGroup">
                    <path d="M69.475904,141.049745 C69.475904,141.049745 70.602975,142.120766 70.602975,142.375265 C70.602975,142.629765 70.546925,143.13725 70.519657,143.447801 C70.489359,143.759866 70.519657,144.633952 70.434824,144.746053 C70.35302,144.858154 69.927339,145.002068 69.927339,145.565603 L69.927339,147.088058 C69.927339,147.088058 69.531955,147.030493 69.531955,147.597058 C69.531955,148.157564 69.250187,149.65578 69.250187,149.65578 L69.02447,151.746315 L76.956384,151.829634 L78.875737,151.829634 L79.013591,150.699533 L80.116424,150.757098 L80.257308,150.504113 L80.792061,150.531381 L81.385894,150.757098 L81.864596,150.558649 L82.541747,150.417765 L83.106798,150.641967 L83.811217,150.558649 L84.232354,150.475331 L84.517151,150.585917 L84.770136,150.757098 C84.770136,150.757098 85.700273,150.558649 85.844187,150.558649 L86.775838,150.558649 L87.734757,150.222346 C87.734757,150.222346 91.318964,148.922578 92.247586,148.245427 C93.182267,147.56676 94.562323,146.579058 94.619888,146.18519 C94.672909,145.791321 94.509302,145.280806 94.509302,145.280806 C94.509302,145.280806 93.77307,143.953771 93.20802,143.759866 C92.64297,143.558387 90.105545,143.532634 89.428393,143.617467 C88.751242,143.702301 87.818076,143.617467 87.480257,143.588685 C87.140924,143.558387 86.151707,143.588685 85.786621,143.419018 C85.421535,143.249351 84.459586,142.994851 84.318702,142.769134 C84.177818,142.544932 83.811217,142.035932 83.474914,142.008664 C83.13558,141.978367 82.853813,141.838998 82.484182,141.586013 C82.119096,141.331513 81.160176,140.851296 80.904162,140.764948 C80.648147,140.681629 80.23004,140.343811 80.084611,140.089311 C79.945242,139.836326 79.181743,139.21674 79.181743,139.21674 C79.181743,139.21674 78.648505,138.424457 78.562157,137.916973 C78.480353,137.407973 78.253121,136.676286 78.165258,136.421786 C78.084969,136.167286 77.885005,135.773417 77.915303,135.573453 C77.942571,135.378033 77.859252,134.728149 77.885005,134.587266 C77.915303,134.447897 78.197071,133.655614 78.197071,133.655614 C78.197071,133.655614 79.804359,133.148129 78.787874,130.722806 C77.772904,128.294453 76.586753,125.387397 76.417086,124.511796 C76.248934,123.639225 75.739935,119.350599 75.629348,118.473483 C75.514217,117.599397 75.006733,114.945327 75.034,114.156074 C75.065813,113.366822 74.952197,109.809883 74.694667,108.822181 C74.443197,107.835993 73.735748,106.705893 73.735748,106.705893 C73.735748,106.705893 73.991763,105.719706 73.9039,105.40764 C73.823611,105.09709 73.426712,103.854888 73.340364,103.179251 C73.258561,102.500585 72.526873,100.835731 72.43901,100.610014 C72.354177,100.384297 70.660541,98.410408 70.660541,98.410408 C70.660541,98.410408 69.901586,95.8411708 69.475904,95.3049032 C69.053253,94.7701504 68.685137,93.0507612 68.460935,92.4826811 C68.235217,91.9191456 67.924667,90.1709736 67.924667,90.1709736 L68.320051,90.2815599 L68.657869,89.9164737 C68.657869,89.9164737 68.941152,90.0573576 68.966905,89.9437416 C68.998717,89.8316404 68.827536,89.0408729 68.657869,88.9287718 C68.489717,88.8151557 67.474747,87.6835401 67.302051,87.1487873 C67.136929,86.6125197 66.597632,85.34305 66.399182,84.9764489 C66.202248,84.6113628 65.696278,83.2843276 65.638712,83.1722264 C65.582662,83.0570955 65.326647,82.2390601 65.326647,82.2390601 C65.326647,82.2390601 65.244844,81.4498075 65.244844,81.1937927 C65.244844,80.9423225 65.299379,80.1818526 65.044879,79.4198678 C64.791894,78.6533383 64.761597,77.948919 64.398025,77.923166 C64.028395,77.8928684 62.054506,77.6656363 62.054506,77.6656363 C62.054506,77.6656363 61.574288,77.3308478 61.403107,77.1036157 C61.234955,76.8794134 61.122854,76.3976815 61.322818,76.1431816 C61.516723,75.8917115 62.083288,75.6084288 62.054506,74.7631256 C62.025723,73.9178224 61.940889,73.2376411 61.940889,73.2376411 C61.940889,73.2376411 62.449889,72.8422573 62.393839,72.504439 C62.336273,72.1635909 62.109041,71.3182877 61.774253,70.8411004 C61.434919,70.3593684 61.207687,69.1444344 61.151637,68.8626666 C61.095586,68.5824138 60.812304,67.2281107 61.010753,66.8312121 C61.207687,66.4373432 62.309005,63.0228029 62.699845,61.3852172 C63.099773,59.7491464 63.295193,53.373015 63.295193,52.8625004 C63.295193,52.3550154 63.295193,51.9035811 63.383056,51.7626972 C63.464859,51.6233282 64.285924,48.1512225 64.454076,47.3044044 C64.625257,46.4575862 64.761597,43.8065456 64.761597,43.8065456 C64.761597,43.8065456 66.458263,43.776248 66.685495,43.5520457 C66.909697,43.3248137 66.147712,40.4192732 66.090147,40.0238894 C66.034096,39.6285056 65.750814,36.5805663 65.750814,36.5805663 C65.750814,36.5805663 66.315864,35.9034148 66.315864,35.7882839 C66.315864,35.6776977 65.469046,32.9690916 65.469046,32.9690916 C65.469046,32.9690916 66.090147,32.5176572 66.034096,31.9813896 C65.976531,31.4436071 65.270596,29.9196374 65.270596,29.6954352 C65.270596,29.4682031 65.213031,28.8213492 65.044879,28.5107987 C64.876728,28.2017631 64.481344,27.8033496 64.285924,27.6049003 C64.08596,27.4109956 63.295193,26.3642133 63.211874,26.1945467 C63.125526,26.0279098 62.927077,25.5476928 63.608773,25.4340767 C64.285924,25.3204607 65.102445,25.3507583 65.102445,24.899324 C65.102445,24.4463747 64.761597,23.3177889 64.761597,23.3177889 C64.761597,23.3177889 66.679435,23.6540923 67.199039,23.3556609 C67.715613,23.0587443 68.235217,22.442188 68.310961,21.97409 C68.382161,21.5029622 68.26097,20.7152244 68.26097,20.7152244 C68.26097,20.7152244 68.527589,20.4198228 68.627571,20.3425639 C68.729068,20.2698496 68.90025,19.7759986 68.679077,19.5775493 C68.45639,19.3806148 68.679077,19.3321387 68.827536,19.2064036 C68.974479,19.0852132 68.974479,18.7898115 68.974479,18.6913443 C68.974479,18.5898473 69.051738,17.9490529 69.051738,17.9490529 C69.051738,17.9490529 69.100214,17.6521364 69.641026,17.630928 C70.183353,17.6021453 71.664906,17.4567168 71.125609,16.2220893 C70.580252,14.9874618 69.718285,13.8240337 69.718285,13.8240337 C69.718285,13.8240337 70.03641,13.3074595 70.086401,13.2074774 C70.136392,13.1090102 70.602975,12.8605698 70.654481,12.7621026 C70.702957,12.6651502 70.952913,12.516692 70.998359,12.3682337 C71.046835,12.2212903 70.752948,11.6774483 70.752948,11.4047698 C70.752948,11.1336062 70.780216,10.2686095 70.780216,10.2686095 C70.780216,10.2686095 73.83876,10.1716572 74.284135,10.1459042 C74.727995,10.1216661 76.382244,9.5051098 76.185309,8.7143423 C76.118655,8.4537829 75.923235,8.161411 75.512703,7.97962532 C74.668914,7.60090523 73.346424,7.45396184 73.346424,7.45396184 L71.146817,6.81316745 L70.03641,6.29507837 C70.03641,6.29507837 69.591035,5.99816182 69.591035,5.7997125 C69.591035,5.60277805 69.197166,4.51660884 69.100214,3.99851976 C69.000232,3.4789158 68.235217,1.87465751 67.88831,1.52926479 C67.544432,1.18235719 66.755179,0.98542274 66.755179,0.98542274 C66.755179,0.98542274 64.531335,1.058137 62.778618,1.47927373 C61.025902,1.89889559 58.556647,2.22156511 58.306692,2.29276448 C58.061281,2.3685085 57.543192,2.46697572 57.12357,2.8623595 C56.703948,3.25622839 54.012006,5.60277805 53.346973,5.99816182 C52.678911,6.39203071 51.715447,6.56472707 51.666971,7.05857807 C51.61698,7.55545882 52.035087,9.2339463 52.233536,9.9504847 C52.431986,10.6655082 52.703149,11.2820645 52.901598,11.6774483 C53.097018,12.0743469 53.493917,12.7878556 53.493917,12.7878556 C53.493917,12.7878556 53.790833,13.9512837 53.713574,14.5890483 C53.64086,15.2328724 53.713574,16.465985 53.713574,16.465985 C53.713574,16.465985 53.174277,16.5402142 53.124286,16.8856069 C53.074295,17.2340294 53.147009,17.9232999 53.074295,18.3686748 C53.001581,18.8125347 52.530453,20.0229241 52.530453,20.0229241 C52.530453,20.0229241 51.074653,19.7275224 50.777736,19.6517784 C50.482335,19.5775493 49.715805,19.3321387 49.5931,19.6033023 C49.46888,19.872951 49.247707,20.7152244 49.247707,20.7152244 C49.247707,20.7152244 45.099965,17.6748596 42.948835,17.4067257 C40.800734,17.1340473 39.220714,17.1340473 38.726863,17.3067436 C38.231497,17.47944 37.146843,17.6021453 37.046861,17.6021453 C36.946879,17.6021453 35.78951,16.985589 35.366858,16.7401784 C34.950266,16.491738 33.911058,16.1463453 33.492951,16.491738 C33.071815,16.8371307 32.62644,17.0855711 32.62644,17.0855711 C32.62644,17.0855711 29.616373,16.1463453 27.862141,16.3205565 C26.109425,16.491738 25.517106,16.3432797 24.283994,16.8128926 C23.049366,17.2794758 21.8617,17.4067257 21.42087,17.555184 C20.975495,17.7006125 20.15746,17.6748596 19.640885,18.5413711 C19.122796,19.4048529 18.63046,19.504835 18.504725,21.6756586 C18.38505,23.8495119 18.157818,25.405294 18.578954,25.9218682 C19.001606,26.442987 20.358939,28.0729983 20.358939,28.0729983 L20.4059,28.4426291 C20.4059,28.4426291 19.789344,30.8134169 19.640885,30.9603602 C19.492427,31.1088185 19.197026,31.6784135 19.96204,31.6784135 C20.72554,31.6784135 21.270897,31.7753659 21.170915,31.875348 C21.070932,31.9723003 20.604349,33.1099755 20.580111,33.7280466 C20.552843,34.344603 21.295135,35.5050013 20.875513,36.3957509 C20.452861,37.2849857 19.886296,38.7635089 19.836305,39.1361695 C19.789344,39.5042854 19.346999,40.0238894 19.346999,40.4950172 L19.346999,41.8023589 C19.346999,41.8023589 18.110856,42.2962099 17.639729,43.1854447 C17.170116,44.0731646 16.332387,45.4062593 16.332387,45.4062593 C16.332387,45.4062593 15.418914,44.9124083 15.221979,45.4304974 C15.02353,45.9485864 14.925063,46.7635921 14.975054,47.1604907 C15.02353,47.5543596 15.468905,48.1481927 15.468905,48.1481927 L15.565857,48.4193563 L15.541619,50.1978258 C15.541619,50.1978258 14.45242,51.3582242 14.502411,51.4824444 C14.552402,51.6036348 14.996262,51.8747984 14.996262,51.8747984 L14.897795,52.3459262 C14.897795,52.3459262 13.764665,53.5805536 13.764665,53.7290119 C13.764665,53.8759553 13.885855,54.221348 14.234277,54.221348 C14.57967,54.221348 15.294694,54.0486517 15.294694,54.0486517 L15.120482,54.8121514 C15.120482,54.8121514 13.640444,56.690603 13.073879,57.4313795 C12.504284,58.1706411 10.292559,59.5885691 10.09108,61.3397708 C9.89263,63.0940023 9.492702,64.590704 10.036544,65.2330133 C10.577356,65.8783523 11.271172,66.4691557 11.86046,66.8145484 C12.455808,67.161456 13.94948,67.4750362 13.94948,67.4750362 C13.94948,67.4750362 14.110057,69.4549848 14.084304,70.0791156 C14.052492,70.6987016 14.084304,72.1090552 14.308507,72.4483884 C14.532709,72.7862067 15.547679,74.3677418 16.677779,74.7631256 C17.806365,75.1569945 20.060507,75.8917115 20.060507,75.8917115 C20.060507,75.8917115 20.374088,76.5400802 20.175638,76.7370147 C19.980219,76.9339491 18.172966,79.4471356 18.004815,80.151555 C17.835148,80.8574892 18.004815,82.7753278 18.31385,82.9737771 C18.624401,83.1722264 19.32882,83.594878 19.32882,83.594878 C19.32882,83.594878 17.973002,84.215979 17.806365,84.2462766 C17.635184,84.2705147 17.297366,84.4704789 17.297366,84.6674133 C17.297366,84.8643478 17.609431,85.2582167 17.609431,85.2582167 C17.609431,85.2582167 18.144184,85.5990647 18.821335,85.317297 C19.496972,85.0324995 20.234719,85.1476304 20.513457,85.1476304 C20.799769,85.1476304 21.614775,84.9476662 21.614775,84.9476662 C21.614775,84.9476662 21.984405,85.1188477 22.094992,85.2582167 C22.210123,85.4006154 22.970592,85.9929336 22.68731,86.5867667 C22.405542,87.1775701 21.92684,87.6835401 21.840492,88.0259031 C21.760203,88.3606916 21.646587,89.2378073 21.646587,89.2378073 L21.984405,89.6619738 C21.984405,89.6619738 21.673855,90.2270242 21.560239,90.3103426 C21.446623,90.3951759 24.721794,92.4538983 24.721794,92.4538983 L25.198981,92.2827169 C25.198981,92.2827169 25.803419,90.9465924 26.001868,90.5527235 C26.198802,90.1588546 25.962481,89.9997922 26.318478,89.2120544 C26.67296,88.4182571 27.542501,86.5640435 27.542501,86.5640435 C27.542501,86.5640435 29.437617,83.0464914 29.754227,82.3360125 C30.072352,81.6240187 31.256988,79.6895165 31.256988,79.6895165 C31.256988,79.6895165 31.372119,82.3769142 31.372119,83.0464914 C31.372119,83.7175834 31.296375,84.6674133 31.650857,85.177928 C32.008369,85.6945022 31.770532,87.43207 31.570568,87.6290044 C31.372119,87.8259389 29.322486,93.040157 28.963459,93.5552163 C28.605947,94.0672459 28.492331,94.5838201 28.646849,94.7398528 C28.805912,94.8989152 28.568075,95.4912334 28.372656,95.6881679 C28.174206,95.8866172 28.25298,97.1909292 27.816695,97.8605063 C27.383439,98.534628 26.279091,99.284494 26.159416,100.588806 C26.03974,101.890088 25.132327,105.566703 24.699071,106.35747 C24.2643,107.146723 23.116021,109.003966 22.68428,109.711415 C22.24648,110.424924 19.875692,113.624351 19.481823,114.178797 C19.084924,114.731729 18.610767,115.325562 18.297187,115.995139 C17.980577,116.667746 16.164235,120.024721 15.493143,121.171485 C14.822051,122.31522 14.426667,123.227178 14.229733,123.421082 C14.126721,123.524094 13.738912,123.515005 13.452599,123.9013 C13.167802,124.27699 12.669406,125.084421 12.489135,125.320742 C12.133138,125.793385 10.868213,127.849078 10.709151,128.63833 C10.554633,129.429098 10.434958,129.982029 10.434958,129.982029 C10.434958,129.982029 9.44877,131.522663 9.054902,132.19224 C8.661033,132.864847 8.620131,133.143585 8.620131,133.143585 C8.620131,133.143585 7.946009,134.050998 7.829363,134.326706 C7.711203,134.603929 7.511238,135.156861 7.234015,135.511343 C6.959822,135.865825 4.231523,138.395675 4.231523,138.395675 C4.231523,138.395675 3.146868,138.992538 2.752999,139.286424 C2.356101,139.581826 1.006342,140.569528 0.939688,140.764948 C0.874548,140.964912 0.84122,141.885959 0.874548,142.446465 C0.90636,143.006971 1.333556,143.829551 1.333556,143.829551 C1.333556,143.829551 1.59866,143.993158 1.79711,144.387027 C1.995559,144.780895 2.456083,145.344431 2.61969,145.671645 C2.786327,146.003404 3.477112,147.088058 3.477112,147.088058 L3.707374,147.351647 L4.593579,147.219853 L4.926853,147.878826 L5.549468,147.977293 L5.417674,148.471144 C5.417674,148.471144 5.517656,148.801388 5.582796,148.931668 C5.649451,149.064977 5.976665,149.128602 5.976665,149.128602 L6.143302,149.986024 L6.470516,150.314753 C6.470516,150.314753 6.572013,150.710137 6.572013,150.843447 C6.572013,150.972211 6.834087,151.50242 6.834087,151.50242 C6.834087,151.50242 7.127974,151.861446 7.161301,151.993241 C7.196143,152.12655 7.756649,152.521934 7.756649,152.521934 C7.756649,152.521934 8.447435,153.246047 8.612556,153.277859 C8.776164,153.308157 9.632071,153.609618 10.71521,153.609618 L18.589558,153.609618 C19.178847,153.609618 20.234719,153.411169 20.72554,153.14455 C21.220906,152.88399 21.057299,152.059896 20.792195,151.794791 C20.53012,151.534232 20.266531,150.908586 19.310642,150.281426 C18.357782,149.65578 16.776247,148.96348 16.644452,148.96348 C16.511143,148.96348 16.483875,148.602939 16.317238,148.175742 C16.150601,147.748546 15.887012,147.121386 15.918824,146.922936 C15.953667,146.724487 15.887012,146.003404 15.821872,145.408056 C15.753702,144.815738 15.626453,144.947532 15.626453,144.420354 C15.626453,143.89772 15.493143,143.532634 15.326506,143.170578 C15.162899,142.807006 15.064432,142.282858 15.196226,142.019269 C15.326506,141.754164 15.953667,141.292126 15.918824,140.964912 C15.887012,140.636183 15.853685,140.502873 15.953667,140.208987 C16.053649,139.91207 16.117274,139.286424 16.249068,138.859228 C16.380863,138.430517 16.611125,138.19874 16.776247,137.901824 C16.942884,137.606422 17.30191,136.75203 17.30191,136.75203 C17.30191,136.75203 17.270098,135.994589 17.270098,135.829467 C17.270098,135.662831 17.50036,135.238664 17.50036,135.238664 L18.191145,134.447897 C18.191145,134.447897 19.640885,133.490492 20.658885,132.404323 C21.681429,131.319669 23.985562,129.012506 24.774815,127.599122 C25.568612,126.185739 28.003025,123.44835 29.090709,122.231901 C30.173849,121.013938 33.00516,118.049317 34.127686,116.79954 C35.245668,115.546734 36.530286,113.934902 37.352867,113.144134 C38.175447,112.354882 39.426738,111.465647 40.117523,110.908171 C40.812853,110.34615 41.600591,109.061532 41.600591,109.061532 C41.600591,109.061532 43.080629,107.020988 43.838069,105.936333 C44.595509,104.847134 46.86783,102.379394 46.86783,102.379394 L48.482692,100.038904 C48.482692,100.038904 49.732469,101.031151 51.904807,102.806591 C54.080175,104.58506 56.117689,105.803024 56.644868,106.724071 C57.173561,107.645118 58.258215,109.556897 58.785394,110.147701 C59.311057,110.738504 60.168479,111.562599 60.498723,113.112322 C60.825938,114.660529 61.122854,116.0421 61.48794,116.634418 C61.848482,117.226737 63.099773,118.282608 63.230053,118.743132 C63.361847,119.203656 63.89054,120.256497 63.89054,121.044235 C63.89054,121.836518 64.546484,124.831436 64.746448,126.082727 C64.943382,127.335533 65.403906,129.672994 65.664465,130.066863 C65.931084,130.462246 65.964412,131.416621 66.159831,131.743835 C66.359795,132.077109 67.182376,132.734567 67.182376,132.734567 L67.706524,133.392025 C67.706524,133.392025 68.070095,133.852549 68.235217,134.381242 C68.400339,134.90539 68.660899,135.302289 68.660899,135.662831 C68.660899,136.024887 68.860863,136.782327 68.991143,137.012589 C69.124452,137.244366 69.057797,137.806386 69.02447,138.166928 C68.991143,138.528984 68.957815,138.792573 68.957815,138.792573 C68.957815,138.792573 67.806506,139.515171 67.544432,140.469546 C67.277813,141.42695 67.24903,142.182876 67.24903,142.182876 L68.760881,142.378295 L69.08961,141.292126 L69.475904,141.049745"></path>
                </g>
            </g>
        </g>
    </g>
</svg>