<?xml version="1.0" encoding="UTF-8" standalone="no"?>
<svg width="100px" height="72px" viewBox="0 0 100 72" version="1.1" xmlns="http://www.w3.org/2000/svg" xmlns:xlink="http://www.w3.org/1999/xlink" xmlns:sketch="http://www.bohemiancoding.com/sketch/ns">
    <!-- Generator: Sketch 3.4.4 (17249) - http://www.bohemiancoding.com/sketch -->
    <title>speedometer</title>
    <desc>Created with Sketch.</desc>
    <defs></defs>
    <g id="Page-1" stroke="none" stroke-width="1" fill="none" fill-rule="evenodd" sketch:type="MSPage">
        <g id="Purple" sketch:type="MSArtboardGroup" transform="translate(0.000000, -226.000000)" fill="#9B59B6">
            <g id="speedometer" sketch:type="MSLayerGroup" transform="translate(0.000000, 226.000000)">
                <path d="M69.4877506,35.6347439 L50.6904232,49.9331849 C50.4231626,49.9109131 50.155902,49.8886414 49.8886414,49.8886414 C45.9465479,49.8886414 42.7616927,53.0734967 42.7616927,57.0155902 C42.7616927,60.9576837 45.9465479,64.142539 49.8886414,64.142539 C53.830735,64.142539 57.0155902,60.9576837 57.0155902,57.0155902 C57.0155902,56.7483296 56.9933185,56.481069 56.9710468,56.2138085 L71.2694878,37.4164811 L69.4877506,35.6347439 L69.4877506,35.6347439 Z" id="Shape" sketch:type="MSShapeGroup"></path>
                <path d="M49.8886414,0 C22.3385301,0 0,22.3385301 0,49.8886414 C0,57.5501114 1.73719376,64.7884187 4.81069042,71.2694878 L12.8507795,71.2694878 C9.42093541,65.3452116 7.4610245,58.6636971 7.1714922,51.6703786 L14.2538976,51.6703786 L14.2538976,48.1069042 L7.1714922,48.1069042 C7.43875278,41.6926503 9.1091314,35.5233853 12.0267261,29.9777283 L18.1514477,33.518931 L19.9331849,30.4231626 L13.8084633,26.9042316 C15.4565702,24.3207127 17.4164811,21.8708241 19.6436526,19.6436526 C21.9153675,17.3942094 24.3875278,15.4120267 27.0155902,13.7416481 L30.5345212,19.8218263 L33.6302895,18.0400891 L30.1113586,11.9599109 C35.6347439,9.06458797 41.7371938,7.43875278 48.1069042,7.1714922 L48.1069042,14.2538976 L51.6703786,14.2538976 L51.6703786,7.1714922 C58.0400891,7.43875278 64.142539,9.08685969 69.6659243,11.9599109 L66.169265,18.0400891 L69.2650334,19.8218263 L72.7839644,13.7416481 C75.4120267,15.4120267 77.8841871,17.3942094 80.155902,19.6436526 C82.3830735,21.8708241 84.3207127,24.298441 85.9910913,26.9042316 L79.8886414,30.4231626 L81.6703786,33.518931 L87.7951002,29.9777283 C90.7126949,35.5233853 92.3830735,41.6926503 92.6503341,48.1069042 L85.5233853,48.1069042 L85.5233853,51.6703786 L92.6057906,51.6703786 C92.3162584,58.6636971 90.3563474,65.3452116 86.9265033,71.2694878 L94.9665924,71.2694878 C98.0400891,64.7884187 99.7772829,57.5501114 99.7772829,49.8886414 C99.7772829,22.3385301 77.4387528,0 49.8886414,0 L49.8886414,0 Z" id="Shape" sketch:type="MSShapeGroup"></path>
            </g>
        </g>
    </g>
</svg>