<?xml version="1.0" encoding="UTF-8" standalone="no"?>
<svg width="100px" height="130px" viewBox="0 0 100 130" version="1.1" xmlns="http://www.w3.org/2000/svg" xmlns:xlink="http://www.w3.org/1999/xlink" xmlns:sketch="http://www.bohemiancoding.com/sketch/ns">
    <!-- Generator: Sketch 3.4.4 (17249) - http://www.bohemiancoding.com/sketch -->
    <title>unlocked</title>
    <desc>Created with Sketch.</desc>
    <defs></defs>
    <g id="Page-1" stroke="none" stroke-width="1" fill="none" fill-rule="evenodd" sketch:type="MSPage">
        <g id="Yellow" sketch:type="MSArtboardGroup" transform="translate(0.000000, -197.000000)" fill="#F39C12">
            <g id="unlocked" sketch:type="MSLayerGroup" transform="translate(0.000000, 197.000000)">
                <path d="M49.95005,79.9200799 C47.1959291,79.9200799 44.955045,82.160964 44.955045,84.9150849 C44.955045,87.6692058 47.1959291,89.9100899 49.95005,89.9100899 C52.7041708,89.9100899 54.9450549,87.6692058 54.9450549,84.9150849 C54.9450549,82.160964 52.7041708,79.9200799 49.95005,79.9200799 L49.95005,79.9200799 Z" id="Shape" sketch:type="MSShapeGroup"></path>
                <path d="M22.4775225,54.9450549 L22.4775225,32.4675325 C22.4775225,17.3192433 34.8039461,4.995005 49.955045,4.995005 C65.1008367,4.995005 77.4225774,17.3192433 77.4225774,32.4675325 L77.4225774,34.965035 L82.4175824,34.965035 L82.4175824,32.4675325 C82.4175824,14.5385864 67.8814935,0 49.955045,0 C32.0186064,0 17.4825175,14.5385864 17.4825175,32.4675325 L17.4825175,54.9450549 L0,54.9450549 L0,129.87013 L99.9000999,129.87013 L99.9000999,54.9450549 L22.4775225,54.9450549 L22.4775225,54.9450549 Z M52.4475524,94.5904096 L52.4475524,104.895105 L47.4525475,104.895105 L47.4525475,94.5904096 C43.1437313,93.4812063 39.96004,89.5698052 39.96004,84.9150849 C39.96004,79.3977897 44.4327547,74.9250749 49.95005,74.9250749 C55.4673452,74.9250749 59.9400599,79.3977897 59.9400599,84.9150849 C59.9400599,89.5698052 56.7563686,93.4812063 52.4475524,94.5904096 L52.4475524,94.5904096 Z" id="Shape" sketch:type="MSShapeGroup"></path>
            </g>
        </g>
    </g>
</svg>