<?xml version="1.0" encoding="UTF-8" standalone="no"?>
<svg width="46px" height="87px" viewBox="0 0 46 87" version="1.1" xmlns="http://www.w3.org/2000/svg" xmlns:xlink="http://www.w3.org/1999/xlink" xmlns:sketch="http://www.bohemiancoding.com/sketch/ns">
    <!-- Generator: Sketch 3.4.4 (17249) - http://www.bohemiancoding.com/sketch -->
    <title>woman_1</title>
    <desc>Created with Sketch.</desc>
    <defs></defs>
    <g id="Page-1" stroke="none" stroke-width="1" fill="none" fill-rule="evenodd" sketch:type="MSPage">
        <g id="Welcome" sketch:type="MSArtboardGroup" transform="translate(-304.000000, -153.000000)" fill="#16A085">
            <g id="People" sketch:type="MSLayerGroup" transform="translate(6.373178, 150.000000)">
                <g id="woman_1" transform="translate(298.000000, 3.000000)" sketch:type="MSShapeGroup">
                    <path d="M20.695851,0.66810518 C20.959314,0.63899731 21.125005,0.70840839 21.287711,0.77856583 C21.032457,0.74945795 20.805565,0.76289236 20.695851,0.66810518 M22.733402,40.4921518 C22.864014,40.4876737 22.960294,40.708595 22.918498,40.7518836 C22.925215,40.7056096 22.864761,40.721283 22.813262,40.7369565 C22.759524,40.7533763 22.716236,40.7705425 22.77072,40.7153122 C22.94686,40.7033705 22.79311,40.5040935 22.733402,40.4921518 M23.140912,40.9004084 C23.141658,41.0183326 23.17002,40.9705658 23.198381,40.9227991 C23.221519,40.8832422 23.245402,40.8436854 23.252119,40.9004084 C23.190918,40.9742976 23.255851,40.9474288 23.252119,41.0481868 C23.120761,41.075802 23.002836,40.9280236 23.140912,40.9004084 M24.029822,31.8239769 L24.104457,31.8605483 C24.110428,31.9530964 24.047734,31.9769798 23.99325,32.0098195 C23.942498,31.9620527 23.935781,31.8269623 24.029822,31.8239769 M24.029822,34.3429273 C24.020865,34.422041 24.058183,34.7384959 23.99325,34.6392305 C24.003699,34.5601168 23.963396,34.2444084 24.029822,34.3429273 M25.106067,40.5667874 L25.215035,40.530216 C25.212795,40.4779711 25.223991,40.3884084 25.253099,40.4555804 C25.30609,40.6130615 25.140399,40.710834 25.106067,40.5667874 M25.956166,34.9728515 C25.973332,35.0519652 26.04125,35.4020061 25.956166,35.343044 C25.999454,35.2049682 25.862125,34.9243384 25.956166,34.9728515 M22.102731,1.03755125 C22.126615,0.906939 22.37739,0.84648419 22.436352,0.96440839 C22.360224,1.02262413 22.191548,0.99053084 22.102731,1.03755125 M25.253099,5.63137049 C25.348632,5.37910227 25.479991,5.01413434 25.623291,4.7066358 C25.593437,5.1074288 25.438941,5.38581947 25.253099,5.63137049 M25.623291,4.03939381 C25.56209,3.70353376 25.338183,3.3355804 25.363559,3.0392772 C25.500142,3.29751626 25.673297,3.7162218 25.623291,4.03939381 M25.660609,3.11242005 C25.631501,2.93180198 25.479991,2.87283988 25.436702,2.70490985 C25.587466,2.74222763 25.712107,2.99748128 25.660609,3.11242005 M13.359921,6.63297982 C13.344994,6.88151626 13.423361,7.1084084 13.175571,7.2614113 C13.204679,7.0195921 13.199454,6.74344046 13.359921,6.63297982 M13.064364,9.2623909 C12.944201,9.2803034 12.888224,9.5527233 12.804632,9.4840585 C12.856877,9.4131547 12.903151,9.3355338 12.916586,9.2250731 L13.064364,9.2623909 M12.768061,9.9662043 C12.785973,9.7669273 12.750895,9.6587058 12.804632,9.5586941 C12.813588,9.6691547 12.835233,9.610939 12.869565,9.5519769 C12.891956,9.5139128 12.919571,9.4758486 12.952411,9.4840585 C12.919571,9.6736329 12.888224,9.8646999 12.768061,9.9662043 M12.619536,10.2632539 C12.664317,10.2416096 12.556096,9.9229157 12.694918,9.8923151 C12.711338,10.0677087 12.831501,10.345353 12.619536,10.2632539 M12.472504,31.4537845 C12.444142,31.2522684 12.537437,30.8529682 12.619536,30.6387641 C12.665064,30.8768515 12.639688,31.3104842 12.472504,31.4537845 M12.768061,82.1708924 C14.50707,82.1044667 16.252049,81.9380294 18.140329,82.0223676 C20.408504,82.1223792 22.693845,81.7954754 24.993367,81.6887466 C27.299606,81.5812714 29.646895,81.3797553 32.032994,81.28049 C31.932236,81.9820644 31.341868,83.0732364 32.032994,83.5785192 C31.620259,84.2166533 32.647991,84.6920819 32.782335,85.0510789 L32.825623,85.0473472 C32.825623,85.0473472 33.030871,85.865353 33.030871,86.3273472 C33.030871,86.788595 34.10637,86.4295979 34.10637,86.4295979 L34.10637,85.254834 C34.082486,85.1145192 34.06532,84.9689798 34.033227,84.8368749 C35.114696,84.5972947 36.031221,85.0921285 36.662638,85.542181 C40.754906,87.5200236 44.549379,85.2010964 44.549379,85.2010964 L44.618043,85.2585658 C44.815828,85.0772014 44.938976,84.8420994 44.85016,84.5040002 C44.318008,84.3092014 43.664201,84.5577378 43.109658,84.5786358 C43.301472,84.5346008 43.274603,84.3450265 43.332819,84.0591722 C43.371629,83.8539244 43.488061,83.7613763 43.480597,83.6524084 C43.464924,83.4516387 43.335058,83.3352072 43.183548,83.2448982 C42.599151,83.5300061 42.003559,83.1336912 41.293775,83.0590556 C41.213915,83.0508457 41.130323,83.0575629 41.049717,83.0635338 C40.949705,83.0717437 40.854172,83.0792072 40.775804,83.0590556 C40.558615,83.0038253 40.435466,82.715732 40.182451,82.614974 C40.143641,82.5993005 40.095874,82.6000469 40.039151,82.6007932 C39.973472,82.6015396 39.896597,82.6022859 39.812259,82.5776562 C39.5376,82.4970498 38.711384,81.8350323 38.441204,81.614111 C38.021005,81.2707874 37.551548,80.9408982 37.182102,80.5766766 C36.767874,80.1699128 36.535011,79.7609098 36.181239,79.242939 C35.811046,78.7025775 35.205005,78.017423 35.40279,77.4643734 C34.857204,69.3440236 34.245938,61.2848749 33.588399,53.2742393 C33.383898,53.2496096 33.005495,53.2906591 32.810696,53.3115571 C32.725612,53.1861693 32.817414,52.8846416 32.736061,52.7547757 C31.615781,52.7204434 30.685075,52.8779244 29.624504,52.9033005 C29.431944,52.4875804 29.588679,52.0808166 29.476726,51.6807699 C29.428959,51.5128399 29.276702,51.406111 29.216247,51.2359419 C28.992341,50.6022859 29.065484,49.8872772 28.846801,49.2730265 C28.795303,49.1312189 28.643793,49.034939 28.58707,48.9020877 C28.454218,48.5930964 28.333309,48.1811081 28.252702,47.8639069 C28.201204,47.6601518 28.245239,47.5086416 28.179559,47.3466824 C28.134778,47.2392072 27.994463,47.1556154 27.919081,47.0130615 C27.443653,46.0965367 27.291396,44.9881985 26.846568,44.049283 C26.912994,43.8947874 27.005542,43.7634288 27.031664,43.5671373 C27.204072,43.5462393 27.472014,43.4895163 27.660842,43.382041 C27.672037,42.4199886 27.356329,41.5273472 27.438428,40.530216 C27.500376,39.7801285 27.550381,38.9621227 27.586207,38.1582976 C27.619793,37.4298545 27.722043,36.6715571 27.660842,35.9729682 C27.63472,35.6856212 27.542918,35.4154405 27.511571,35.1213763 C27.310801,33.1577145 27.23318,31.0888166 27.104807,29.1565017 C27.004795,27.642146 27.398871,25.6090731 27.216761,23.8954405 C27.184667,23.5939128 27.033903,23.2662626 26.9936,22.9699594 C26.861495,21.9795454 27.164516,21.0563034 26.660726,20.3390556 C26.463688,20.0599186 26.065134,19.9173647 25.697927,19.6352422 C25.057554,19.1456329 24.518685,18.6940877 23.919361,18.1164084 C23.659629,17.8663792 23.212562,17.5327582 23.104341,17.301388 C22.908049,16.8841752 23.066277,16.4542743 22.918498,16.0422859 C22.744597,15.5519303 22.278871,15.3108574 22.029588,14.8197553 C22.284842,14.2114754 22.178113,13.1352305 22.69683,12.8195221 C22.915513,12.6851781 23.240177,12.750111 23.548422,12.7083151 C24.338067,12.6000935 25.148609,12.359767 24.734381,11.4111489 C24.887384,11.1588807 25.264294,10.5192539 24.845588,10.2632539 C25.280714,10.1177145 24.953064,9.5810848 25.068002,9.1877553 C25.357588,8.9116037 25.950941,9.1235687 25.919594,8.5212597 C25.893472,8.0353822 24.919478,7.4465075 24.88216,6.78075825 C24.867233,6.50609935 25.053075,6.44713725 24.993367,6.11351626 C25.469542,5.69704979 26.011396,4.89546378 25.919594,3.81623346 C25.888994,3.46171451 25.795699,2.94523638 25.660609,2.74222763 C25.470288,2.45786612 25.05009,2.56981947 24.845588,2.29739964 C24.795583,2.29292151 24.73886,2.29590693 24.682137,2.298146 C24.57093,2.30262413 24.459723,2.30710227 24.400761,2.26082822 C24.383594,2.18171451 24.453752,2.18992443 24.511967,2.18619265 C24.163419,2.10260081 24.199991,1.63388944 23.808154,1.59358623 C23.811886,1.41669994 23.722323,1.33385445 23.660376,1.22339381 C23.257344,1.30400023 23.022988,0.9457495 22.659513,0.85320139 C22.550545,0.82558623 22.447548,0.84573784 22.341565,0.8666358 C22.254242,0.88305562 22.164679,0.9002218 22.066906,0.88977282 C21.563863,0.83678157 21.043653,0.41732967 20.473437,0.6307874 C20.586137,0.51062413 20.579419,0.55689819 20.436865,0.48226262 C20.413728,0.57481072 19.853962,0.3680702 19.474067,0.33448419 C19.104621,0.30089819 18.69711,0.26731218 18.47395,0.29716641 C17.610416,0.41434425 16.997658,0.92186612 16.399081,1.03755125 C16.484166,1.18309061 16.309519,1.25474075 16.176667,1.37117224 C16.09009,1.36072326 16.09009,1.27116058 16.176667,1.25996524 C16.123676,1.23235008 16.076656,1.32116641 16.019933,1.40923638 C15.963209,1.49879906 15.896037,1.58836174 15.805728,1.5570148 L15.916935,1.44506145 C15.686312,1.62791859 15.475839,1.85033259 15.25044,2.07498565 C15.023548,2.30038507 14.711571,2.53324804 14.545134,2.81611685 C14.460795,2.96314892 14.446615,3.15048419 14.360784,3.29826262 C14.210766,3.55650169 13.902521,3.74906145 13.768177,4.03939381 C13.704737,4.17448419 13.647268,4.4640702 13.583081,4.66931801 C13.516656,4.8782976 13.412166,5.1342976 13.397239,5.29924221 C13.377833,5.53135883 13.519641,5.80377865 13.472621,6.03962705 C13.442766,6.1836737 13.301705,6.30682238 13.24946,6.44713725 C13.153927,6.70164454 13.091233,7.0688515 13.064364,7.3733647 C13.021075,7.8622276 13.139,8.465283 13.0263,8.8914521 C12.989728,9.0354988 12.806125,9.1489448 12.730743,9.3362801 C12.641927,9.5557087 12.551618,9.9662043 12.545647,10.1513005 C12.541915,10.2893763 12.565798,10.5453763 12.730743,10.6334463 C12.799408,10.9976679 12.940469,11.5746008 13.286778,11.7820877 C13.175571,11.6328166 13.078545,11.4716037 13.064364,11.2260527 C13.288271,11.6320702 13.768924,11.7813413 13.989845,12.1888515 C13.950288,12.3105075 13.788329,12.3082684 13.73086,12.4112655 C13.850277,12.5209798 13.862965,12.59263 13.805495,12.781458 C13.967454,12.7568282 14.004772,12.6097961 14.176434,12.5963617 C14.588422,12.7426475 14.49886,13.0255163 14.991454,12.8560935 C14.912341,13.0867174 14.451839,13.2352422 14.027163,13.1523967 C14.246591,13.2912189 14.48244,13.4136212 14.730976,13.5225891 C15.366125,13.6039419 15.720644,13.2412131 16.028889,13.1158253 C16.283396,13.2762918 16.352061,13.3024142 16.732702,13.2270323 C16.682696,13.4890031 16.798381,13.8420294 16.658067,14.0778778 C15.078032,14.8749857 14.585437,16.644595 14.027163,18.6351256 C13.81893,19.382974 13.477845,20.1315687 13.286778,20.8950906 C13.083023,21.7048865 12.983011,22.6094696 12.804632,23.4886766 C12.526988,24.8612247 12.432947,26.0165833 12.323233,27.3779361 C12.270988,28.019802 12.429215,28.6706241 12.397122,29.3050265 C12.362043,29.9812247 12.061262,30.6417495 12.02693,31.3052597 C11.323116,31.2298778 10.512574,30.9432772 9.692329,30.8611781 C8.876562,32.5889915 8.31381,34.766111 7.581635,36.4543676 C6.968131,38.3754871 6.228492,40.4122918 5.507513,42.4931314 C5.344807,42.9596037 4.603676,44.3478253 4.987303,44.827732 C5.320924,45.2412131 6.363583,45.4076504 6.878568,45.6054346 C8.83402,46.3570148 11.169367,47.0055979 13.175571,47.4571431 C12.970323,47.9907874 12.519524,48.3706824 12.323233,48.9394055 C11.929157,50.0805833 11.692562,51.3792422 11.285052,52.5696795 C11.188772,52.8562801 11.011886,53.0980994 10.916352,53.3846999 C10.674533,54.1049332 10.546906,54.8318836 10.212539,55.4595687 C10.002067,55.4595687 9.818463,55.4849448 9.656504,55.533458 C9.452002,56.8649565 9.474393,58.0188224 9.322883,59.2383676 C9.278102,59.5966183 8.942988,60.1160819 8.766848,60.5347874 C7.951828,62.470834 7.117402,64.3128399 6.432247,66.4623443 C6.30686,66.8616445 6.174008,67.2982626 6.025484,67.7214463 C5.828446,68.2856912 5.505274,68.7454463 5.617973,69.3522335 C5.320177,70.1314288 5.051489,70.8165833 4.839524,71.6121985 C4.986556,71.7032539 4.999991,71.8510323 5.247035,71.7599769 C4.757425,73.411662 4.728317,74.9342276 4.025997,76.3911139 C3.719991,77.0225308 3.341588,77.6890265 2.987816,78.2801402 C2.645985,78.8518486 2.006358,79.4123617 1.802603,79.9848166 C1.644376,80.4266591 1.774242,80.7401285 1.986953,81.058076 C1.474953,81.0080702 0.727105,80.9289565 0.542755,81.3185542 C0.522603,81.9656445 1.142078,82.2462743 1.284632,82.7634988 C1.389122,83.1478719 1.187606,83.5770265 1.172679,84.0226008 C1.138347,84.1644084 0.927128,84.1875454 1.023408,84.3554754 C1.423454,85.2503559 2.469099,84.5040002 2.469099,84.5040002 C2.479548,83.995732 2.376551,83.3941693 2.395209,82.6888632 C3.664761,82.2544842 4.472317,83.1881752 5.247035,83.6150906 L5.247035,83.727044 C5.537367,83.8054113 5.797099,84.1136562 6.062801,84.3935396 C5.900842,84.3651781 6.092656,84.4659361 5.988166,84.4674288 L5.979209,84.4644434 C6.068026,84.5487816 6.159828,84.6405833 6.256107,84.7398486 C7.861519,86.3960119 12.702381,85.4966533 12.894195,85.4600819 C12.912107,85.3040935 12.910615,85.1510906 12.916586,84.9122568 C12.811349,84.8062743 12.719548,84.6890964 12.545647,84.652525 C12.624014,84.3801052 12.512807,84.1673938 12.360551,84.0226008 C11.747793,84.1293297 11.252212,83.8964667 10.73051,83.8001868 C10.612586,83.7330148 10.60139,83.5576212 10.54616,83.4299944 C10.325239,83.3277437 10.105064,83.2269857 9.840854,83.171009 C9.115396,82.5843734 8.702661,82.0111722 8.212306,81.1319652 C7.84286,80.4736795 7.364446,80.1408049 7.359967,79.2056212 C7.34504,76.739662 8.590708,74.9640819 9.359454,73.2049215 C9.720691,73.2676154 10.032667,73.5221227 10.359571,73.5012247 C10.699163,73.6064609 10.788726,73.9609798 11.176084,74.0199419 C11.224597,73.8355921 11.455221,73.7154288 11.360434,73.5012247 C11.653752,73.3116504 11.7463,73.0974463 11.841087,72.7608399 C12.252329,75.7962684 12.480714,79.0123151 12.768061,82.1708924"></path>
                </g>
            </g>
        </g>
    </g>
</svg>