<?xml version="1.0" encoding="UTF-8" standalone="no"?>
<svg width="48px" height="94px" viewBox="0 0 48 94" version="1.1" xmlns="http://www.w3.org/2000/svg" xmlns:xlink="http://www.w3.org/1999/xlink" xmlns:sketch="http://www.bohemiancoding.com/sketch/ns">
    <!-- Generator: Sketch 3.4.4 (17249) - http://www.bohemiancoding.com/sketch -->
    <title>woman_2</title>
    <desc>Created with Sketch.</desc>
    <defs></defs>
    <g id="Page-1" stroke="none" stroke-width="1" fill="none" fill-rule="evenodd" sketch:type="MSPage">
        <g id="Welcome" sketch:type="MSArtboardGroup" transform="translate(-144.000000, -172.000000)" fill="#2ECC71">
            <g id="People" sketch:type="MSLayerGroup" transform="translate(6.373178, 150.000000)">
                <g id="woman_2" transform="translate(137.000000, 22.000000)" sketch:type="MSShapeGroup">
                    <path d="M1.522186,87.021563 C1.358734,86.946927 1.151247,86.916327 1.069894,86.762577 C0.385486,83.696548 2.56783,81.379114 3.729906,79.619207 C4.768833,78.05186 5.365171,76.1464141 6.392157,74.6843033 C7.188518,73.5550672 7.757241,72.5825657 8.275958,71.5018427 C8.561066,70.910729 9.028285,70.1404899 9.509684,69.4239884 C10.061988,68.6074753 10.636681,67.6902042 11.068821,67.4110672 C11.312133,67.0752071 11.243469,66.8117435 11.394232,66.437073 C11.67934,65.7272887 12.527947,65.035417 12.757078,64.4241517 C12.899632,64.0464957 12.867539,63.4001517 13.018302,62.865761 C13.232506,62.1007465 13.404915,61.7014462 13.472087,60.8528398 C13.571352,59.5885132 14.554302,58.958589 14.705813,58.1898427 C14.741638,58.0032538 14.630431,57.6800817 14.64088,57.4763266 C14.653568,57.2143558 14.820751,56.9001401 14.834932,56.5672654 C14.852845,56.1918485 14.722979,55.7947873 14.769253,55.4634054 C14.834932,55.0163383 15.154372,54.6453995 15.159597,54.2946124 C15.169299,53.7811196 14.702827,53.246729 14.705813,52.6712887 C14.707305,52.0921167 14.963305,51.7950672 15.225276,51.242764 C14.967783,50.911382 15.09541,50.5762683 15.159597,50.1381575 C14.91927,50.1403966 14.783434,50.0381459 14.64088,49.9433587 C14.566244,49.6739243 14.776716,49.6903441 14.769253,49.4880817 C14.293824,49.4686765 14.345323,48.9186124 13.990804,48.7745657 C13.830337,48.7588922 13.726594,48.8006882 13.622851,48.8424841 C13.510151,48.8872654 13.397451,48.9327931 13.211609,48.9044316 C12.827235,45.0562217 13.31162,40.969178 14.185603,37.2165016 C14.343084,36.5388106 14.325171,35.3998718 14.380402,34.7483033 C14.647597,31.5785307 13.204891,29.337971 13.018302,26.3062742 C12.77723,22.4334345 13.027259,18.5382042 14.511014,16.5655861 C14.902104,16.0461226 16.605288,14.6967115 16.070151,14.0332013 C15.932075,14.0040934 15.747725,14.0190205 15.558897,14.034694 C15.242442,14.0600701 14.913299,14.0861925 14.769253,13.9033354 C14.14306,14.0861925 14.473696,14.8870322 13.861684,15.0079418 C13.701218,14.991522 14.153509,14.6847698 13.731072,14.74821 C13.510151,14.8168747 13.91169,14.7676153 13.796005,14.9422625 C13.605684,14.981073 13.437754,14.9041984 13.277288,14.8273237 C13.056367,14.7213412 12.851119,14.6161051 12.626466,14.8123966 C12.545113,14.5914753 12.364495,14.4705657 12.107748,14.4227989 C11.974897,14.5511721 12.061474,14.8974812 11.848017,14.9422625 C11.565894,14.7743325 11.160623,14.2869622 10.809836,13.8384024 C10.691165,13.9705074 10.394862,14.1570963 10.289626,14.0981342 C10.202302,13.7794403 10.39934,13.4525366 10.289626,13.189073 C10.175434,12.9144141 9.746279,12.8487348 9.575364,12.6046765 C9.386536,12.3382275 9.539539,11.697108 8.989474,11.7612946 C8.892448,11.531417 9.020075,11.2978077 8.926034,11.1761517 C8.778256,11.2231721 8.984996,11.6254578 8.731235,11.5657494 C8.720786,11.1657027 8.981265,10.9156736 8.666302,10.6566882 C8.490909,10.5813062 8.420005,10.6529564 8.372238,10.7238602 C8.322979,10.797003 8.298349,10.8693995 8.211772,10.786554 C7.765451,10.4200934 8.10355,9.659557 8.405824,8.9684316 C8.310291,9.1886065 8.631224,8.4123966 8.731235,8.1892363 C8.422244,8.226554 8.475235,7.901143 8.405824,7.8645715 C8.502104,7.4189972 9.180541,6.765936 9.120087,6.3711138 C9.03127,6.3397669 8.945439,6.3703675 8.867818,6.400968 C8.762582,6.442764 8.670781,6.4853062 8.601369,6.3711138 C8.732728,6.0636153 8.908868,5.7911954 8.860355,5.4620526 C9.656716,4.9366182 10.146326,4.8769097 10.484425,4.2925132 C10.234396,4.0559185 10.130652,3.6655745 10.224693,3.2543325 C11.082256,2.9751954 11.696506,2.9513121 11.977883,2.2795919 C12.121929,2.2519768 12.589148,2.3833354 12.757078,2.5400701 C12.710058,2.1437552 13.197428,1.5309972 13.341474,1.5003966 C13.88109,1.3869505 14.198291,1.8437202 14.705813,2.0198602 C15.077498,2.1504724 15.427539,2.1228573 15.679807,2.3452712 C16.08881,2.2788456 16.243305,1.9564199 16.523189,1.7601284 C17.931562,0.8309156 19.988518,0.6025307 21.523025,1.1115453 C22.193999,1.3324666 23.198594,2.0161284 24.056157,2.605003 C24.541288,3.6924433 25.214501,4.8216794 24.771165,6.111382 C25.024926,6.455452 24.72713,7.0107406 24.836098,7.6048398 C24.948798,8.2295395 25.466023,8.9557435 25.160017,9.7483733 C24.935364,10.3335161 24.633836,10.8805949 24.445754,11.5657494 C24.075562,12.9129214 24.064367,14.0249914 22.49702,13.8384024 C22.451492,14.2474054 22.453731,14.704175 22.3679,15.0728747 C22.805265,15.6154753 22.909754,15.7117552 23.472506,16.1118019 C23.739702,17.2216328 24.320367,17.9664957 24.771165,18.7740526 C25.586932,20.2384024 25.937719,21.7549972 26.587795,23.4492246 C26.91246,24.2918602 27.453568,24.9501459 27.691655,25.6576911 C28.13499,26.9660526 28.308145,28.3841284 28.40741,30.0081984 C28.500705,31.5359884 28.676098,32.7697144 28.602955,34.3587056 C28.53653,35.7849914 28.873136,36.4858194 29.186606,37.7352188 C29.398571,38.5823325 29.490372,39.5160234 29.64039,40.3982159 C30.096413,43.0806182 30.604681,45.6562917 30.485265,48.384968 C30.411375,48.5028922 30.314349,48.4536328 30.235235,48.4051196 C30.167317,48.3625774 30.112087,48.3200351 30.095667,48.384968 C30.76067,49.7112421 31.101754,51.3606882 31.589871,52.8660876 C31.936926,52.2242217 32.956448,52.3615511 33.731912,51.891347 C33.766244,51.4786124 34.212565,51.2532129 34.641719,51.4375628 C35.285078,50.8203266 36.721066,50.6120934 37.30397,51.4375628 L38.015247,53.0802917 C39.365404,56.1552771 40.914839,59.5079068 42.303807,62.5418427 C42.791923,63.6076386 43.682326,64.8667406 42.303807,65.3339593 C42.223947,65.5302508 42.357544,65.6825074 42.238874,65.9176094 C41.912716,66.2116736 41.516402,66.0012013 41.26488,65.9832887 C39.188518,66.9819126 36.768087,67.9790438 34.899958,68.9702042 C35.142524,70.1486998 35.857533,71.1279185 36.394162,72.0869855 C36.965125,73.105761 37.490559,74.1200584 38.213031,74.9440351 C39.278081,76.1613412 40.26327,76.6479651 40.876028,78.126496 C41.555958,78.629539 41.894058,79.261703 42.303807,79.944618 C43.183014,81.410461 44.474209,82.336688 45.030244,84.294379 C43.898769,85.288525 42.623247,85.896058 41.004402,86.633458 C41.689556,87.593271 42.501591,88.426204 43.083002,89.489761 C44.339119,90.191335 46.422197,90.157003 48.082092,90.269703 C48.227632,90.427184 48.226139,90.73319 48.211958,91.047405 C46.505043,91.996023 44.31225,92.110216 42.238874,92.216945 C40.776763,92.292327 40.446874,91.814659 39.641556,91.178764 C39.304203,90.910822 38.901171,90.594367 38.47127,90.333143 C37.60102,89.804723 36.693451,89.377808 35.809766,89.944292 C35.491818,90.513761 35.717218,91.625831 35.549288,92.348303 L35.09625,92.348303 C34.873836,91.198916 35.170139,90.522717 34.835025,89.750239 C34.44095,88.838193 33.25723,88.667277 33.731912,87.152175 C33.35127,86.438659 33.611002,85.45123 33.47218,84.684723 C33.336343,83.933889 32.570582,83.247242 32.369066,82.672548 C32.190687,82.171744 32.272786,81.563464 32.173521,81.049225 C32.083958,80.579767 31.88916,80.15733 31.71899,79.684886 C30.759923,77.0129331 29.586652,74.3506823 28.666396,71.8280001 C27.32818,72.5027056 25.906372,73.093073 24.639807,73.8409214 C24.612938,73.9633237 24.728623,74.2312654 24.510687,74.1640934 C24.485311,74.3566532 24.206174,74.2909739 24.12109,74.4253179 C23.830011,74.4551721 23.83225,74.1939476 23.60088,74.1640934 C22.87169,74.4342742 21.80888,74.2753004 21.393906,73.8409214 C20.858023,72.0160817 19.892238,70.6241284 19.315305,68.8403383 C16.351527,71.9645832 13.138466,76.7606648 10.67997,80.594694 C10.439644,80.967125 10.032133,81.326123 9.769416,81.697808 C9.701498,81.793341 9.770909,81.9247 9.70523,82.023219 L9.445498,82.153085 C8.518524,83.350239 8.052052,85.266134 8.146092,87.346974 C8.190874,88.318729 8.207294,89.901749 8.601369,90.461516 C8.787212,90.728711 9.227562,90.942916 9.575364,91.178764 C10.423224,91.753458 11.096437,91.830332 12.107748,92.216945 L12.107748,92.60505 C9.707469,93.676816 5.663713,93.418577 4.381474,91.698974 C3.563469,90.601831 3.657509,87.371604 2.107329,87.217108 C1.784903,87.717166 1.666232,88.422472 1.199014,88.776991 C0.469824,88.42098 1.460238,87.596257 1.522186,87.021563"></path>
                </g>
            </g>
        </g>
    </g>
</svg>